solid 
facet normal 0.0024322353 0.098018035 -0.9951817
 outer loop
  vertex 0.010327994 0.27084634 -0.037876055
  vertex -0.009671927 0.27082327 -0.037927207
  vertex -0.009672774 0.2714254 -0.037867904
 endloop
endfacet
facet normal 0.002432235 0.09801802 -0.9951817
 outer loop
  vertex 0.010327994 0.27084634 -0.037876055
  vertex -0.009672774 0.2714254 -0.037867904
  vertex 0.010327147 0.27144846 -0.03781675
 endloop
endfacet
facet normal 0.0021126755 0.29028252 -0.9569386
 outer loop
  vertex 0.010327147 0.27144846 -0.03781675
  vertex -0.009672774 0.2714254 -0.037867904
  vertex -0.009673891 0.27200437 -0.03769228
 endloop
endfacet
facet normal 0.0021128429 0.29028818 -0.95693696
 outer loop
  vertex 0.010327147 0.27144846 -0.03781675
  vertex -0.009673891 0.27200437 -0.03769228
  vertex 0.010326031 0.27202743 -0.037641123
 endloop
endfacet
facet normal 0.001712076 0.47139895 -0.8819185
 outer loop
  vertex 0.010326031 0.27202743 -0.037641123
  vertex -0.009673891 0.27200437 -0.03769228
  vertex -0.0096752355 0.27253795 -0.037407074
 endloop
endfacet
facet normal 0.0017125746 0.4714146 -0.8819101
 outer loop
  vertex 0.010326031 0.27202743 -0.037641123
  vertex -0.0096752355 0.27253795 -0.037407074
  vertex 0.010324686 0.27256098 -0.037355922
 endloop
endfacet
facet normal 0.0012463175 0.6343941 -0.7730088
 outer loop
  vertex 0.010324686 0.27256098 -0.037355922
  vertex -0.0096752355 0.27253795 -0.037407074
  vertex -0.009676756 0.27300563 -0.037023254
 endloop
endfacet
facet normal 0.0012463176 0.6343941 -0.7730088
 outer loop
  vertex 0.010324686 0.27256098 -0.037355922
  vertex -0.009676756 0.27300563 -0.037023254
  vertex 0.010323165 0.27302867 -0.0369721
 endloop
endfacet
facet normal 0.00073203736 0.7730311 -0.63436776
 outer loop
  vertex 0.010323165 0.27302867 -0.0369721
  vertex -0.009676756 0.27300563 -0.037023254
  vertex -0.0096783945 0.27338943 -0.03655557
 endloop
endfacet
facet normal 0.000731096 0.77300936 -0.63439417
 outer loop
  vertex 0.010323165 0.27302867 -0.0369721
  vertex -0.0096783945 0.27338943 -0.03655557
  vertex 0.010321527 0.2734125 -0.036504414
 endloop
endfacet
facet normal 0.00018858035 0.88191915 -0.47140056
 outer loop
  vertex 0.010321527 0.2734125 -0.036504414
  vertex -0.0096783945 0.27338943 -0.03655557
  vertex -0.009680089 0.27367464 -0.03602199
 endloop
endfacet
facet normal 0.00018850065 0.88191783 -0.47140315
 outer loop
  vertex 0.010321527 0.2734125 -0.036504414
  vertex -0.009680089 0.27367464 -0.03602199
  vertex 0.010319833 0.2736977 -0.035970837
 endloop
endfacet
facet normal -0.0003612643 0.9569411 -0.2902821
 outer loop
  vertex 0.010319833 0.2736977 -0.035970837
  vertex -0.009680089 0.27367464 -0.03602199
  vertex -0.0096817715 0.27385026 -0.035443023
 endloop
endfacet
facet normal -0.0003612643 0.9569411 -0.2902821
 outer loop
  vertex 0.010319833 0.2736977 -0.035970837
  vertex -0.0096817715 0.27385026 -0.035443023
  vertex 0.01031815 0.27387333 -0.03539187
 endloop
endfacet
facet normal -0.00089708465 0.99518335 -0.09802696
 outer loop
  vertex 0.01031815 0.27387333 -0.03539187
  vertex -0.0096817715 0.27385026 -0.035443023
  vertex -0.00968338 0.27390957 -0.03484092
 endloop
endfacet
facet normal -0.00089706795 0.99518347 -0.09802638
 outer loop
  vertex 0.01031815 0.27387333 -0.03539187
  vertex -0.00968338 0.27390957 -0.03484092
  vertex 0.010316541 0.27393264 -0.034789763
 endloop
endfacet
facet normal -0.0013985155 0.9951834 0.09802054
 outer loop
  vertex 0.010316541 0.27393264 -0.034789763
  vertex -0.00968338 0.27390957 -0.03484092
  vertex -0.009684852 0.27385026 -0.03423881
 endloop
endfacet
facet normal -0.0013984987 0.9951833 0.098021135
 outer loop
  vertex 0.010316541 0.27393264 -0.034789763
  vertex -0.009684852 0.27385026 -0.03423881
  vertex 0.010315069 0.27387333 -0.03418766
 endloop
endfacet
facet normal -0.0018461066 0.9569409 0.2902769
 outer loop
  vertex 0.010315069 0.27387333 -0.03418766
  vertex -0.009684852 0.27385026 -0.03423881
  vertex -0.00968613 0.27367464 -0.033659846
 endloop
endfacet
facet normal -0.0018461066 0.9569409 0.2902769
 outer loop
  vertex 0.010315069 0.27387333 -0.03418766
  vertex -0.00968613 0.27367464 -0.033659846
  vertex 0.010313791 0.2736977 -0.033608694
 endloop
endfacet
facet normal -0.0022228174 0.88191724 0.4713991
 outer loop
  vertex 0.010313791 0.2736977 -0.033608694
  vertex -0.00968613 0.27367464 -0.033659846
  vertex -0.009687166 0.27338943 -0.03312627
 endloop
endfacet
facet normal -0.0022229 0.88191855 0.4713965
 outer loop
  vertex 0.010313791 0.2736977 -0.033608694
  vertex -0.009687166 0.27338943 -0.03312627
  vertex 0.010312756 0.2734125 -0.033075113
 endloop
endfacet
facet normal -0.002514195 0.77300787 0.6343914
 outer loop
  vertex 0.010312756 0.2734125 -0.033075113
  vertex -0.009687166 0.27338943 -0.03312627
  vertex -0.009687919 0.2730056 -0.03265858
 endloop
endfacet
facet normal -0.002514082 0.7730054 0.6343945
 outer loop
  vertex 0.010312756 0.2734125 -0.033075113
  vertex -0.009687919 0.2730056 -0.03265858
  vertex 0.010312002 0.27302867 -0.03260743
 endloop
endfacet
facet normal -0.0027087275 0.63439137 0.7730073
 outer loop
  vertex 0.010312002 0.27302867 -0.03260743
  vertex -0.009687919 0.2730056 -0.03265858
  vertex -0.009688362 0.27253792 -0.03227476
 endloop
endfacet
facet normal -0.002708728 0.63439137 0.7730073
 outer loop
  vertex 0.010312002 0.27302867 -0.03260743
  vertex -0.009688362 0.27253792 -0.03227476
  vertex 0.01031156 0.27256098 -0.03222361
 endloop
endfacet
facet normal -0.0027992867 0.4713901 0.8819204
 outer loop
  vertex 0.01031156 0.27256098 -0.03222361
  vertex -0.009688362 0.27253792 -0.03227476
  vertex -0.009688476 0.27200434 -0.03198956
 endloop
endfacet
facet normal -0.00279945 0.4713949 0.88191783
 outer loop
  vertex 0.01031156 0.27256098 -0.03222361
  vertex -0.009688476 0.27200434 -0.03198956
  vertex 0.010311445 0.2720274 -0.031938404
 endloop
endfacet
facet normal -0.0027824466 0.290283 0.95693684
 outer loop
  vertex 0.010311445 0.2720274 -0.031938404
  vertex -0.009688476 0.27200434 -0.03198956
  vertex -0.009688258 0.27142537 -0.03181393
 endloop
endfacet
facet normal -0.0027822664 0.29027736 0.9569385
 outer loop
  vertex 0.010311445 0.2720274 -0.031938404
  vertex -0.009688258 0.27142537 -0.03181393
  vertex 0.010311663 0.27144843 -0.03176278
 endloop
endfacet
facet normal -0.0026583318 0.098017015 0.9951812
 outer loop
  vertex 0.010311663 0.27144843 -0.03176278
  vertex -0.009688258 0.27142537 -0.03181393
  vertex -0.009687715 0.27082327 -0.031754628
 endloop
endfacet
facet normal -0.0026583318 0.09801701 0.9951812
 outer loop
  vertex 0.010311663 0.27144843 -0.03176278
  vertex -0.009687715 0.27082327 -0.031754628
  vertex 0.010312206 0.27084634 -0.031703476
 endloop
endfacet
facet normal -0.0024322353 -0.098018035 0.9951817
 outer loop
  vertex 0.010312206 0.27084634 -0.031703476
  vertex -0.009687715 0.27082327 -0.031754628
  vertex -0.009686869 0.27022114 -0.03181393
 endloop
endfacet
facet normal -0.002432235 -0.09801803 0.9951817
 outer loop
  vertex 0.010312206 0.27084634 -0.031703476
  vertex -0.009686869 0.27022114 -0.03181393
  vertex 0.010313053 0.2702442 -0.03176278
 endloop
endfacet
facet normal -0.0021126647 -0.29028818 0.95693696
 outer loop
  vertex 0.010313053 0.2702442 -0.03176278
  vertex -0.009686869 0.27022114 -0.03181393
  vertex -0.009685752 0.26964217 -0.03198956
 endloop
endfacet
facet normal -0.0021128536 -0.29028255 0.9569386
 outer loop
  vertex 0.010313053 0.2702442 -0.03176278
  vertex -0.009685752 0.26964217 -0.03198956
  vertex 0.010314169 0.26966524 -0.031938404
 endloop
endfacet
facet normal -0.0017120366 -0.4714146 0.8819101
 outer loop
  vertex 0.010314169 0.26966524 -0.031938404
  vertex -0.009685752 0.26964217 -0.03198956
  vertex -0.009684407 0.26910862 -0.03227476
 endloop
endfacet
facet normal -0.001712614 -0.47139886 0.88191843
 outer loop
  vertex 0.010314169 0.26966524 -0.031938404
  vertex -0.009684407 0.26910862 -0.03227476
  vertex 0.010315514 0.26913166 -0.03222361
 endloop
endfacet
facet normal -0.0012463175 -0.6343941 0.7730088
 outer loop
  vertex 0.010315514 0.26913166 -0.03222361
  vertex -0.009684407 0.26910862 -0.03227476
  vertex -0.009682886 0.26864094 -0.03265858
 endloop
endfacet
facet normal -0.0012463176 -0.6343941 0.7730088
 outer loop
  vertex 0.010315514 0.26913166 -0.03222361
  vertex -0.009682886 0.26864094 -0.03265858
  vertex 0.010317035 0.26866397 -0.03260743
 endloop
endfacet
facet normal -0.00073212985 -0.7730094 0.63439417
 outer loop
  vertex 0.010317035 0.26866397 -0.03260743
  vertex -0.009682886 0.26864094 -0.03265858
  vertex -0.009681248 0.2682571 -0.03312627
 endloop
endfacet
facet normal -0.00073100347 -0.77303106 0.63436776
 outer loop
  vertex 0.010317035 0.26866397 -0.03260743
  vertex -0.009681248 0.2682571 -0.03312627
  vertex 0.010318673 0.26828018 -0.033075113
 endloop
endfacet
facet normal -0.00018858851 -0.88191783 0.47140315
 outer loop
  vertex 0.010318673 0.26828018 -0.033075113
  vertex -0.009681248 0.2682571 -0.03312627
  vertex -0.009679554 0.2679719 -0.033659846
 endloop
endfacet
facet normal -0.00018849265 -0.88191915 0.47140056
 outer loop
  vertex 0.010318673 0.26828018 -0.033075113
  vertex -0.009679554 0.2679719 -0.033659846
  vertex 0.010320367 0.26799497 -0.033608694
 endloop
endfacet
facet normal 0.0003612643 -0.9569411 0.2902821
 outer loop
  vertex 0.010320367 0.26799497 -0.033608694
  vertex -0.009679554 0.2679719 -0.033659846
  vertex -0.009677871 0.26779628 -0.03423881
 endloop
endfacet
facet normal 0.0003612644 -0.9569411 0.2902821
 outer loop
  vertex 0.010320367 0.26799497 -0.033608694
  vertex -0.009677871 0.26779628 -0.03423881
  vertex 0.01032205 0.26781934 -0.03418766
 endloop
endfacet
facet normal 0.0008970862 -0.99518347 0.098026365
 outer loop
  vertex 0.01032205 0.26781934 -0.03418766
  vertex -0.009677871 0.26779628 -0.03423881
  vertex -0.009676263 0.26773697 -0.03484092
 endloop
endfacet
facet normal 0.00089706626 -0.99518335 0.09802696
 outer loop
  vertex 0.01032205 0.26781934 -0.03418766
  vertex -0.009676263 0.26773697 -0.03484092
  vertex 0.010323659 0.26776004 -0.034789763
 endloop
endfacet
facet normal 0.001398517 -0.9951833 -0.098021135
 outer loop
  vertex 0.010323659 0.26776004 -0.034789763
  vertex -0.009676263 0.26773697 -0.03484092
  vertex -0.00967479 0.26779628 -0.035443023
 endloop
endfacet
facet normal 0.0013984973 -0.9951834 -0.098020546
 outer loop
  vertex 0.010323659 0.26776004 -0.034789763
  vertex -0.00967479 0.26779628 -0.035443023
  vertex 0.010325131 0.26781934 -0.03539187
 endloop
endfacet
facet normal 0.0018461066 -0.9569409 -0.2902769
 outer loop
  vertex 0.010325131 0.26781934 -0.03539187
  vertex -0.00967479 0.26779628 -0.035443023
  vertex -0.009673513 0.2679719 -0.03602199
 endloop
endfacet
facet normal 0.0018461066 -0.9569409 -0.2902769
 outer loop
  vertex 0.010325131 0.26781934 -0.03539187
  vertex -0.009673513 0.2679719 -0.03602199
  vertex 0.010326409 0.26799497 -0.035970837
 endloop
endfacet
facet normal 0.0022228123 -0.88191855 -0.4713965
 outer loop
  vertex 0.010326409 0.26799497 -0.035970837
  vertex -0.009673513 0.2679719 -0.03602199
  vertex -0.009672477 0.2682571 -0.03655557
 endloop
endfacet
facet normal 0.002222905 -0.8819172 -0.4713991
 outer loop
  vertex 0.010326409 0.26799497 -0.035970837
  vertex -0.009672477 0.2682571 -0.03655557
  vertex 0.010327444 0.26828018 -0.036504414
 endloop
endfacet
facet normal 0.0025142 -0.7730054 -0.6343945
 outer loop
  vertex 0.010327444 0.26828018 -0.036504414
  vertex -0.009672477 0.2682571 -0.03655557
  vertex -0.0096717235 0.26864094 -0.037023254
 endloop
endfacet
facet normal 0.002514077 -0.77300787 -0.6343914
 outer loop
  vertex 0.010327444 0.26828018 -0.036504414
  vertex -0.0096717235 0.26864094 -0.037023254
  vertex 0.010328198 0.268664 -0.0369721
 endloop
endfacet
facet normal 0.0027087275 -0.63439137 -0.7730073
 outer loop
  vertex 0.010328198 0.268664 -0.0369721
  vertex -0.0096717235 0.26864094 -0.037023254
  vertex -0.009671281 0.26910862 -0.037407074
 endloop
endfacet
facet normal 0.0027087277 -0.6343914 -0.7730073
 outer loop
  vertex 0.010328198 0.268664 -0.0369721
  vertex -0.009671281 0.26910862 -0.037407074
  vertex 0.01032864 0.2691317 -0.037355922
 endloop
endfacet
facet normal 0.0027992856 -0.4713949 -0.88191783
 outer loop
  vertex 0.01032864 0.2691317 -0.037355922
  vertex -0.009671281 0.26910862 -0.037407074
  vertex -0.009671167 0.2696422 -0.03769228
 endloop
endfacet
facet normal 0.0027994507 -0.47139007 -0.8819204
 outer loop
  vertex 0.01032864 0.2691317 -0.037355922
  vertex -0.009671167 0.2696422 -0.03769228
  vertex 0.010328755 0.26966527 -0.037641123
 endloop
endfacet
facet normal -0.9999961 -0.0011546506 -0.0025517056
 outer loop
  vertex -0.009673891 0.27200437 -0.03769228
  vertex -0.009672774 0.2714254 -0.037867904
  vertex -0.009671927 0.27082327 -0.037927207
 endloop
endfacet
facet normal -0.999996 -0.0011543898 -0.0025647143
 outer loop
  vertex -0.009671927 0.27082327 -0.037927207
  vertex -0.0096713845 0.27022117 -0.037867904
  vertex -0.009671167 0.2696422 -0.03769228
 endloop
endfacet
facet normal -0.999996 -0.0011510629 -0.0025551394
 outer loop
  vertex -0.009671167 0.2696422 -0.03769228
  vertex -0.009671281 0.26910862 -0.037407074
  vertex -0.0096717235 0.26864094 -0.037023254
 endloop
endfacet
facet normal -0.999996 -0.0011528106 -0.002557097
 outer loop
  vertex -0.0096717235 0.26864094 -0.037023254
  vertex -0.009672477 0.2682571 -0.03655557
  vertex -0.009673513 0.2679719 -0.03602199
 endloop
endfacet
facet normal -0.999996 -0.0011641334 -0.0025601168
 outer loop
  vertex -0.009673513 0.2679719 -0.03602199
  vertex -0.00967479 0.26779628 -0.035443023
  vertex -0.009676263 0.26773697 -0.03484092
 endloop
endfacet
facet normal -0.999996 -0.0011494523 -0.0025580442
 outer loop
  vertex -0.009676263 0.26773697 -0.03484092
  vertex -0.009677871 0.26779628 -0.03423881
  vertex -0.009679554 0.2679719 -0.033659846
 endloop
endfacet
facet normal -0.999996 -0.0011455471 -0.0025626093
 outer loop
  vertex -0.009679554 0.2679719 -0.033659846
  vertex -0.009681248 0.2682571 -0.03312627
  vertex -0.009682886 0.26864094 -0.03265858
 endloop
endfacet
facet normal -0.999996 -0.0011543697 -0.0025557766
 outer loop
  vertex -0.009682886 0.26864094 -0.03265858
  vertex -0.009684407 0.26910862 -0.03227476
  vertex -0.009685752 0.26964217 -0.03198956
 endloop
endfacet
facet normal -0.9999961 -0.0011546587 -0.002551626
 outer loop
  vertex -0.009685752 0.26964217 -0.03198956
  vertex -0.009686869 0.27022114 -0.03181393
  vertex -0.009687715 0.27082327 -0.031754628
 endloop
endfacet
facet normal -0.999996 -0.0011543819 -0.0025646335
 outer loop
  vertex -0.009687715 0.27082327 -0.031754628
  vertex -0.009688258 0.27142537 -0.03181393
  vertex -0.009688476 0.27200434 -0.03198956
 endloop
endfacet
facet normal -0.999996 -0.0011510116 -0.002555077
 outer loop
  vertex -0.009688476 0.27200434 -0.03198956
  vertex -0.009688362 0.27253792 -0.03227476
  vertex -0.009687919 0.2730056 -0.03265858
 endloop
endfacet
facet normal -0.999996 -0.0011529446 -0.0025571864
 outer loop
  vertex -0.009687919 0.2730056 -0.03265858
  vertex -0.009687166 0.27338943 -0.03312627
  vertex -0.00968613 0.27367464 -0.033659846
 endloop
endfacet
facet normal -0.999996 -0.0011640567 -0.0025600933
 outer loop
  vertex -0.00968613 0.27367464 -0.033659846
  vertex -0.009684852 0.27385026 -0.03423881
  vertex -0.00968338 0.27390957 -0.03484092
 endloop
endfacet
facet normal -0.999996 -0.0011493742 -0.0025580677
 outer loop
  vertex -0.00968338 0.27390957 -0.03484092
  vertex -0.0096817715 0.27385026 -0.035443023
  vertex -0.009680089 0.27367464 -0.03602199
 endloop
endfacet
facet normal -0.999996 -0.0011459362 -0.0025623834
 outer loop
  vertex -0.009680089 0.27367464 -0.03602199
  vertex -0.0096783945 0.27338943 -0.03655557
  vertex -0.009676756 0.27300563 -0.037023254
 endloop
endfacet
facet normal -0.999996 -0.0011541337 -0.0025560642
 outer loop
  vertex -0.009676756 0.27300563 -0.037023254
  vertex -0.0096752355 0.27253795 -0.037407074
  vertex -0.009673891 0.27200437 -0.03769228
 endloop
endfacet
facet normal -0.9999961 -0.0011532266 -0.0025588658
 outer loop
  vertex -0.009673891 0.27200437 -0.03769228
  vertex -0.009671927 0.27082327 -0.037927207
  vertex -0.009671167 0.2696422 -0.03769228
 endloop
endfacet
facet normal -0.9999961 -0.001152016 -0.0025565661
 outer loop
  vertex -0.009671167 0.2696422 -0.03769228
  vertex -0.0096717235 0.26864094 -0.037023254
  vertex -0.009673513 0.2679719 -0.03602199
 endloop
endfacet
facet normal -0.9999961 -0.0011515833 -0.0025576206
 outer loop
  vertex -0.009673513 0.2679719 -0.03602199
  vertex -0.009676263 0.26773697 -0.03484092
  vertex -0.009679554 0.2679719 -0.033659846
 endloop
endfacet
facet normal -0.9999961 -0.0011532372 -0.002557471
 outer loop
  vertex -0.009679554 0.2679719 -0.033659846
  vertex -0.009682886 0.26864094 -0.03265858
  vertex -0.009685752 0.26964217 -0.03198956
 endloop
endfacet
facet normal -0.9999961 -0.0011532267 -0.0025588253
 outer loop
  vertex -0.009685752 0.26964217 -0.03198956
  vertex -0.009687715 0.27082327 -0.031754628
  vertex -0.009688476 0.27200434 -0.03198956
 endloop
endfacet
facet normal -0.9999961 -0.0011519988 -0.0025565545
 outer loop
  vertex -0.009688476 0.27200434 -0.03198956
  vertex -0.009687919 0.2730056 -0.03265858
  vertex -0.00968613 0.27367464 -0.033659846
 endloop
endfacet
facet normal -0.9999961 -0.0011516233 -0.0025576206
 outer loop
  vertex -0.00968613 0.27367464 -0.033659846
  vertex -0.00968338 0.27390957 -0.03484092
  vertex -0.009680089 0.27367464 -0.03602199
 endloop
endfacet
facet normal -0.9999961 -0.001153117 -0.002557586
 outer loop
  vertex -0.009680089 0.27367464 -0.03602199
  vertex -0.009676756 0.27300563 -0.037023254
  vertex -0.009673891 0.27200437 -0.03769228
 endloop
endfacet
facet normal -0.99999607 -0.0011532266 -0.0025577764
 outer loop
  vertex -0.009673891 0.27200437 -0.03769228
  vertex -0.009671167 0.2696422 -0.03769228
  vertex -0.009673513 0.2679719 -0.03602199
 endloop
endfacet
facet normal -0.99999607 -0.001153088 -0.0025576204
 outer loop
  vertex -0.009673513 0.2679719 -0.03602199
  vertex -0.009679554 0.2679719 -0.033659846
  vertex -0.009685752 0.26964217 -0.03198956
 endloop
endfacet
facet normal -0.99999607 -0.0011532265 -0.0025577822
 outer loop
  vertex -0.009685752 0.26964217 -0.03198956
  vertex -0.009688476 0.27200434 -0.03198956
  vertex -0.00968613 0.27367464 -0.033659846
 endloop
endfacet
facet normal -0.99999607 -0.0011530822 -0.0025576204
 outer loop
  vertex -0.00968613 0.27367464 -0.033659846
  vertex -0.009680089 0.27367464 -0.03602199
  vertex -0.009673891 0.27200437 -0.03769228
 endloop
endfacet
facet normal -0.99999607 -0.0011531512 -0.0025575943
 outer loop
  vertex -0.009673891 0.27200437 -0.03769228
  vertex -0.009673513 0.2679719 -0.03602199
  vertex -0.009685752 0.26964217 -0.03198956
 endloop
endfacet
facet normal -0.99999607 -0.0011531482 -0.002557593
 outer loop
  vertex -0.009685752 0.26964217 -0.03198956
  vertex -0.00968613 0.27367464 -0.033659846
  vertex -0.009673891 0.27200437 -0.03769228
 endloop
endfacet
facet normal 0.0027824445 -0.29027733 -0.9569385
 outer loop
  vertex 0.010328755 0.26966527 -0.037641123
  vertex -0.009671167 0.2696422 -0.03769228
  vertex -0.0096713845 0.27022117 -0.037867904
 endloop
endfacet
facet normal 0.0027822687 -0.29028302 -0.95693684
 outer loop
  vertex 0.010328755 0.26966527 -0.037641123
  vertex -0.0096713845 0.27022117 -0.037867904
  vertex 0.010328537 0.27024424 -0.03781675
 endloop
endfacet
facet normal 0.0026583318 -0.098017015 -0.9951812
 outer loop
  vertex 0.010328537 0.27024424 -0.03781675
  vertex -0.0096713845 0.27022117 -0.037867904
  vertex -0.009671927 0.27082327 -0.037927207
 endloop
endfacet
facet normal 0.002658332 -0.09801702 -0.9951812
 outer loop
  vertex 0.010328537 0.27024424 -0.03781675
  vertex -0.009671927 0.27082327 -0.037927207
  vertex 0.010327994 0.27084634 -0.037876055
 endloop
endfacet
facet normal 0.999996 0.0011538796 0.0025595345
 outer loop
  vertex 0.010328537 0.27024424 -0.03781675
  vertex 0.010327994 0.27084634 -0.037876055
  vertex 0.010327147 0.27144846 -0.03781675
 endloop
endfacet
facet normal 0.999996 0.0011521265 0.0025599732
 outer loop
  vertex 0.010327147 0.27144846 -0.03781675
  vertex 0.010326031 0.27202743 -0.037641123
  vertex 0.010324686 0.27256098 -0.037355922
 endloop
endfacet
facet normal 0.999996 0.0011553928 0.002554528
 outer loop
  vertex 0.010324686 0.27256098 -0.037355922
  vertex 0.010323165 0.27302867 -0.0369721
  vertex 0.010321527 0.2734125 -0.036504414
 endloop
endfacet
facet normal 0.999996 0.0011601701 0.0025547924
 outer loop
  vertex 0.010321527 0.2734125 -0.036504414
  vertex 0.010319833 0.2736977 -0.035970837
  vertex 0.01031815 0.27387333 -0.03539187
 endloop
endfacet
facet normal 0.999996 0.0011462715 0.0025583573
 outer loop
  vertex 0.01031815 0.27387333 -0.03539187
  vertex 0.010316541 0.27393264 -0.034789763
  vertex 0.010315069 0.27387333 -0.03418766
 endloop
endfacet
facet normal 0.9999961 0.0011510173 0.002556138
 outer loop
  vertex 0.010315069 0.27387333 -0.03418766
  vertex 0.010313791 0.2736977 -0.033608694
  vertex 0.010312756 0.2734125 -0.033075113
 endloop
endfacet
facet normal 0.999996 0.0011523772 0.0025567408
 outer loop
  vertex 0.010312756 0.2734125 -0.033075113
  vertex 0.010312002 0.27302867 -0.03260743
  vertex 0.01031156 0.27256098 -0.03222361
 endloop
endfacet
facet normal 0.9999961 0.0011520399 0.0025569673
 outer loop
  vertex 0.01031156 0.27256098 -0.03222361
  vertex 0.010311445 0.2720274 -0.031938404
  vertex 0.010311663 0.27144843 -0.03176278
 endloop
endfacet
facet normal 0.999996 0.0011538796 0.0025595345
 outer loop
  vertex 0.010311663 0.27144843 -0.03176278
  vertex 0.010312206 0.27084634 -0.031703476
  vertex 0.010313053 0.2702442 -0.03176278
 endloop
endfacet
facet normal 0.9999961 0.0011522725 0.002559546
 outer loop
  vertex 0.010313053 0.2702442 -0.03176278
  vertex 0.010314169 0.26966524 -0.031938404
  vertex 0.010315514 0.26913166 -0.03222361
 endloop
endfacet
facet normal 0.999996 0.001155157 0.002554817
 outer loop
  vertex 0.010315514 0.26913166 -0.03222361
  vertex 0.010317035 0.26866397 -0.03260743
  vertex 0.010318673 0.26828018 -0.033075113
 endloop
endfacet
facet normal 0.9999961 0.001160093 0.0025548162
 outer loop
  vertex 0.010318673 0.26828018 -0.033075113
  vertex 0.010320367 0.26799497 -0.033608694
  vertex 0.01032205 0.26781934 -0.03418766
 endloop
endfacet
facet normal 0.999996 0.0011464325 0.0025583573
 outer loop
  vertex 0.01032205 0.26781934 -0.03418766
  vertex 0.010323659 0.26776004 -0.034789763
  vertex 0.010325131 0.26781934 -0.03539187
 endloop
endfacet
facet normal 0.999996 0.0011509398 0.0025561142
 outer loop
  vertex 0.010325131 0.26781934 -0.03539187
  vertex 0.010326409 0.26799497 -0.035970837
  vertex 0.010327444 0.26828018 -0.036504414
 endloop
endfacet
facet normal 0.999996 0.0011523259 0.0025566781
 outer loop
  vertex 0.010327444 0.26828018 -0.036504414
  vertex 0.010328198 0.268664 -0.0369721
  vertex 0.01032864 0.2691317 -0.037355922
 endloop
endfacet
facet normal 0.999996 0.0011521014 0.0025571156
 outer loop
  vertex 0.01032864 0.2691317 -0.037355922
  vertex 0.010328755 0.26966527 -0.037641123
  vertex 0.010328537 0.27024424 -0.03781675
 endloop
endfacet
facet normal 0.9999961 0.0011538798 0.0025557408
 outer loop
  vertex 0.010328537 0.27024424 -0.03781675
  vertex 0.010327147 0.27144846 -0.03781675
  vertex 0.010324686 0.27256098 -0.037355922
 endloop
endfacet
facet normal 0.9999961 0.001151565 0.0025583575
 outer loop
  vertex 0.010324686 0.27256098 -0.037355922
  vertex 0.010321527 0.2734125 -0.036504414
  vertex 0.01031815 0.27387333 -0.03539187
 endloop
endfacet
facet normal 0.9999961 0.0011563754 0.0025583578
 outer loop
  vertex 0.01031815 0.27387333 -0.03539187
  vertex 0.010315069 0.27387333 -0.03418766
  vertex 0.010312756 0.2734125 -0.033075113
 endloop
endfacet
facet normal 0.9999961 0.0011516416 0.0025560055
 outer loop
  vertex 0.010312756 0.2734125 -0.033075113
  vertex 0.01031156 0.27256098 -0.03222361
  vertex 0.010311663 0.27144843 -0.03176278
 endloop
endfacet
facet normal 0.9999961 0.0011538798 0.0025556663
 outer loop
  vertex 0.010311663 0.27144843 -0.03176278
  vertex 0.010313053 0.2702442 -0.03176278
  vertex 0.010315514 0.26913166 -0.03222361
 endloop
endfacet
facet normal 0.9999961 0.0011516673 0.0025583068
 outer loop
  vertex 0.010315514 0.26913166 -0.03222361
  vertex 0.010318673 0.26828018 -0.033075113
  vertex 0.01032205 0.26781934 -0.03418766
 endloop
endfacet
facet normal 0.9999961 0.0011563547 0.0025583578
 outer loop
  vertex 0.01032205 0.26781934 -0.03418766
  vertex 0.010325131 0.26781934 -0.03539187
  vertex 0.010327444 0.26828018 -0.036504414
 endloop
endfacet
facet normal 0.9999961 0.0011516336 0.0025559862
 outer loop
  vertex 0.010327444 0.26828018 -0.036504414
  vertex 0.01032864 0.2691317 -0.037355922
  vertex 0.010328537 0.27024424 -0.03781675
 endloop
endfacet
facet normal 0.99999607 0.0011536342 0.0025569748
 outer loop
  vertex 0.010328537 0.27024424 -0.03781675
  vertex 0.010324686 0.27256098 -0.037355922
  vertex 0.01031815 0.27387333 -0.03539187
 endloop
endfacet
facet normal 0.99999607 0.0011527285 0.002557632
 outer loop
  vertex 0.01031815 0.27387333 -0.03539187
  vertex 0.010312756 0.2734125 -0.033075113
  vertex 0.010311663 0.27144843 -0.03176278
 endloop
endfacet
facet normal 0.99999607 0.0011536131 0.0025570071
 outer loop
  vertex 0.010311663 0.27144843 -0.03176278
  vertex 0.010315514 0.26913166 -0.03222361
  vertex 0.01032205 0.26781934 -0.03418766
 endloop
endfacet
facet normal 0.99999607 0.0011527373 0.0025576379
 outer loop
  vertex 0.01032205 0.26781934 -0.03418766
  vertex 0.010327444 0.26828018 -0.036504414
  vertex 0.010328537 0.27024424 -0.03781675
 endloop
endfacet
facet normal 0.99999607 0.001153051 0.0025578476
 outer loop
  vertex 0.010328537 0.27024424 -0.03781675
  vertex 0.01031815 0.27387333 -0.03539187
  vertex 0.010311663 0.27144843 -0.03176278
 endloop
endfacet
facet normal 0.99999607 0.001153051 0.0025578476
 outer loop
  vertex 0.010311663 0.27144843 -0.03176278
  vertex 0.01032205 0.26781934 -0.03418766
  vertex 0.010328537 0.27024424 -0.03781675
 endloop
endfacet
endsolid 
