solid 
facet normal 0.09802446 -0.0025454676 -0.9951807
 outer loop
  vertex 0.01029501 0.2507344 -0.03787198
  vertex 0.01029501 0.2707343 -0.037923135
  vertex 0.010596064 0.2707344 -0.03789348
 endloop
endfacet
facet normal 0.09801201 -0.0025452818 -0.995182
 outer loop
  vertex 0.01029501 0.2507344 -0.03787198
  vertex 0.010596064 0.2707344 -0.03789348
  vertex 0.010596064 0.25073445 -0.03784233
 endloop
endfacet
facet normal 0.2902804 -0.0024476517 -0.95693845
 outer loop
  vertex 0.010885548 0.2507347 -0.037754513
  vertex 0.010885548 0.2707346 -0.03780567
  vertex 0.011175033 0.27073485 -0.037717856
 endloop
endfacet
facet normal 0.2902802 -0.0024476484 -0.9569386
 outer loop
  vertex 0.010885548 0.2507347 -0.037754513
  vertex 0.011175033 0.27073485 -0.037717856
  vertex 0.011175033 0.2507349 -0.0376667
 endloop
endfacet
facet normal 0.4713926 -0.0022556072 -0.8819206
 outer loop
  vertex 0.011441822 0.25073528 -0.0375241
  vertex 0.011441822 0.2707352 -0.037575252
  vertex 0.011708613 0.27073556 -0.037432652
 endloop
endfacet
facet normal 0.47140223 -0.0022557585 -0.88191545
 outer loop
  vertex 0.011441822 0.25073528 -0.0375241
  vertex 0.011708613 0.27073556 -0.037432652
  vertex 0.011708613 0.25073564 -0.037381496
 endloop
endfacet
facet normal 0.63439125 -0.0019770528 -0.7730096
 outer loop
  vertex 0.0119424565 0.25073612 -0.037189588
  vertex 0.0119424565 0.27073607 -0.03724074
  vertex 0.0121762995 0.27073655 -0.03704883
 endloop
endfacet
facet normal 0.6343987 -0.001977184 -0.7730035
 outer loop
  vertex 0.0119424565 0.25073612 -0.037189588
  vertex 0.0121762995 0.27073655 -0.03704883
  vertex 0.0121762995 0.25073662 -0.036997676
 endloop
endfacet
facet normal 0.77301234 -0.0016225183 -0.63438886
 outer loop
  vertex 0.012368211 0.25073722 -0.036763836
  vertex 0.012368211 0.27073714 -0.036814988
  vertex 0.012560121 0.27073774 -0.036581144
 endloop
endfacet
facet normal 0.77301234 -0.0016225183 -0.63438886
 outer loop
  vertex 0.012368211 0.25073722 -0.036763836
  vertex 0.012560121 0.27073774 -0.036581144
  vertex 0.012560121 0.25073782 -0.03652999
 endloop
endfacet
facet normal 0.8819222 -0.0012057277 -0.47139353
 outer loop
  vertex 0.012702723 0.2507385 -0.0362632
  vertex 0.012702723 0.27073842 -0.036314357
  vertex 0.012845325 0.2707391 -0.036047567
 endloop
endfacet
facet normal 0.8819194 -0.001205653 -0.47139862
 outer loop
  vertex 0.012702723 0.2507385 -0.0362632
  vertex 0.012845325 0.2707391 -0.036047567
  vertex 0.012845325 0.2507392 -0.035996415
 endloop
endfacet
facet normal 0.9569394 -0.00074243837 -0.29028666
 outer loop
  vertex 0.01293314 0.2507399 -0.03570693
  vertex 0.01293314 0.27073985 -0.03575808
  vertex 0.013020954 0.2707406 -0.0354686
 endloop
endfacet
facet normal 0.9569405 -0.00074248377 -0.29028326
 outer loop
  vertex 0.01293314 0.2507399 -0.03570693
  vertex 0.013020954 0.2707406 -0.0354686
  vertex 0.013020954 0.25074065 -0.035417445
 endloop
endfacet
facet normal 0.9951847 -0.00025070622 -0.09801671
 outer loop
  vertex 0.013050605 0.25074142 -0.035116393
  vertex 0.013050605 0.27074137 -0.03516755
  vertex 0.013080256 0.27074212 -0.034866493
 endloop
endfacet
facet normal 0.99518466 -0.00025069137 -0.098017894
 outer loop
  vertex 0.013050605 0.25074142 -0.035116393
  vertex 0.013080256 0.27074212 -0.034866493
  vertex 0.013080256 0.2507422 -0.03481534
 endloop
endfacet
facet normal 0.99518484 0.00025068354 0.09801483
 outer loop
  vertex 0.013050605 0.25074297 -0.03451429
  vertex 0.013050605 0.2707429 -0.03456544
  vertex 0.013020954 0.27074367 -0.03426439
 endloop
endfacet
facet normal 0.99518484 0.00025068354 0.09801483
 outer loop
  vertex 0.013050605 0.25074297 -0.03451429
  vertex 0.013020954 0.27074367 -0.03426439
  vertex 0.013020954 0.25074375 -0.034213237
 endloop
endfacet
facet normal 0.9569395 0.00074243953 0.2902867
 outer loop
  vertex 0.01293314 0.2507445 -0.033923753
  vertex 0.01293314 0.2707444 -0.033974905
  vertex 0.012845325 0.27074516 -0.033685423
 endloop
endfacet
facet normal 0.9569405 0.00074248394 0.29028332
 outer loop
  vertex 0.01293314 0.2507445 -0.033923753
  vertex 0.012845325 0.27074516 -0.033685423
  vertex 0.012845325 0.2507452 -0.033634268
 endloop
endfacet
facet normal 0.8819221 0.0012056379 0.4713935
 outer loop
  vertex 0.012702723 0.2507459 -0.03336748
  vertex 0.012702723 0.27074584 -0.033418633
  vertex 0.012560121 0.27074653 -0.033151843
 endloop
endfacet
facet normal 0.8819221 0.0012056379 0.4713935
 outer loop
  vertex 0.012702723 0.2507459 -0.03336748
  vertex 0.012560121 0.27074653 -0.033151843
  vertex 0.012560121 0.25074658 -0.03310069
 endloop
endfacet
facet normal 0.77301085 0.0016226385 0.6343907
 outer loop
  vertex 0.012368211 0.25074717 -0.032866847
  vertex 0.012368211 0.27074713 -0.032918002
  vertex 0.0121762995 0.27074772 -0.03268416
 endloop
endfacet
facet normal 0.7730059 0.0016225359 0.6343968
 outer loop
  vertex 0.012368211 0.25074717 -0.032866847
  vertex 0.0121762995 0.27074772 -0.03268416
  vertex 0.0121762995 0.25074777 -0.032633007
 endloop
endfacet
facet normal 0.6343972 0.0019771873 0.7730048
 outer loop
  vertex 0.0119424565 0.25074828 -0.032441095
  vertex 0.0119424565 0.2707482 -0.03249225
  vertex 0.011708613 0.2707487 -0.03230034
 endloop
endfacet
facet normal 0.63438976 0.001977056 0.7730109
 outer loop
  vertex 0.0119424565 0.25074828 -0.032441095
  vertex 0.011708613 0.2707487 -0.03230034
  vertex 0.011708613 0.25074875 -0.032249186
 endloop
endfacet
facet normal 0.47140348 0.0022557531 0.8819148
 outer loop
  vertex 0.011441822 0.2507491 -0.032106582
  vertex 0.011441822 0.27074906 -0.032157738
  vertex 0.011175033 0.27074942 -0.032015134
 endloop
endfacet
facet normal 0.4713941 0.0022556053 0.8819198
 outer loop
  vertex 0.011441822 0.2507491 -0.032106582
  vertex 0.011175033 0.27074942 -0.032015134
  vertex 0.011175033 0.2507495 -0.03196398
 endloop
endfacet
facet normal 0.29028103 0.0024474696 0.9569383
 outer loop
  vertex 0.010885548 0.2507497 -0.03187617
  vertex 0.010885548 0.27074966 -0.03192732
  vertex 0.010596064 0.27074987 -0.03183951
 endloop
endfacet
facet normal 0.29029256 0.0024476424 0.9569348
 outer loop
  vertex 0.010885548 0.2507497 -0.03187617
  vertex 0.010596064 0.27074987 -0.03183951
  vertex 0.010596064 0.25074995 -0.031788353
 endloop
endfacet
facet normal 0.09801202 0.0025452818 0.995182
 outer loop
  vertex 0.01029501 0.25075 -0.031758703
  vertex 0.01029501 0.27074996 -0.031809855
  vertex 0.009993956 0.27075002 -0.031780206
 endloop
endfacet
facet normal 0.09802446 0.0025454676 0.9951807
 outer loop
  vertex 0.01029501 0.25075 -0.031758703
  vertex 0.009993956 0.27075002 -0.031780206
  vertex 0.009993956 0.2507501 -0.03172905
 endloop
endfacet
facet normal -0.098024465 0.0025452788 0.9951807
 outer loop
  vertex 0.009692903 0.25075 -0.031758703
  vertex 0.009692903 0.27074996 -0.031809855
  vertex 0.009391849 0.27074987 -0.03183951
 endloop
endfacet
facet normal -0.09801202 0.0025454706 0.9951819
 outer loop
  vertex 0.009692903 0.25075 -0.031758703
  vertex 0.009391849 0.27074987 -0.03183951
  vertex 0.009391849 0.25074995 -0.031788353
 endloop
endfacet
facet normal -0.2902804 0.0024474699 0.95693845
 outer loop
  vertex 0.009102365 0.2507497 -0.03187617
  vertex 0.009102365 0.27074966 -0.03192732
  vertex 0.00881288 0.27074942 -0.032015134
 endloop
endfacet
facet normal -0.29028016 0.0024474738 0.95693856
 outer loop
  vertex 0.009102365 0.2507497 -0.03187617
  vertex 0.00881288 0.27074942 -0.032015134
  vertex 0.00881288 0.2507495 -0.03196398
 endloop
endfacet
facet normal -0.4713926 0.002255768 0.8819206
 outer loop
  vertex 0.008546091 0.2507491 -0.032106582
  vertex 0.008546091 0.27074906 -0.032157738
  vertex 0.0082793 0.2707487 -0.03230034
 endloop
endfacet
facet normal -0.4714022 0.0022555909 0.88191545
 outer loop
  vertex 0.008546091 0.2507491 -0.032106582
  vertex 0.0082793 0.2707487 -0.03230034
  vertex 0.0082793 0.25074875 -0.032249186
 endloop
endfacet
facet normal -0.6343904 0.0019772013 0.7730103
 outer loop
  vertex 0.008045456 0.25074828 -0.032441095
  vertex 0.008045456 0.2707482 -0.03249225
  vertex 0.007811613 0.27074772 -0.03268416
 endloop
endfacet
facet normal -0.634398 0.0019770386 0.7730041
 outer loop
  vertex 0.008045456 0.25074828 -0.032441095
  vertex 0.007811613 0.27074772 -0.03268416
  vertex 0.007811613 0.25074777 -0.032633007
 endloop
endfacet
facet normal -0.7730074 0.0016226491 0.6343949
 outer loop
  vertex 0.0076197023 0.25074717 -0.032866847
  vertex 0.0076197023 0.27074713 -0.032918002
  vertex 0.007427792 0.27074653 -0.033151843
 endloop
endfacet
facet normal -0.77301234 0.0016225158 0.63438886
 outer loop
  vertex 0.0076197023 0.25074717 -0.032866847
  vertex 0.007427792 0.27074653 -0.033151843
  vertex 0.007427792 0.25074658 -0.03310069
 endloop
endfacet
facet normal -0.8819221 0.0012056379 0.4713935
 outer loop
  vertex 0.00728519 0.2507459 -0.03336748
  vertex 0.00728519 0.27074584 -0.033418633
  vertex 0.0071425876 0.27074516 -0.033685423
 endloop
endfacet
facet normal -0.8819194 0.0012057389 0.47139862
 outer loop
  vertex 0.00728519 0.2507459 -0.03336748
  vertex 0.0071425876 0.27074516 -0.033685423
  vertex 0.0071425876 0.2507452 -0.033634268
 endloop
endfacet
facet normal -0.95694053 0.0007424308 0.29028326
 outer loop
  vertex 0.007054773 0.2507445 -0.033923753
  vertex 0.007054773 0.2707444 -0.033974905
  vertex 0.0069669588 0.27074367 -0.03426439
 endloop
endfacet
facet normal -0.9569405 0.0007424308 0.29028326
 outer loop
  vertex 0.007054773 0.2507445 -0.033923753
  vertex 0.0069669588 0.27074367 -0.03426439
  vertex 0.0069669588 0.25074375 -0.034213237
 endloop
endfacet
facet normal -0.9951847 0.00025068744 0.09801636
 outer loop
  vertex 0.006937308 0.25074297 -0.03451429
  vertex 0.006937308 0.2707429 -0.03456544
  vertex 0.006907657 0.27074212 -0.034866493
 endloop
endfacet
facet normal -0.9951847 0.00025068744 0.09801636
 outer loop
  vertex 0.006937308 0.25074297 -0.03451429
  vertex 0.006907657 0.27074212 -0.034866493
  vertex 0.006907657 0.2507422 -0.03481534
 endloop
endfacet
facet normal -0.9951848 -0.00025070534 -0.098016374
 outer loop
  vertex 0.006937308 0.25074142 -0.035116393
  vertex 0.006937308 0.27074137 -0.03516755
  vertex 0.0069669588 0.2707406 -0.0354686
 endloop
endfacet
facet normal -0.9951848 -0.00025070534 -0.098016374
 outer loop
  vertex 0.006937308 0.25074142 -0.035116393
  vertex 0.0069669588 0.2707406 -0.0354686
  vertex 0.0069669588 0.25074065 -0.035417445
 endloop
endfacet
facet normal -0.9569405 -0.00074242963 -0.29028323
 outer loop
  vertex 0.007054773 0.2507399 -0.03570693
  vertex 0.007054773 0.27073985 -0.03575808
  vertex 0.0071425876 0.2707391 -0.036047567
 endloop
endfacet
facet normal -0.9569405 -0.000742431 -0.29028332
 outer loop
  vertex 0.007054773 0.2507399 -0.03570693
  vertex 0.0071425876 0.2707391 -0.036047567
  vertex 0.0071425876 0.2507392 -0.035996415
 endloop
endfacet
facet normal -0.8819194 -0.0012057407 -0.47139862
 outer loop
  vertex 0.00728519 0.2507385 -0.0362632
  vertex 0.00728519 0.27073842 -0.036314357
  vertex 0.007427792 0.27073774 -0.036581144
 endloop
endfacet
facet normal -0.8819222 -0.0012056399 -0.47139353
 outer loop
  vertex 0.00728519 0.2507385 -0.0362632
  vertex 0.007427792 0.27073774 -0.036581144
  vertex 0.007427792 0.25073782 -0.03652999
 endloop
endfacet
facet normal -0.7730116 -0.0016225205 -0.6343898
 outer loop
  vertex 0.0076197023 0.25073722 -0.036763836
  vertex 0.0076197023 0.27073714 -0.036814988
  vertex 0.007811613 0.27073655 -0.03704883
 endloop
endfacet
facet normal -0.7730066 -0.001622654 -0.63439584
 outer loop
  vertex 0.0076197023 0.25073722 -0.036763836
  vertex 0.007811613 0.27073655 -0.03704883
  vertex 0.007811613 0.25073662 -0.036997676
 endloop
endfacet
facet normal -0.63439727 -0.0019770402 -0.7730048
 outer loop
  vertex 0.008045456 0.25073612 -0.037189588
  vertex 0.008045456 0.27073607 -0.03724074
  vertex 0.0082793 0.27073556 -0.037432652
 endloop
endfacet
facet normal -0.6343897 -0.001977203 -0.7730109
 outer loop
  vertex 0.008045456 0.25073612 -0.037189588
  vertex 0.0082793 0.27073556 -0.037432652
  vertex 0.0082793 0.25073564 -0.037381496
 endloop
endfacet
facet normal -0.47140348 -0.0022555923 -0.88191473
 outer loop
  vertex 0.008546091 0.25073528 -0.0375241
  vertex 0.008546091 0.2707352 -0.037575252
  vertex 0.00881288 0.27073485 -0.037717856
 endloop
endfacet
facet normal -0.47139406 -0.0022557662 -0.8819198
 outer loop
  vertex 0.008546091 0.25073528 -0.0375241
  vertex 0.00881288 0.27073485 -0.037717856
  vertex 0.00881288 0.2507349 -0.0376667
 endloop
endfacet
facet normal -9.3259805e-05 0.9999978 -0.0020682535
 outer loop
  vertex 0.010885548 0.2707346 -0.03780567
  vertex 0.010596064 0.2707344 -0.03789348
  vertex 0.01029501 0.2707343 -0.037923135
 endloop
endfacet
facet normal 0 0.99999803 -0.002010299
 outer loop
  vertex 0.01029501 0.2707343 -0.037923135
  vertex 0.009993956 0.27073425 -0.037952784
  vertex 0.009692903 0.2707343 -0.037923135
 endloop
endfacet
facet normal 9.3259805e-05 0.9999978 -0.0020682535
 outer loop
  vertex 0.009692903 0.2707343 -0.037923135
  vertex 0.009391849 0.2707344 -0.03789348
  vertex 0.009102365 0.2707346 -0.03780567
 endloop
endfacet
facet normal 0.00014535744 0.9999975 -0.0022358904
 outer loop
  vertex 0.009102365 0.2707346 -0.03780567
  vertex 0.00881288 0.27073485 -0.037717856
  vertex 0.008546091 0.2707352 -0.037575252
 endloop
endfacet
facet normal -0.00020241177 0.9999958 -0.002886583
 outer loop
  vertex 0.008546091 0.2707352 -0.037575252
  vertex 0.0082793 0.27073556 -0.037432652
  vertex 0.008045456 0.27073607 -0.03724074
 endloop
endfacet
facet normal -0.00016135644 0.9999964 -0.0026813196
 outer loop
  vertex 0.008045456 0.27073607 -0.03724074
  vertex 0.007811613 0.27073655 -0.03704883
  vertex 0.0076197023 0.27073714 -0.036814988
 endloop
endfacet
facet normal -7.124344e-05 0.9999966 -0.0026073663
 outer loop
  vertex 0.0076197023 0.27073714 -0.036814988
  vertex 0.007427792 0.27073774 -0.036581144
  vertex 0.00728519 0.27073842 -0.036314357
 endloop
endfacet
facet normal -1.9377212e-05 0.9999967 -0.002579607
 outer loop
  vertex 0.00728519 0.27073842 -0.036314357
  vertex 0.0071425876 0.2707391 -0.036047567
  vertex 0.007054773 0.27073985 -0.03575808
 endloop
endfacet
facet normal -3.5445845e-07 0.9999967 -0.00257387
 outer loop
  vertex 0.007054773 0.27073985 -0.03575808
  vertex 0.0069669588 0.2707406 -0.0354686
  vertex 0.006937308 0.27074137 -0.03516755
 endloop
endfacet
facet normal -0.00050270895 0.9999967 -0.0025243224
 outer loop
  vertex 0.006937308 0.27074137 -0.03516755
  vertex 0.006907657 0.27074212 -0.034866493
  vertex 0.006937308 0.2707429 -0.03456544
 endloop
endfacet
facet normal 5.1614444e-07 0.9999967 -0.0025738857
 outer loop
  vertex 0.006937308 0.2707429 -0.03456544
  vertex 0.0069669588 0.27074367 -0.03426439
  vertex 0.007054773 0.2707444 -0.033974905
 endloop
endfacet
facet normal 1.9520821e-05 0.9999966 -0.0025796837
 outer loop
  vertex 0.007054773 0.2707444 -0.033974905
  vertex 0.0071425876 0.27074516 -0.033685423
  vertex 0.00728519 0.27074584 -0.033418633
 endloop
endfacet
facet normal 7.097107e-05 0.9999966 -0.0026071842
 outer loop
  vertex 0.00728519 0.27074584 -0.033418633
  vertex 0.007427792 0.27074653 -0.033151843
  vertex 0.0076197023 0.27074713 -0.032918002
 endloop
endfacet
facet normal 0.00016135644 0.9999964 -0.0026813196
 outer loop
  vertex 0.0076197023 0.27074713 -0.032918002
  vertex 0.007811613 0.27074772 -0.03268416
  vertex 0.008045456 0.2707482 -0.03249225
 endloop
endfacet
facet normal 0.00020241177 0.9999958 -0.002886583
 outer loop
  vertex 0.008045456 0.2707482 -0.03249225
  vertex 0.0082793 0.2707487 -0.03230034
  vertex 0.008546091 0.27074906 -0.032157738
 endloop
endfacet
facet normal -0.00014535744 0.9999975 -0.0022358904
 outer loop
  vertex 0.008546091 0.27074906 -0.032157738
  vertex 0.00881288 0.27074942 -0.032015134
  vertex 0.009102365 0.27074966 -0.03192732
 endloop
endfacet
facet normal -9.3259805e-05 0.9999978 -0.0020682535
 outer loop
  vertex 0.009102365 0.27074966 -0.03192732
  vertex 0.009391849 0.27074987 -0.03183951
  vertex 0.009692903 0.27074996 -0.031809855
 endloop
endfacet
facet normal 0 0.99999803 -0.002010299
 outer loop
  vertex 0.009692903 0.27074996 -0.031809855
  vertex 0.009993956 0.27075002 -0.031780206
  vertex 0.01029501 0.27074996 -0.031809855
 endloop
endfacet
facet normal 9.3259805e-05 0.9999978 -0.0020682535
 outer loop
  vertex 0.01029501 0.27074996 -0.031809855
  vertex 0.010596064 0.27074987 -0.03183951
  vertex 0.010885548 0.27074966 -0.03192732
 endloop
endfacet
facet normal 0.00014535744 0.9999975 -0.0022358904
 outer loop
  vertex 0.010885548 0.27074966 -0.03192732
  vertex 0.011175033 0.27074942 -0.032015134
  vertex 0.011441822 0.27074906 -0.032157738
 endloop
endfacet
facet normal -0.00020241177 0.9999958 -0.002886583
 outer loop
  vertex 0.011441822 0.27074906 -0.032157738
  vertex 0.011708613 0.2707487 -0.03230034
  vertex 0.0119424565 0.2707482 -0.03249225
 endloop
endfacet
facet normal -0.00016135827 0.9999964 -0.002681322
 outer loop
  vertex 0.0119424565 0.2707482 -0.03249225
  vertex 0.0121762995 0.27074772 -0.03268416
  vertex 0.012368211 0.27074713 -0.032918002
 endloop
endfacet
facet normal -7.097107e-05 0.9999966 -0.0026071842
 outer loop
  vertex 0.012368211 0.27074713 -0.032918002
  vertex 0.012560121 0.27074653 -0.033151843
  vertex 0.012702723 0.27074584 -0.033418633
 endloop
endfacet
facet normal -1.9520821e-05 0.9999966 -0.0025796837
 outer loop
  vertex 0.012702723 0.27074584 -0.033418633
  vertex 0.012845325 0.27074516 -0.033685423
  vertex 0.01293314 0.2707444 -0.033974905
 endloop
endfacet
facet normal -5.161406e-07 0.9999967 -0.0025738857
 outer loop
  vertex 0.01293314 0.2707444 -0.033974905
  vertex 0.013020954 0.27074367 -0.03426439
  vertex 0.013050605 0.2707429 -0.03456544
 endloop
endfacet
facet normal 0.00050270103 0.9999967 -0.0025243224
 outer loop
  vertex 0.013050605 0.2707429 -0.03456544
  vertex 0.013080256 0.27074212 -0.034866493
  vertex 0.013050605 0.27074137 -0.03516755
 endloop
endfacet
facet normal 3.5445578e-07 0.9999967 -0.0025738697
 outer loop
  vertex 0.013050605 0.27074137 -0.03516755
  vertex 0.013020954 0.2707406 -0.0354686
  vertex 0.01293314 0.27073985 -0.03575808
 endloop
endfacet
facet normal 1.9377212e-05 0.9999967 -0.002579607
 outer loop
  vertex 0.01293314 0.27073985 -0.03575808
  vertex 0.012845325 0.2707391 -0.036047567
  vertex 0.012702723 0.27073842 -0.036314357
 endloop
endfacet
facet normal 7.124344e-05 0.9999966 -0.0026073663
 outer loop
  vertex 0.012702723 0.27073842 -0.036314357
  vertex 0.012560121 0.27073774 -0.036581144
  vertex 0.012368211 0.27073714 -0.036814988
 endloop
endfacet
facet normal 0.00016135827 0.9999964 -0.002681322
 outer loop
  vertex 0.012368211 0.27073714 -0.036814988
  vertex 0.0121762995 0.27073655 -0.03704883
  vertex 0.0119424565 0.27073607 -0.03724074
 endloop
endfacet
facet normal 0.00020241177 0.9999958 -0.002886583
 outer loop
  vertex 0.0119424565 0.27073607 -0.03724074
  vertex 0.011708613 0.27073556 -0.037432652
  vertex 0.011441822 0.2707352 -0.037575252
 endloop
endfacet
facet normal -0.00014535744 0.9999975 -0.0022358904
 outer loop
  vertex 0.011441822 0.2707352 -0.037575252
  vertex 0.011175033 0.27073485 -0.037717856
  vertex 0.010885548 0.2707346 -0.03780567
 endloop
endfacet
facet normal 0 0.9999968 -0.002537097
 outer loop
  vertex 0.010885548 0.2707346 -0.03780567
  vertex 0.01029501 0.2707343 -0.037923135
  vertex 0.009692903 0.2707343 -0.037923135
 endloop
endfacet
facet normal -1.9025203e-05 0.9999965 -0.0026327418
 outer loop
  vertex 0.009692903 0.2707343 -0.037923135
  vertex 0.009102365 0.2707346 -0.03780567
  vertex 0.008546091 0.2707352 -0.037575252
 endloop
endfacet
facet normal 0.00012825287 0.9999971 -0.002391711
 outer loop
  vertex 0.008546091 0.2707352 -0.037575252
  vertex 0.008045456 0.27073607 -0.03724074
  vertex 0.0076197023 0.27073714 -0.036814988
 endloop
endfacet
facet normal -4.6532685e-05 0.99999666 -0.0025908551
 outer loop
  vertex 0.0076197023 0.27073714 -0.036814988
  vertex 0.00728519 0.27073842 -0.036314357
  vertex 0.007054773 0.27073985 -0.03575808
 endloop
endfacet
facet normal 0.00024873466 0.9999968 -0.0025243226
 outer loop
  vertex 0.007054773 0.27073985 -0.03575808
  vertex 0.006937308 0.27074137 -0.03516755
  vertex 0.006937308 0.2707429 -0.03456544
 endloop
endfacet
facet normal 1.0148292e-05 0.99999666 -0.0025758015
 outer loop
  vertex 0.006937308 0.2707429 -0.03456544
  vertex 0.007054773 0.2707444 -0.033974905
  vertex 0.00728519 0.27074584 -0.033418633
 endloop
endfacet
facet normal 0.00011994262 0.9999966 -0.0026399062
 outer loop
  vertex 0.00728519 0.27074584 -0.033418633
  vertex 0.0076197023 0.27074713 -0.032918002
  vertex 0.008045456 0.2707482 -0.03249225
 endloop
endfacet
facet normal -3.4408758e-06 0.99999666 -0.0025785048
 outer loop
  vertex 0.008045456 0.2707482 -0.03249225
  vertex 0.008546091 0.27074906 -0.032157738
  vertex 0.009102365 0.27074966 -0.03192732
 endloop
endfacet
facet normal 0 0.9999968 -0.002537097
 outer loop
  vertex 0.009102365 0.27074966 -0.03192732
  vertex 0.009692903 0.27074996 -0.031809855
  vertex 0.01029501 0.27074996 -0.031809855
 endloop
endfacet
facet normal -1.9025203e-05 0.9999965 -0.0026327418
 outer loop
  vertex 0.01029501 0.27074996 -0.031809855
  vertex 0.010885548 0.27074966 -0.03192732
  vertex 0.011441822 0.27074906 -0.032157738
 endloop
endfacet
facet normal 0.00012825287 0.9999971 -0.002391711
 outer loop
  vertex 0.011441822 0.27074906 -0.032157738
  vertex 0.0119424565 0.2707482 -0.03249225
  vertex 0.012368211 0.27074713 -0.032918002
 endloop
endfacet
facet normal -4.6601006e-05 0.99999666 -0.002590901
 outer loop
  vertex 0.012368211 0.27074713 -0.032918002
  vertex 0.012702723 0.27074584 -0.033418633
  vertex 0.01293314 0.2707444 -0.033974905
 endloop
endfacet
facet normal 0.0002486556 0.9999968 -0.0025243226
 outer loop
  vertex 0.01293314 0.2707444 -0.033974905
  vertex 0.013050605 0.2707429 -0.03456544
  vertex 0.013050605 0.27074137 -0.03516755
 endloop
endfacet
facet normal 1.03038465e-05 0.99999666 -0.0025758487
 outer loop
  vertex 0.013050605 0.27074137 -0.03516755
  vertex 0.01293314 0.27073985 -0.03575808
  vertex 0.012702723 0.27073842 -0.036314357
 endloop
endfacet
facet normal 0.00011994262 0.9999966 -0.0026399062
 outer loop
  vertex 0.012702723 0.27073842 -0.036314357
  vertex 0.012368211 0.27073714 -0.036814988
  vertex 0.0119424565 0.27073607 -0.03724074
 endloop
endfacet
facet normal -3.4408758e-06 0.99999666 -0.0025785048
 outer loop
  vertex 0.0119424565 0.27073607 -0.03724074
  vertex 0.011441822 0.2707352 -0.037575252
  vertex 0.010885548 0.2707346 -0.03780567
 endloop
endfacet
facet normal 2.4482488e-06 0.9999968 -0.0025619545
 outer loop
  vertex 0.010885548 0.2707346 -0.03780567
  vertex 0.009692903 0.2707343 -0.037923135
  vertex 0.008546091 0.2707352 -0.037575252
 endloop
endfacet
facet normal -2.6309875e-05 0.99999666 -0.002580046
 outer loop
  vertex 0.008546091 0.2707352 -0.037575252
  vertex 0.0076197023 0.27073714 -0.036814988
  vertex 0.007054773 0.27073985 -0.03575808
 endloop
endfacet
facet normal -5.9482274e-05 0.99999666 -0.002554679
 outer loop
  vertex 0.007054773 0.27073985 -0.03575808
  vertex 0.006937308 0.2707429 -0.03456544
  vertex 0.00728519 0.27074584 -0.033418633
 endloop
endfacet
facet normal -4.1393057e-05 0.9999969 -0.0025075017
 outer loop
  vertex 0.00728519 0.27074584 -0.033418633
  vertex 0.008045456 0.2707482 -0.03249225
  vertex 0.009102365 0.27074966 -0.03192732
 endloop
endfacet
facet normal 2.4482488e-06 0.9999968 -0.0025619545
 outer loop
  vertex 0.009102365 0.27074966 -0.03192732
  vertex 0.01029501 0.27074996 -0.031809855
  vertex 0.011441822 0.27074906 -0.032157738
 endloop
endfacet
facet normal -2.6323378e-05 0.99999666 -0.0025800625
 outer loop
  vertex 0.011441822 0.27074906 -0.032157738
  vertex 0.012368211 0.27074713 -0.032918002
  vertex 0.01293314 0.2707444 -0.033974905
 endloop
endfacet
facet normal -5.9502454e-05 0.99999666 -0.0025546732
 outer loop
  vertex 0.01293314 0.2707444 -0.033974905
  vertex 0.013050605 0.27074137 -0.03516755
  vertex 0.012702723 0.27073842 -0.036314357
 endloop
endfacet
facet normal -4.1393057e-05 0.9999969 -0.0025075017
 outer loop
  vertex 0.012702723 0.27073842 -0.036314357
  vertex 0.0119424565 0.27073607 -0.03724074
  vertex 0.010885548 0.2707346 -0.03780567
 endloop
endfacet
facet normal 3.0386097e-06 0.9999967 -0.0025559603
 outer loop
  vertex 0.010885548 0.2707346 -0.03780567
  vertex 0.008546091 0.2707352 -0.037575252
  vertex 0.007054773 0.27073985 -0.03575808
 endloop
endfacet
facet normal 2.3204689e-06 0.9999967 -0.0025607664
 outer loop
  vertex 0.007054773 0.27073985 -0.03575808
  vertex 0.00728519 0.27074584 -0.033418633
  vertex 0.009102365 0.27074966 -0.03192732
 endloop
endfacet
facet normal 3.0380484e-06 0.9999967 -0.002555966
 outer loop
  vertex 0.009102365 0.27074966 -0.03192732
  vertex 0.011441822 0.27074906 -0.032157738
  vertex 0.01293314 0.2707444 -0.033974905
 endloop
endfacet
facet normal 2.3168282e-06 0.9999967 -0.002560762
 outer loop
  vertex 0.01293314 0.2707444 -0.033974905
  vertex 0.012702723 0.27073842 -0.036314357
  vertex 0.010885548 0.2707346 -0.03780567
 endloop
endfacet
facet normal 8.809541e-07 0.9999967 -0.002559997
 outer loop
  vertex 0.010885548 0.2707346 -0.03780567
  vertex 0.007054773 0.27073985 -0.03575808
  vertex 0.009102365 0.27074966 -0.03192732
 endloop
endfacet
facet normal 8.838725e-07 0.9999967 -0.0025599962
 outer loop
  vertex 0.009102365 0.27074966 -0.03192732
  vertex 0.01293314 0.2707444 -0.033974905
  vertex 0.010885548 0.2707346 -0.03780567
 endloop
endfacet
facet normal -0.29028103 -0.0024476512 -0.95693827
 outer loop
  vertex 0.009102365 0.2507347 -0.037754513
  vertex 0.009102365 0.2707346 -0.03780567
  vertex 0.009391849 0.2707344 -0.03789348
 endloop
endfacet
facet normal -0.29029256 -0.0024474608 -0.95693487
 outer loop
  vertex 0.009102365 0.2507347 -0.037754513
  vertex 0.009391849 0.2707344 -0.03789348
  vertex 0.009391849 0.25073445 -0.03784233
 endloop
endfacet
facet normal -0.09801201 -0.0025454706 -0.9951819
 outer loop
  vertex 0.009692903 0.2507344 -0.03787198
  vertex 0.009692903 0.2707343 -0.037923135
  vertex 0.009993956 0.27073425 -0.037952784
 endloop
endfacet
facet normal -0.098024465 -0.0025452788 -0.9951807
 outer loop
  vertex 0.009692903 0.2507344 -0.03787198
  vertex 0.009993956 0.27073425 -0.037952784
  vertex 0.009993956 0.2507343 -0.037901632
 endloop
endfacet
facet normal 0 -0.99999684 0.0025128706
 outer loop
  vertex 0.009692903 0.23073444 -0.037820827
  vertex 0.009993956 0.23073436 -0.037850477
  vertex 0.01029501 0.23073444 -0.037820827
 endloop
endfacet
facet normal 6.8508234e-05 -0.9999973 0.002319541
 outer loop
  vertex 0.01029501 0.23073444 -0.037820827
  vertex 0.010596064 0.23073453 -0.037791174
  vertex 0.010885548 0.23073475 -0.03770336
 endloop
endfacet
facet normal 2.6340427e-05 -0.999997 0.002458551
 outer loop
  vertex 0.010885548 0.23073475 -0.03770336
  vertex 0.011175033 0.23073497 -0.03761555
  vertex 0.011441822 0.23073533 -0.037472945
 endloop
endfacet
facet normal 7.677428e-05 -0.9999969 0.0024687536
 outer loop
  vertex 0.011441822 0.23073533 -0.037472945
  vertex 0.011708613 0.2307357 -0.037330344
  vertex 0.0119424565 0.2307362 -0.037138432
 endloop
endfacet
facet normal -0.00032153173 -0.9999958 0.002876494
 outer loop
  vertex 0.0119424565 0.2307362 -0.037138432
  vertex 0.0121762995 0.23073667 -0.036946524
  vertex 0.012368211 0.23073728 -0.03671268
 endloop
endfacet
facet normal -7.097107e-05 -0.9999966 0.0026071842
 outer loop
  vertex 0.012368211 0.23073728 -0.03671268
  vertex 0.012560121 0.23073788 -0.03647884
  vertex 0.012702723 0.23073857 -0.03621205
 endloop
endfacet
facet normal -0.00026114302 -0.9999964 0.0026529797
 outer loop
  vertex 0.012702723 0.23073857 -0.03621205
  vertex 0.012845325 0.23073924 -0.03594526
  vertex 0.01293314 0.23073998 -0.035655778
 endloop
endfacet
facet normal -5.161406e-07 -0.9999967 0.0025738857
 outer loop
  vertex 0.01293314 0.23073998 -0.035655778
  vertex 0.013020954 0.23074073 -0.035366293
  vertex 0.013050605 0.2307415 -0.03506524
 endloop
endfacet
facet normal -0.0002511111 -0.9999967 0.0025490706
 outer loop
  vertex 0.013050605 0.2307415 -0.03506524
  vertex 0.013080256 0.23074226 -0.03476419
  vertex 0.013050605 0.23074304 -0.034463134
 endloop
endfacet
facet normal -0.00024125693 -0.99999684 0.002500577
 outer loop
  vertex 0.013050605 0.23074304 -0.034463134
  vertex 0.013020954 0.2307438 -0.03416208
  vertex 0.01293314 0.23074454 -0.0338726
 endloop
endfacet
facet normal 1.9377212e-05 -0.9999967 0.002579607
 outer loop
  vertex 0.01293314 0.23074454 -0.0338726
  vertex 0.012845325 0.23074529 -0.033583116
  vertex 0.012702723 0.23074597 -0.033316325
 endloop
endfacet
facet normal -0.0003466248 -0.9999972 0.0023281558
 outer loop
  vertex 0.012702723 0.23074597 -0.033316325
  vertex 0.012560121 0.23074664 -0.03304954
  vertex 0.012368211 0.23074725 -0.032815695
 endloop
endfacet
facet normal -3.3816348e-05 -0.99999684 0.002521147
 outer loop
  vertex 0.012368211 0.23074725 -0.032815695
  vertex 0.0121762995 0.23074785 -0.03258185
  vertex 0.0119424565 0.23074834 -0.032389943
 endloop
endfacet
facet normal 8.3396735e-05 -0.9999964 0.00266392
 outer loop
  vertex 0.0119424565 0.23074834 -0.032389943
  vertex 0.011708613 0.23074883 -0.03219803
  vertex 0.011441822 0.23074919 -0.03205543
 endloop
endfacet
facet normal -0.00014535744 -0.9999975 0.0022358904
 outer loop
  vertex 0.011441822 0.23074919 -0.03205543
  vertex 0.011175033 0.23074955 -0.031912826
  vertex 0.010885548 0.23074979 -0.031825013
 endloop
endfacet
facet normal 4.7886083e-06 -0.9999967 0.0025611708
 outer loop
  vertex 0.010885548 0.23074979 -0.031825013
  vertex 0.010596064 0.23075001 -0.0317372
  vertex 0.01029501 0.23075008 -0.031707548
 endloop
endfacet
facet normal 0 -0.99999684 0.0025128706
 outer loop
  vertex 0.01029501 0.23075008 -0.031707548
  vertex 0.009993956 0.23075016 -0.031677898
  vertex 0.009692903 0.23075008 -0.031707548
 endloop
endfacet
facet normal -4.7886083e-06 -0.9999967 0.0025611708
 outer loop
  vertex 0.009692903 0.23075008 -0.031707548
  vertex 0.009391849 0.23075001 -0.0317372
  vertex 0.009102365 0.23074979 -0.031825013
 endloop
endfacet
facet normal 0.00014535744 -0.9999975 0.0022358904
 outer loop
  vertex 0.009102365 0.23074979 -0.031825013
  vertex 0.00881288 0.23074955 -0.031912826
  vertex 0.008546091 0.23074919 -0.03205543
 endloop
endfacet
facet normal -8.3396735e-05 -0.9999964 0.00266392
 outer loop
  vertex 0.008546091 0.23074919 -0.03205543
  vertex 0.0082793 0.23074883 -0.03219803
  vertex 0.008045456 0.23074834 -0.032389943
 endloop
endfacet
facet normal 3.3815966e-05 -0.99999684 0.0025211468
 outer loop
  vertex 0.008045456 0.23074834 -0.032389943
  vertex 0.007811613 0.23074785 -0.03258185
  vertex 0.0076197023 0.23074725 -0.032815695
 endloop
endfacet
facet normal 0.0003466248 -0.9999972 0.0023281558
 outer loop
  vertex 0.0076197023 0.23074725 -0.032815695
  vertex 0.007427792 0.23074664 -0.03304954
  vertex 0.00728519 0.23074597 -0.033316325
 endloop
endfacet
facet normal -1.9377212e-05 -0.9999967 0.002579607
 outer loop
  vertex 0.00728519 0.23074597 -0.033316325
  vertex 0.0071425876 0.23074529 -0.033583116
  vertex 0.007054773 0.23074454 -0.0338726
 endloop
endfacet
facet normal 0.00024125875 -0.99999684 0.0025005764
 outer loop
  vertex 0.007054773 0.23074454 -0.0338726
  vertex 0.0069669588 0.2307438 -0.03416208
  vertex 0.006937308 0.23074304 -0.034463134
 endloop
endfacet
facet normal 0.00025111507 -0.9999967 0.0025490706
 outer loop
  vertex 0.006937308 0.23074304 -0.034463134
  vertex 0.006907657 0.23074226 -0.03476419
  vertex 0.006937308 0.2307415 -0.03506524
 endloop
endfacet
facet normal 5.1614444e-07 -0.9999967 0.0025738857
 outer loop
  vertex 0.006937308 0.2307415 -0.03506524
  vertex 0.0069669588 0.23074073 -0.035366293
  vertex 0.007054773 0.23073998 -0.035655778
 endloop
endfacet
facet normal 0.00026114302 -0.9999964 0.0026529797
 outer loop
  vertex 0.007054773 0.23073998 -0.035655778
  vertex 0.0071425876 0.23073924 -0.03594526
  vertex 0.00728519 0.23073857 -0.03621205
 endloop
endfacet
facet normal 7.097107e-05 -0.9999966 0.0026071842
 outer loop
  vertex 0.00728519 0.23073857 -0.03621205
  vertex 0.007427792 0.23073788 -0.03647884
  vertex 0.0076197023 0.23073728 -0.03671268
 endloop
endfacet
facet normal 0.00032152806 -0.9999958 0.0028764901
 outer loop
  vertex 0.0076197023 0.23073728 -0.03671268
  vertex 0.007811613 0.23073667 -0.036946524
  vertex 0.008045456 0.2307362 -0.037138432
 endloop
endfacet
facet normal -7.677428e-05 -0.9999969 0.0024687536
 outer loop
  vertex 0.008045456 0.2307362 -0.037138432
  vertex 0.0082793 0.2307357 -0.037330344
  vertex 0.008546091 0.23073533 -0.037472945
 endloop
endfacet
facet normal -2.6340427e-05 -0.999997 0.002458551
 outer loop
  vertex 0.008546091 0.23073533 -0.037472945
  vertex 0.00881288 0.23073497 -0.03761555
  vertex 0.009102365 0.23073475 -0.03770336
 endloop
endfacet
facet normal -6.8508234e-05 -0.9999973 0.002319541
 outer loop
  vertex 0.009102365 0.23073475 -0.03770336
  vertex 0.009391849 0.23073453 -0.037791174
  vertex 0.009692903 0.23073444 -0.037820827
 endloop
endfacet
facet normal 0 -0.9999965 0.0026639511
 outer loop
  vertex 0.009692903 0.23073444 -0.037820827
  vertex 0.01029501 0.23073444 -0.037820827
  vertex 0.010885548 0.23073475 -0.03770336
 endloop
endfacet
facet normal -6.703662e-05 -0.99999636 0.0026839813
 outer loop
  vertex 0.010885548 0.23073475 -0.03770336
  vertex 0.011441822 0.23073533 -0.037472945
  vertex 0.0119424565 0.2307362 -0.037138432
 endloop
endfacet
facet normal -1.4465983e-05 -0.99999666 0.002569429
 outer loop
  vertex 0.0119424565 0.2307362 -0.037138432
  vertex 0.012368211 0.23073728 -0.03671268
  vertex 0.012702723 0.23073857 -0.03621205
 endloop
endfacet
facet normal -0.00013456523 -0.9999966 0.0026005493
 outer loop
  vertex 0.012702723 0.23073857 -0.03621205
  vertex 0.01293314 0.23073998 -0.035655778
  vertex 0.013050605 0.2307415 -0.03506524
 endloop
endfacet
facet normal 2.537478e-06 -0.99999666 0.0025490706
 outer loop
  vertex 0.013050605 0.2307415 -0.03506524
  vertex 0.013050605 0.23074304 -0.034463134
  vertex 0.01293314 0.23074454 -0.0338726
 endloop
endfacet
facet normal 4.6532685e-05 -0.99999666 0.0025908551
 outer loop
  vertex 0.01293314 0.23074454 -0.0338726
  vertex 0.012702723 0.23074597 -0.033316325
  vertex 0.012368211 0.23074725 -0.032815695
 endloop
endfacet
facet normal 3.1925458e-05 -0.99999666 0.0025868886
 outer loop
  vertex 0.012368211 0.23074725 -0.032815695
  vertex 0.0119424565 0.23074834 -0.032389943
  vertex 0.011441822 0.23074919 -0.03205543
 endloop
endfacet
facet normal 1.9025203e-05 -0.9999965 0.0026327418
 outer loop
  vertex 0.011441822 0.23074919 -0.03205543
  vertex 0.010885548 0.23074979 -0.031825013
  vertex 0.01029501 0.23075008 -0.031707548
 endloop
endfacet
facet normal 0 -0.9999968 0.002537097
 outer loop
  vertex 0.01029501 0.23075008 -0.031707548
  vertex 0.009692903 0.23075008 -0.031707548
  vertex 0.009102365 0.23074979 -0.031825013
 endloop
endfacet
facet normal 5.1986754e-05 -0.99999696 0.0024613054
 outer loop
  vertex 0.009102365 0.23074979 -0.031825013
  vertex 0.008546091 0.23074919 -0.03205543
  vertex 0.008045456 0.23074834 -0.032389943
 endloop
endfacet
facet normal -1.4465983e-05 -0.99999666 0.002569429
 outer loop
  vertex 0.008045456 0.23074834 -0.032389943
  vertex 0.0076197023 0.23074725 -0.032815695
  vertex 0.00728519 0.23074597 -0.033316325
 endloop
endfacet
facet normal 0.000106897314 -0.9999968 0.0025273024
 outer loop
  vertex 0.00728519 0.23074597 -0.033316325
  vertex 0.007054773 0.23074454 -0.0338726
  vertex 0.006937308 0.23074304 -0.034463134
 endloop
endfacet
facet normal -0.00012423705 -0.9999968 0.0025490706
 outer loop
  vertex 0.006937308 0.23074304 -0.034463134
  vertex 0.006937308 0.2307415 -0.03506524
  vertex 0.007054773 0.23073998 -0.035655778
 endloop
endfacet
facet normal -5.887563e-05 -0.9999968 0.0025204236
 outer loop
  vertex 0.007054773 0.23073998 -0.035655778
  vertex 0.00728519 0.23073857 -0.03621205
  vertex 0.0076197023 0.23073728 -0.03671268
 endloop
endfacet
facet normal -5.7775233e-05 -0.9999969 0.002497188
 outer loop
  vertex 0.0076197023 0.23073728 -0.03671268
  vertex 0.008045456 0.2307362 -0.037138432
  vertex 0.008546091 0.23073533 -0.037472945
 endloop
endfacet
facet normal -5.4268952e-05 -0.9999971 0.0023911258
 outer loop
  vertex 0.008546091 0.23073533 -0.037472945
  vertex 0.009102365 0.23073475 -0.03770336
  vertex 0.009692903 0.23073444 -0.037820827
 endloop
endfacet
facet normal 1.2724383e-05 -0.9999968 0.0025347595
 outer loop
  vertex 0.009692903 0.23073444 -0.037820827
  vertex 0.010885548 0.23073475 -0.03770336
  vertex 0.0119424565 0.2307362 -0.037138432
 endloop
endfacet
facet normal -4.199619e-06 -0.99999666 0.0025610037
 outer loop
  vertex 0.0119424565 0.2307362 -0.037138432
  vertex 0.012702723 0.23073857 -0.03621205
  vertex 0.013050605 0.2307415 -0.03506524
 endloop
endfacet
facet normal -3.9360915e-05 -0.9999968 0.0025449444
 outer loop
  vertex 0.013050605 0.2307415 -0.03506524
  vertex 0.01293314 0.23074454 -0.0338726
  vertex 0.012368211 0.23074725 -0.032815695
 endloop
endfacet
facet normal -1.060514e-05 -0.9999968 0.0025350645
 outer loop
  vertex 0.012368211 0.23074725 -0.032815695
  vertex 0.011441822 0.23074919 -0.03205543
  vertex 0.01029501 0.23075008 -0.031707548
 endloop
endfacet
facet normal -2.592084e-06 -0.99999666 0.0025634144
 outer loop
  vertex 0.01029501 0.23075008 -0.031707548
  vertex 0.009102365 0.23074979 -0.031825013
  vertex 0.008045456 0.23074834 -0.032389943
 endloop
endfacet
facet normal -4.199622e-06 -0.99999666 0.0025610034
 outer loop
  vertex 0.008045456 0.23074834 -0.032389943
  vertex 0.00728519 0.23074597 -0.033316325
  vertex 0.006937308 0.23074304 -0.034463134
 endloop
endfacet
facet normal 2.1590304e-05 -0.99999666 0.0025634335
 outer loop
  vertex 0.006937308 0.23074304 -0.034463134
  vertex 0.007054773 0.23073998 -0.035655778
  vertex 0.0076197023 0.23073728 -0.03671268
 endloop
endfacet
facet normal -1.1732313e-06 -0.99999666 0.0025661574
 outer loop
  vertex 0.0076197023 0.23073728 -0.03671268
  vertex 0.008546091 0.23073533 -0.037472945
  vertex 0.009692903 0.23073444 -0.037820827
 endloop
endfacet
facet normal 6.497844e-06 -0.9999967 0.0025552858
 outer loop
  vertex 0.009692903 0.23073444 -0.037820827
  vertex 0.0119424565 0.2307362 -0.037138432
  vertex 0.013050605 0.2307415 -0.03506524
 endloop
endfacet
facet normal 1.2621762e-06 -0.9999967 0.002557267
 outer loop
  vertex 0.013050605 0.2307415 -0.03506524
  vertex 0.012368211 0.23074725 -0.032815695
  vertex 0.01029501 0.23075008 -0.031707548
 endloop
endfacet
facet normal -1.4080462e-06 -0.9999967 0.0025595112
 outer loop
  vertex 0.01029501 0.23075008 -0.031707548
  vertex 0.008045456 0.23074834 -0.032389943
  vertex 0.006937308 0.23074304 -0.034463134
 endloop
endfacet
facet normal -7.316213e-06 -0.9999967 0.0025546646
 outer loop
  vertex 0.006937308 0.23074304 -0.034463134
  vertex 0.0076197023 0.23073728 -0.03671268
  vertex 0.009692903 0.23073444 -0.037820827
 endloop
endfacet
facet normal 3.4191207e-06 -0.9999967 0.002559037
 outer loop
  vertex 0.009692903 0.23073444 -0.037820827
  vertex 0.013050605 0.2307415 -0.03506524
  vertex 0.01029501 0.23075008 -0.031707548
 endloop
endfacet
facet normal -1.4091303e-06 -0.9999967 0.0025595126
 outer loop
  vertex 0.01029501 0.23075008 -0.031707548
  vertex 0.006937308 0.23074304 -0.034463134
  vertex 0.009692903 0.23073444 -0.037820827
 endloop
endfacet
facet normal -0.098024465 -0.0025452788 -0.9951807
 outer loop
  vertex 0.009692903 0.23073444 -0.037820827
  vertex 0.009692903 0.2507344 -0.03787198
  vertex 0.009993956 0.2507343 -0.037901632
 endloop
endfacet
facet normal -0.098012134 -0.0025454687 -0.9951819
 outer loop
  vertex 0.009692903 0.23073444 -0.037820827
  vertex 0.009993956 0.2507343 -0.037901632
  vertex 0.009993956 0.23073436 -0.037850477
 endloop
endfacet
facet normal -0.09801201 -0.0025454706 -0.9951819
 outer loop
  vertex 0.009391849 0.23073453 -0.037791174
  vertex 0.009391849 0.25073445 -0.03784233
  vertex 0.009692903 0.2507344 -0.03787198
 endloop
endfacet
facet normal -0.098024465 -0.0025452788 -0.9951807
 outer loop
  vertex 0.009391849 0.23073453 -0.037791174
  vertex 0.009692903 0.2507344 -0.03787198
  vertex 0.009692903 0.23073444 -0.037820827
 endloop
endfacet
facet normal -0.098024465 -0.0025452788 -0.9951807
 outer loop
  vertex 0.009391849 0.25073445 -0.03784233
  vertex 0.009391849 0.2707344 -0.03789348
  vertex 0.009692903 0.2707343 -0.037923135
 endloop
endfacet
facet normal -0.09801202 -0.0025454706 -0.9951819
 outer loop
  vertex 0.009391849 0.25073445 -0.03784233
  vertex 0.009692903 0.2707343 -0.037923135
  vertex 0.009692903 0.2507344 -0.03787198
 endloop
endfacet
facet normal -0.29029256 -0.0024474626 -0.95693487
 outer loop
  vertex 0.009102365 0.23073475 -0.03770336
  vertex 0.009102365 0.2507347 -0.037754513
  vertex 0.009391849 0.25073445 -0.03784233
 endloop
endfacet
facet normal -0.29028115 -0.0024476512 -0.95693827
 outer loop
  vertex 0.009102365 0.23073475 -0.03770336
  vertex 0.009391849 0.25073445 -0.03784233
  vertex 0.009391849 0.23073453 -0.037791174
 endloop
endfacet
facet normal -0.29028016 -0.0024474738 -0.95693856
 outer loop
  vertex 0.00881288 0.23073497 -0.03761555
  vertex 0.00881288 0.2507349 -0.0376667
  vertex 0.009102365 0.2507347 -0.037754513
 endloop
endfacet
facet normal -0.2902803 -0.0024474722 -0.95693856
 outer loop
  vertex 0.00881288 0.23073497 -0.03761555
  vertex 0.009102365 0.2507347 -0.037754513
  vertex 0.009102365 0.23073475 -0.03770336
 endloop
endfacet
facet normal -0.2902804 -0.0024476482 -0.95693845
 outer loop
  vertex 0.00881288 0.2507349 -0.0376667
  vertex 0.00881288 0.27073485 -0.037717856
  vertex 0.009102365 0.2707346 -0.03780567
 endloop
endfacet
facet normal -0.2902802 -0.002447652 -0.95693856
 outer loop
  vertex 0.00881288 0.2507349 -0.0376667
  vertex 0.009102365 0.2707346 -0.03780567
  vertex 0.009102365 0.2507347 -0.037754513
 endloop
endfacet
facet normal -0.4713941 -0.0022557662 -0.8819198
 outer loop
  vertex 0.008546091 0.23073533 -0.037472945
  vertex 0.008546091 0.25073528 -0.0375241
  vertex 0.00881288 0.2507349 -0.0376667
 endloop
endfacet
facet normal -0.4714035 -0.0022555923 -0.88191473
 outer loop
  vertex 0.008546091 0.23073533 -0.037472945
  vertex 0.00881288 0.2507349 -0.0376667
  vertex 0.00881288 0.23073497 -0.03761555
 endloop
endfacet
facet normal -0.47140217 -0.0022555925 -0.88191545
 outer loop
  vertex 0.0082793 0.2307357 -0.037330344
  vertex 0.0082793 0.25073564 -0.037381496
  vertex 0.008546091 0.25073528 -0.0375241
 endloop
endfacet
facet normal -0.47139266 -0.0022557678 -0.8819205
 outer loop
  vertex 0.0082793 0.2307357 -0.037330344
  vertex 0.008546091 0.25073528 -0.0375241
  vertex 0.008546091 0.23073533 -0.037472945
 endloop
endfacet
facet normal -0.4713926 -0.0022557715 -0.8819206
 outer loop
  vertex 0.0082793 0.25073564 -0.037381496
  vertex 0.0082793 0.27073556 -0.037432652
  vertex 0.008546091 0.2707352 -0.037575252
 endloop
endfacet
facet normal -0.47140223 -0.0022555941 -0.88191545
 outer loop
  vertex 0.0082793 0.25073564 -0.037381496
  vertex 0.008546091 0.2707352 -0.037575252
  vertex 0.008546091 0.25073528 -0.0375241
 endloop
endfacet
facet normal -0.6343897 -0.001977203 -0.7730109
 outer loop
  vertex 0.008045456 0.2307362 -0.037138432
  vertex 0.008045456 0.25073612 -0.037189588
  vertex 0.0082793 0.25073564 -0.037381496
 endloop
endfacet
facet normal -0.6343971 -0.0019770418 -0.7730048
 outer loop
  vertex 0.008045456 0.2307362 -0.037138432
  vertex 0.0082793 0.25073564 -0.037381496
  vertex 0.0082793 0.2307357 -0.037330344
 endloop
endfacet
facet normal -0.634398 -0.0019770386 -0.7730041
 outer loop
  vertex 0.007811613 0.23073667 -0.036946524
  vertex 0.007811613 0.25073662 -0.036997676
  vertex 0.008045456 0.25073612 -0.037189588
 endloop
endfacet
facet normal -0.6343904 -0.0019772013 -0.7730103
 outer loop
  vertex 0.007811613 0.23073667 -0.036946524
  vertex 0.008045456 0.25073612 -0.037189588
  vertex 0.008045456 0.2307362 -0.037138432
 endloop
endfacet
facet normal -0.6343904 -0.0019772013 -0.7730103
 outer loop
  vertex 0.007811613 0.25073662 -0.036997676
  vertex 0.007811613 0.27073655 -0.03704883
  vertex 0.008045456 0.27073607 -0.03724074
 endloop
endfacet
facet normal -0.634398 -0.0019770386 -0.7730041
 outer loop
  vertex 0.007811613 0.25073662 -0.036997676
  vertex 0.008045456 0.27073607 -0.03724074
  vertex 0.008045456 0.25073612 -0.037189588
 endloop
endfacet
facet normal -0.7730066 -0.0016226528 -0.6343958
 outer loop
  vertex 0.0076197023 0.23073728 -0.03671268
  vertex 0.0076197023 0.25073722 -0.036763836
  vertex 0.007811613 0.25073662 -0.036997676
 endloop
endfacet
facet normal -0.7730117 -0.001622518 -0.6343897
 outer loop
  vertex 0.0076197023 0.23073728 -0.03671268
  vertex 0.007811613 0.25073662 -0.036997676
  vertex 0.007811613 0.23073667 -0.036946524
 endloop
endfacet
facet normal -0.7730124 -0.001622517 -0.6343889
 outer loop
  vertex 0.007427792 0.23073788 -0.03647884
  vertex 0.007427792 0.25073782 -0.03652999
  vertex 0.0076197023 0.25073722 -0.036763836
 endloop
endfacet
facet normal -0.7730074 -0.0016226504 -0.63439494
 outer loop
  vertex 0.007427792 0.23073788 -0.03647884
  vertex 0.0076197023 0.25073722 -0.036763836
  vertex 0.0076197023 0.23073728 -0.03671268
 endloop
endfacet
facet normal -0.77301234 -0.0016225183 -0.63438886
 outer loop
  vertex 0.007427792 0.25073782 -0.03652999
  vertex 0.007427792 0.27073774 -0.036581144
  vertex 0.0076197023 0.27073714 -0.036814988
 endloop
endfacet
facet normal -0.77301234 -0.0016225183 -0.63438886
 outer loop
  vertex 0.007427792 0.25073782 -0.03652999
  vertex 0.0076197023 0.27073714 -0.036814988
  vertex 0.0076197023 0.25073722 -0.036763836
 endloop
endfacet
facet normal -0.8819222 -0.001205639 -0.47139353
 outer loop
  vertex 0.00728519 0.23073857 -0.03621205
  vertex 0.00728519 0.2507385 -0.0362632
  vertex 0.007427792 0.25073782 -0.03652999
 endloop
endfacet
facet normal -0.8819222 -0.001205639 -0.47139353
 outer loop
  vertex 0.00728519 0.23073857 -0.03621205
  vertex 0.007427792 0.25073782 -0.03652999
  vertex 0.007427792 0.23073788 -0.03647884
 endloop
endfacet
facet normal -0.8819194 -0.0012057389 -0.47139862
 outer loop
  vertex 0.0071425876 0.23073924 -0.03594526
  vertex 0.0071425876 0.2507392 -0.035996415
  vertex 0.00728519 0.2507385 -0.0362632
 endloop
endfacet
facet normal -0.8819221 -0.001205639 -0.47139353
 outer loop
  vertex 0.0071425876 0.23073924 -0.03594526
  vertex 0.00728519 0.2507385 -0.0362632
  vertex 0.00728519 0.23073857 -0.03621205
 endloop
endfacet
facet normal -0.8819222 -0.0012056399 -0.47139353
 outer loop
  vertex 0.0071425876 0.2507392 -0.035996415
  vertex 0.0071425876 0.2707391 -0.036047567
  vertex 0.00728519 0.27073842 -0.036314357
 endloop
endfacet
facet normal -0.8819194 -0.0012057407 -0.47139862
 outer loop
  vertex 0.0071425876 0.2507392 -0.035996415
  vertex 0.00728519 0.27073842 -0.036314357
  vertex 0.00728519 0.2507385 -0.0362632
 endloop
endfacet
facet normal -0.9569405 -0.000742431 -0.29028332
 outer loop
  vertex 0.007054773 0.23073998 -0.035655778
  vertex 0.007054773 0.2507399 -0.03570693
  vertex 0.0071425876 0.2507392 -0.035996415
 endloop
endfacet
facet normal -0.9569394 -0.0007424925 -0.29028666
 outer loop
  vertex 0.007054773 0.23073998 -0.035655778
  vertex 0.0071425876 0.2507392 -0.035996415
  vertex 0.0071425876 0.23073924 -0.03594526
 endloop
endfacet
facet normal -0.95694053 -0.0007424308 -0.29028326
 outer loop
  vertex 0.0069669588 0.23074073 -0.035366293
  vertex 0.0069669588 0.25074065 -0.035417445
  vertex 0.007054773 0.2507399 -0.03570693
 endloop
endfacet
facet normal -0.9569405 -0.0007424308 -0.29028326
 outer loop
  vertex 0.0069669588 0.23074073 -0.035366293
  vertex 0.007054773 0.2507399 -0.03570693
  vertex 0.007054773 0.23073998 -0.035655778
 endloop
endfacet
facet normal -0.9569394 -0.0007424925 -0.29028666
 outer loop
  vertex 0.0069669588 0.25074065 -0.035417445
  vertex 0.0069669588 0.2707406 -0.0354686
  vertex 0.007054773 0.27073985 -0.03575808
 endloop
endfacet
facet normal -0.9569405 -0.0007424297 -0.29028326
 outer loop
  vertex 0.0069669588 0.25074065 -0.035417445
  vertex 0.007054773 0.27073985 -0.03575808
  vertex 0.007054773 0.2507399 -0.03570693
 endloop
endfacet
facet normal -0.9951847 -0.00025068744 -0.09801636
 outer loop
  vertex 0.006937308 0.2307415 -0.03506524
  vertex 0.006937308 0.25074142 -0.035116393
  vertex 0.0069669588 0.25074065 -0.035417445
 endloop
endfacet
facet normal -0.9951847 -0.00025068744 -0.09801636
 outer loop
  vertex 0.006937308 0.2307415 -0.03506524
  vertex 0.0069669588 0.25074065 -0.035417445
  vertex 0.0069669588 0.23074073 -0.035366293
 endloop
endfacet
facet normal -0.9951847 -0.00025068724 -0.09801637
 outer loop
  vertex 0.006907657 0.23074226 -0.03476419
  vertex 0.006907657 0.2507422 -0.03481534
  vertex 0.006937308 0.25074142 -0.035116393
 endloop
endfacet
facet normal -0.9951847 -0.00025068747 -0.098016374
 outer loop
  vertex 0.006907657 0.23074226 -0.03476419
  vertex 0.006937308 0.25074142 -0.035116393
  vertex 0.006937308 0.2307415 -0.03506524
 endloop
endfacet
facet normal -0.99518484 -0.00025068442 -0.09801518
 outer loop
  vertex 0.006907657 0.2507422 -0.03481534
  vertex 0.006907657 0.27074212 -0.034866493
  vertex 0.006937308 0.27074137 -0.03516755
 endloop
endfacet
facet normal -0.9951848 -0.00025070534 -0.098016374
 outer loop
  vertex 0.006907657 0.2507422 -0.03481534
  vertex 0.006937308 0.27074137 -0.03516755
  vertex 0.006937308 0.25074142 -0.035116393
 endloop
endfacet
facet normal -0.9951847 0.00025070552 0.09801637
 outer loop
  vertex 0.006937308 0.23074304 -0.034463134
  vertex 0.006937308 0.25074297 -0.03451429
  vertex 0.006907657 0.2507422 -0.03481534
 endloop
endfacet
facet normal -0.99518484 0.00025068418 0.09801517
 outer loop
  vertex 0.006937308 0.23074304 -0.034463134
  vertex 0.006907657 0.2507422 -0.03481534
  vertex 0.006907657 0.23074226 -0.03476419
 endloop
endfacet
facet normal -0.9951848 0.00025070534 0.098016374
 outer loop
  vertex 0.0069669588 0.2307438 -0.03416208
  vertex 0.0069669588 0.25074375 -0.034213237
  vertex 0.006937308 0.25074297 -0.03451429
 endloop
endfacet
facet normal -0.9951847 0.00025070555 0.098016374
 outer loop
  vertex 0.0069669588 0.2307438 -0.03416208
  vertex 0.006937308 0.25074297 -0.03451429
  vertex 0.006937308 0.23074304 -0.034463134
 endloop
endfacet
facet normal -0.9951847 0.00025068744 0.09801636
 outer loop
  vertex 0.0069669588 0.25074375 -0.034213237
  vertex 0.0069669588 0.27074367 -0.03426439
  vertex 0.006937308 0.2707429 -0.03456544
 endloop
endfacet
facet normal -0.9951847 0.00025068744 0.09801636
 outer loop
  vertex 0.0069669588 0.25074375 -0.034213237
  vertex 0.006937308 0.2707429 -0.03456544
  vertex 0.006937308 0.25074297 -0.03451429
 endloop
endfacet
facet normal -0.9569405 0.00074242963 0.29028323
 outer loop
  vertex 0.007054773 0.23074454 -0.0338726
  vertex 0.007054773 0.2507445 -0.033923753
  vertex 0.0069669588 0.25074375 -0.034213237
 endloop
endfacet
facet normal -0.9569394 0.0007424925 0.29028666
 outer loop
  vertex 0.007054773 0.23074454 -0.0338726
  vertex 0.0069669588 0.25074375 -0.034213237
  vertex 0.0069669588 0.2307438 -0.03416208
 endloop
endfacet
facet normal -0.9569405 0.000742431 0.29028332
 outer loop
  vertex 0.0071425876 0.23074529 -0.033583116
  vertex 0.0071425876 0.2507452 -0.033634268
  vertex 0.007054773 0.2507445 -0.033923753
 endloop
endfacet
facet normal -0.9569405 0.0007424297 0.29028326
 outer loop
  vertex 0.0071425876 0.23074529 -0.033583116
  vertex 0.007054773 0.2507445 -0.033923753
  vertex 0.007054773 0.23074454 -0.0338726
 endloop
endfacet
facet normal -0.9569394 0.0007424925 0.29028666
 outer loop
  vertex 0.0071425876 0.2507452 -0.033634268
  vertex 0.0071425876 0.27074516 -0.033685423
  vertex 0.007054773 0.2707444 -0.033974905
 endloop
endfacet
facet normal -0.9569405 0.000742431 0.29028332
 outer loop
  vertex 0.0071425876 0.2507452 -0.033634268
  vertex 0.007054773 0.2707444 -0.033974905
  vertex 0.007054773 0.2507445 -0.033923753
 endloop
endfacet
facet normal -0.8819194 0.0012057407 0.47139862
 outer loop
  vertex 0.00728519 0.23074597 -0.033316325
  vertex 0.00728519 0.2507459 -0.03336748
  vertex 0.0071425876 0.2507452 -0.033634268
 endloop
endfacet
facet normal -0.8819222 0.0012056399 0.47139353
 outer loop
  vertex 0.00728519 0.23074597 -0.033316325
  vertex 0.0071425876 0.2507452 -0.033634268
  vertex 0.0071425876 0.23074529 -0.033583116
 endloop
endfacet
facet normal -0.8819222 0.001205639 0.47139353
 outer loop
  vertex 0.007427792 0.23074664 -0.03304954
  vertex 0.007427792 0.25074658 -0.03310069
  vertex 0.00728519 0.2507459 -0.03336748
 endloop
endfacet
facet normal -0.8819194 0.001205741 0.47139868
 outer loop
  vertex 0.007427792 0.23074664 -0.03304954
  vertex 0.00728519 0.2507459 -0.03336748
  vertex 0.00728519 0.23074597 -0.033316325
 endloop
endfacet
facet normal -0.8819221 0.0012056379 0.4713935
 outer loop
  vertex 0.007427792 0.25074658 -0.03310069
  vertex 0.007427792 0.27074653 -0.033151843
  vertex 0.00728519 0.27074584 -0.033418633
 endloop
endfacet
facet normal -0.8819221 0.0012056379 0.4713935
 outer loop
  vertex 0.007427792 0.25074658 -0.03310069
  vertex 0.00728519 0.27074584 -0.033418633
  vertex 0.00728519 0.2507459 -0.03336748
 endloop
endfacet
facet normal -0.77301234 0.0016225183 0.63438886
 outer loop
  vertex 0.0076197023 0.23074725 -0.032815695
  vertex 0.0076197023 0.25074717 -0.032866847
  vertex 0.007427792 0.25074658 -0.03310069
 endloop
endfacet
facet normal -0.7730124 0.0016225168 0.6343888
 outer loop
  vertex 0.0076197023 0.23074725 -0.032815695
  vertex 0.007427792 0.25074658 -0.03310069
  vertex 0.007427792 0.23074664 -0.03304954
 endloop
endfacet
facet normal -0.7730066 0.001622654 0.63439584
 outer loop
  vertex 0.007811613 0.23074785 -0.03258185
  vertex 0.007811613 0.25074777 -0.032633007
  vertex 0.0076197023 0.25074717 -0.032866847
 endloop
endfacet
facet normal -0.7730116 0.0016225205 0.6343898
 outer loop
  vertex 0.007811613 0.23074785 -0.03258185
  vertex 0.0076197023 0.25074717 -0.032866847
  vertex 0.0076197023 0.23074725 -0.032815695
 endloop
endfacet
facet normal -0.77301157 0.0016225181 0.63438976
 outer loop
  vertex 0.007811613 0.25074777 -0.032633007
  vertex 0.007811613 0.27074772 -0.03268416
  vertex 0.0076197023 0.27074713 -0.032918002
 endloop
endfacet
facet normal -0.7730067 0.0016226516 0.6343958
 outer loop
  vertex 0.007811613 0.25074777 -0.032633007
  vertex 0.0076197023 0.27074713 -0.032918002
  vertex 0.0076197023 0.25074717 -0.032866847
 endloop
endfacet
facet normal -0.634398 0.0019770402 0.7730041
 outer loop
  vertex 0.008045456 0.23074834 -0.032389943
  vertex 0.008045456 0.25074828 -0.032441095
  vertex 0.007811613 0.25074777 -0.032633007
 endloop
endfacet
facet normal -0.6343905 0.001977201 0.77301025
 outer loop
  vertex 0.008045456 0.23074834 -0.032389943
  vertex 0.007811613 0.25074777 -0.032633007
  vertex 0.007811613 0.23074785 -0.03258185
 endloop
endfacet
facet normal -0.6343897 0.001977203 0.7730109
 outer loop
  vertex 0.0082793 0.23074883 -0.03219803
  vertex 0.0082793 0.25074875 -0.032249186
  vertex 0.008045456 0.25074828 -0.032441095
 endloop
endfacet
facet normal -0.6343971 0.0019770418 0.7730048
 outer loop
  vertex 0.0082793 0.23074883 -0.03219803
  vertex 0.008045456 0.25074828 -0.032441095
  vertex 0.008045456 0.23074834 -0.032389943
 endloop
endfacet
facet normal -0.63439727 0.0019770402 0.7730048
 outer loop
  vertex 0.0082793 0.25074875 -0.032249186
  vertex 0.0082793 0.2707487 -0.03230034
  vertex 0.008045456 0.2707482 -0.03249225
 endloop
endfacet
facet normal -0.6343897 0.001977203 0.7730109
 outer loop
  vertex 0.0082793 0.25074875 -0.032249186
  vertex 0.008045456 0.2707482 -0.03249225
  vertex 0.008045456 0.25074828 -0.032441095
 endloop
endfacet
facet normal -0.4714022 0.0022555941 0.88191545
 outer loop
  vertex 0.008546091 0.23074919 -0.03205543
  vertex 0.008546091 0.2507491 -0.032106582
  vertex 0.0082793 0.25074875 -0.032249186
 endloop
endfacet
facet normal -0.47139263 0.0022557715 0.8819206
 outer loop
  vertex 0.008546091 0.23074919 -0.03205543
  vertex 0.0082793 0.25074875 -0.032249186
  vertex 0.0082793 0.23074883 -0.03219803
 endloop
endfacet
facet normal -0.4713941 0.0022557662 0.8819198
 outer loop
  vertex 0.00881288 0.23074955 -0.031912826
  vertex 0.00881288 0.2507495 -0.03196398
  vertex 0.008546091 0.2507491 -0.032106582
 endloop
endfacet
facet normal -0.4714035 0.0022555923 0.88191473
 outer loop
  vertex 0.00881288 0.23074955 -0.031912826
  vertex 0.008546091 0.2507491 -0.032106582
  vertex 0.008546091 0.23074919 -0.03205543
 endloop
endfacet
facet normal -0.47140348 0.0022555923 0.88191473
 outer loop
  vertex 0.00881288 0.2507495 -0.03196398
  vertex 0.00881288 0.27074942 -0.032015134
  vertex 0.008546091 0.27074906 -0.032157738
 endloop
endfacet
facet normal -0.47139406 0.0022557662 0.8819198
 outer loop
  vertex 0.00881288 0.2507495 -0.03196398
  vertex 0.008546091 0.27074906 -0.032157738
  vertex 0.008546091 0.2507491 -0.032106582
 endloop
endfacet
facet normal -0.29028016 0.002447652 0.95693856
 outer loop
  vertex 0.009102365 0.23074979 -0.031825013
  vertex 0.009102365 0.2507497 -0.03187617
  vertex 0.00881288 0.2507495 -0.03196398
 endloop
endfacet
facet normal -0.2902804 0.0024476482 0.95693845
 outer loop
  vertex 0.009102365 0.23074979 -0.031825013
  vertex 0.00881288 0.2507495 -0.03196398
  vertex 0.00881288 0.23074955 -0.031912826
 endloop
endfacet
facet normal -0.29029256 0.0024474626 0.95693487
 outer loop
  vertex 0.009391849 0.23075001 -0.0317372
  vertex 0.009391849 0.25074995 -0.031788353
  vertex 0.009102365 0.2507497 -0.03187617
 endloop
endfacet
facet normal -0.29028115 0.0024476512 0.95693827
 outer loop
  vertex 0.009391849 0.23075001 -0.0317372
  vertex 0.009102365 0.2507497 -0.03187617
  vertex 0.009102365 0.23074979 -0.031825013
 endloop
endfacet
facet normal -0.29028103 0.0024476512 0.95693827
 outer loop
  vertex 0.009391849 0.25074995 -0.031788353
  vertex 0.009391849 0.27074987 -0.03183951
  vertex 0.009102365 0.27074966 -0.03192732
 endloop
endfacet
facet normal -0.29029256 0.0024474608 0.95693487
 outer loop
  vertex 0.009391849 0.25074995 -0.031788353
  vertex 0.009102365 0.27074966 -0.03192732
  vertex 0.009102365 0.2507497 -0.03187617
 endloop
endfacet
facet normal -0.09801201 0.0025454706 0.9951819
 outer loop
  vertex 0.009692903 0.23075008 -0.031707548
  vertex 0.009692903 0.25075 -0.031758703
  vertex 0.009391849 0.25074995 -0.031788353
 endloop
endfacet
facet normal -0.09802432 0.0025452804 0.9951807
 outer loop
  vertex 0.009692903 0.23075008 -0.031707548
  vertex 0.009391849 0.25074995 -0.031788353
  vertex 0.009391849 0.23075001 -0.0317372
 endloop
endfacet
facet normal -0.09802446 0.0025452804 0.9951807
 outer loop
  vertex 0.009993956 0.23075016 -0.031677898
  vertex 0.009993956 0.2507501 -0.03172905
  vertex 0.009692903 0.25075 -0.031758703
 endloop
endfacet
facet normal -0.098012134 0.0025454706 0.9951819
 outer loop
  vertex 0.009993956 0.23075016 -0.031677898
  vertex 0.009692903 0.25075 -0.031758703
  vertex 0.009692903 0.23075008 -0.031707548
 endloop
endfacet
facet normal -0.09801201 0.0025454706 0.9951819
 outer loop
  vertex 0.009993956 0.2507501 -0.03172905
  vertex 0.009993956 0.27075002 -0.031780206
  vertex 0.009692903 0.27074996 -0.031809855
 endloop
endfacet
facet normal -0.098024465 0.0025452788 0.9951807
 outer loop
  vertex 0.009993956 0.2507501 -0.03172905
  vertex 0.009692903 0.27074996 -0.031809855
  vertex 0.009692903 0.25075 -0.031758703
 endloop
endfacet
facet normal 0.09802446 0.0025454676 0.9951807
 outer loop
  vertex 0.01029501 0.23075008 -0.031707548
  vertex 0.01029501 0.25075 -0.031758703
  vertex 0.009993956 0.2507501 -0.03172905
 endloop
endfacet
facet normal 0.098012134 0.0025452834 0.9951819
 outer loop
  vertex 0.01029501 0.23075008 -0.031707548
  vertex 0.009993956 0.2507501 -0.03172905
  vertex 0.009993956 0.23075016 -0.031677898
 endloop
endfacet
facet normal 0.098012015 0.0025452834 0.9951819
 outer loop
  vertex 0.010596064 0.23075001 -0.0317372
  vertex 0.010596064 0.25074995 -0.031788353
  vertex 0.01029501 0.25075 -0.031758703
 endloop
endfacet
facet normal 0.098024346 0.0025454678 0.99518085
 outer loop
  vertex 0.010596064 0.23075001 -0.0317372
  vertex 0.01029501 0.25075 -0.031758703
  vertex 0.01029501 0.23075008 -0.031707548
 endloop
endfacet
facet normal 0.09802446 0.0025454676 0.9951807
 outer loop
  vertex 0.010596064 0.25074995 -0.031788353
  vertex 0.010596064 0.27074987 -0.03183951
  vertex 0.01029501 0.27074996 -0.031809855
 endloop
endfacet
facet normal 0.09801201 0.0025452818 0.995182
 outer loop
  vertex 0.010596064 0.25074995 -0.031788353
  vertex 0.01029501 0.27074996 -0.031809855
  vertex 0.01029501 0.25075 -0.031758703
 endloop
endfacet
facet normal 0.29029256 0.0024476424 0.9569348
 outer loop
  vertex 0.010885548 0.23074979 -0.031825013
  vertex 0.010885548 0.2507497 -0.03187617
  vertex 0.010596064 0.25074995 -0.031788353
 endloop
endfacet
facet normal 0.29028118 0.0024474713 0.95693827
 outer loop
  vertex 0.010885548 0.23074979 -0.031825013
  vertex 0.010596064 0.25074995 -0.031788353
  vertex 0.010596064 0.23075001 -0.0317372
 endloop
endfacet
facet normal 0.2902802 0.0024476484 0.9569386
 outer loop
  vertex 0.011175033 0.23074955 -0.031912826
  vertex 0.011175033 0.2507495 -0.03196398
  vertex 0.010885548 0.2507497 -0.03187617
 endloop
endfacet
facet normal 0.2902804 0.0024476517 0.95693845
 outer loop
  vertex 0.011175033 0.23074955 -0.031912826
  vertex 0.010885548 0.2507497 -0.03187617
  vertex 0.010885548 0.23074979 -0.031825013
 endloop
endfacet
facet normal 0.2902804 0.0024474736 0.95693845
 outer loop
  vertex 0.011175033 0.2507495 -0.03196398
  vertex 0.011175033 0.27074942 -0.032015134
  vertex 0.010885548 0.27074966 -0.03192732
 endloop
endfacet
facet normal 0.2902802 0.0024474703 0.9569386
 outer loop
  vertex 0.011175033 0.2507495 -0.03196398
  vertex 0.010885548 0.27074966 -0.03192732
  vertex 0.010885548 0.2507497 -0.03187617
 endloop
endfacet
facet normal 0.4713941 0.0022556053 0.8819198
 outer loop
  vertex 0.011441822 0.23074919 -0.03205543
  vertex 0.011441822 0.2507491 -0.032106582
  vertex 0.011175033 0.2507495 -0.03196398
 endloop
endfacet
facet normal 0.47140348 0.0022557531 0.8819148
 outer loop
  vertex 0.011441822 0.23074919 -0.03205543
  vertex 0.011175033 0.2507495 -0.03196398
  vertex 0.011175033 0.23074955 -0.031912826
 endloop
endfacet
facet normal 0.4714022 0.0022557585 0.88191545
 outer loop
  vertex 0.011708613 0.23074883 -0.03219803
  vertex 0.011708613 0.25074875 -0.032249186
  vertex 0.011441822 0.2507491 -0.032106582
 endloop
endfacet
facet normal 0.47139263 0.0022556072 0.8819206
 outer loop
  vertex 0.011708613 0.23074883 -0.03219803
  vertex 0.011441822 0.2507491 -0.032106582
  vertex 0.011441822 0.23074919 -0.03205543
 endloop
endfacet
facet normal 0.4713926 0.002255604 0.8819206
 outer loop
  vertex 0.011708613 0.25074875 -0.032249186
  vertex 0.011708613 0.2707487 -0.03230034
  vertex 0.011441822 0.27074906 -0.032157738
 endloop
endfacet
facet normal 0.4714022 0.002255755 0.88191545
 outer loop
  vertex 0.011708613 0.25074875 -0.032249186
  vertex 0.011441822 0.27074906 -0.032157738
  vertex 0.011441822 0.2507491 -0.032106582
 endloop
endfacet
facet normal 0.6343897 0.0019770572 0.77301085
 outer loop
  vertex 0.0119424565 0.23074834 -0.032389943
  vertex 0.0119424565 0.25074828 -0.032441095
  vertex 0.011708613 0.25074875 -0.032249186
 endloop
endfacet
facet normal 0.6343971 0.0019771873 0.77300483
 outer loop
  vertex 0.0119424565 0.23074834 -0.032389943
  vertex 0.011708613 0.25074875 -0.032249186
  vertex 0.011708613 0.23074883 -0.03219803
 endloop
endfacet
facet normal 0.6343987 0.001977184 0.7730035
 outer loop
  vertex 0.0121762995 0.23074785 -0.03258185
  vertex 0.0121762995 0.25074777 -0.032633007
  vertex 0.0119424565 0.25074828 -0.032441095
 endloop
endfacet
facet normal 0.63439125 0.0019770542 0.7730096
 outer loop
  vertex 0.0121762995 0.23074785 -0.03258185
  vertex 0.0119424565 0.25074828 -0.032441095
  vertex 0.0119424565 0.23074834 -0.032389943
 endloop
endfacet
facet normal 0.63439125 0.0019770528 0.7730096
 outer loop
  vertex 0.0121762995 0.25074777 -0.032633007
  vertex 0.0121762995 0.27074772 -0.03268416
  vertex 0.0119424565 0.2707482 -0.03249225
 endloop
endfacet
facet normal 0.6343987 0.001977184 0.7730035
 outer loop
  vertex 0.0121762995 0.25074777 -0.032633007
  vertex 0.0119424565 0.2707482 -0.03249225
  vertex 0.0119424565 0.25074828 -0.032441095
 endloop
endfacet
facet normal 0.7730059 0.0016225383 0.6343968
 outer loop
  vertex 0.012368211 0.23074725 -0.032815695
  vertex 0.012368211 0.25074717 -0.032866847
  vertex 0.0121762995 0.25074777 -0.032633007
 endloop
endfacet
facet normal 0.7730108 0.0016226409 0.63439065
 outer loop
  vertex 0.012368211 0.23074725 -0.032815695
  vertex 0.0121762995 0.25074777 -0.032633007
  vertex 0.0121762995 0.23074785 -0.03258185
 endloop
endfacet
facet normal 0.7730124 0.001622517 0.6343889
 outer loop
  vertex 0.012560121 0.23074664 -0.03304954
  vertex 0.012560121 0.25074658 -0.03310069
  vertex 0.012368211 0.25074717 -0.032866847
 endloop
endfacet
facet normal 0.77301246 0.0016225182 0.6343888
 outer loop
  vertex 0.012560121 0.23074664 -0.03304954
  vertex 0.012368211 0.25074717 -0.032866847
  vertex 0.012368211 0.23074725 -0.032815695
 endloop
endfacet
facet normal 0.7730074 0.0016225312 0.6343949
 outer loop
  vertex 0.012560121 0.25074658 -0.03310069
  vertex 0.012560121 0.27074653 -0.033151843
  vertex 0.012368211 0.27074713 -0.032918002
 endloop
endfacet
facet normal 0.77301234 0.0016226338 0.63438886
 outer loop
  vertex 0.012560121 0.25074658 -0.03310069
  vertex 0.012368211 0.27074713 -0.032918002
  vertex 0.012368211 0.25074717 -0.032866847
 endloop
endfacet
facet normal 0.8819222 0.0012057277 0.47139353
 outer loop
  vertex 0.012702723 0.23074597 -0.033316325
  vertex 0.012702723 0.2507459 -0.03336748
  vertex 0.012560121 0.25074658 -0.03310069
 endloop
endfacet
facet normal 0.8819194 0.0012056523 0.4713987
 outer loop
  vertex 0.012702723 0.23074597 -0.033316325
  vertex 0.012560121 0.25074658 -0.03310069
  vertex 0.012560121 0.23074664 -0.03304954
 endloop
endfacet
facet normal 0.8819194 0.001205653 0.47139862
 outer loop
  vertex 0.012845325 0.23074529 -0.033583116
  vertex 0.012845325 0.2507452 -0.033634268
  vertex 0.012702723 0.2507459 -0.03336748
 endloop
endfacet
facet normal 0.8819222 0.0012057277 0.47139353
 outer loop
  vertex 0.012845325 0.23074529 -0.033583116
  vertex 0.012702723 0.2507459 -0.03336748
  vertex 0.012702723 0.23074597 -0.033316325
 endloop
endfacet
facet normal 0.8819221 0.0012057258 0.4713935
 outer loop
  vertex 0.012845325 0.2507452 -0.033634268
  vertex 0.012845325 0.27074516 -0.033685423
  vertex 0.012702723 0.27074584 -0.033418633
 endloop
endfacet
facet normal 0.8819194 0.0012056511 0.47139862
 outer loop
  vertex 0.012845325 0.2507452 -0.033634268
  vertex 0.012702723 0.27074584 -0.033418633
  vertex 0.012702723 0.2507459 -0.03336748
 endloop
endfacet
facet normal 0.9569405 0.0007424298 0.29028332
 outer loop
  vertex 0.01293314 0.23074454 -0.0338726
  vertex 0.01293314 0.2507445 -0.033923753
  vertex 0.012845325 0.2507452 -0.033634268
 endloop
endfacet
facet normal 0.9569405 0.0007424308 0.29028326
 outer loop
  vertex 0.01293314 0.23074454 -0.0338726
  vertex 0.012845325 0.2507452 -0.033634268
  vertex 0.012845325 0.23074529 -0.033583116
 endloop
endfacet
facet normal 0.9569405 0.0007424837 0.29028323
 outer loop
  vertex 0.013020954 0.2307438 -0.03416208
  vertex 0.013020954 0.25074375 -0.034213237
  vertex 0.01293314 0.2507445 -0.033923753
 endloop
endfacet
facet normal 0.9569394 0.0007424384 0.2902867
 outer loop
  vertex 0.013020954 0.2307438 -0.03416208
  vertex 0.01293314 0.2507445 -0.033923753
  vertex 0.01293314 0.23074454 -0.0338726
 endloop
endfacet
facet normal 0.95694053 0.0007424308 0.29028326
 outer loop
  vertex 0.013020954 0.25074375 -0.034213237
  vertex 0.013020954 0.27074367 -0.03426439
  vertex 0.01293314 0.2707444 -0.033974905
 endloop
endfacet
facet normal 0.9569405 0.0007424308 0.29028326
 outer loop
  vertex 0.013020954 0.25074375 -0.034213237
  vertex 0.01293314 0.2707444 -0.033974905
  vertex 0.01293314 0.2507445 -0.033923753
 endloop
endfacet
facet normal 0.99518484 0.00025070162 0.09801484
 outer loop
  vertex 0.013050605 0.23074304 -0.034463134
  vertex 0.013050605 0.25074297 -0.03451429
  vertex 0.013020954 0.25074375 -0.034213237
 endloop
endfacet
facet normal 0.99518496 0.00025070147 0.09801486
 outer loop
  vertex 0.013050605 0.23074304 -0.034463134
  vertex 0.013020954 0.25074375 -0.034213237
  vertex 0.013020954 0.2307438 -0.03416208
 endloop
endfacet
facet normal 0.99518454 0.00025069114 0.09801789
 outer loop
  vertex 0.013080256 0.23074226 -0.03476419
  vertex 0.013080256 0.2507422 -0.03481534
  vertex 0.013050605 0.25074297 -0.03451429
 endloop
endfacet
facet normal 0.9951847 0.00025070633 0.09801669
 outer loop
  vertex 0.013080256 0.23074226 -0.03476419
  vertex 0.013050605 0.25074297 -0.03451429
  vertex 0.013050605 0.23074304 -0.034463134
 endloop
endfacet
facet normal 0.99518466 0.00025069137 0.098017894
 outer loop
  vertex 0.013080256 0.2507422 -0.03481534
  vertex 0.013080256 0.27074212 -0.034866493
  vertex 0.013050605 0.2707429 -0.03456544
 endloop
endfacet
facet normal 0.99518466 0.00025069137 0.098017894
 outer loop
  vertex 0.013080256 0.2507422 -0.03481534
  vertex 0.013050605 0.2707429 -0.03456544
  vertex 0.013050605 0.25074297 -0.03451429
 endloop
endfacet
facet normal 0.99518466 -0.00025069137 -0.098017894
 outer loop
  vertex 0.013050605 0.2307415 -0.03506524
  vertex 0.013050605 0.25074142 -0.035116393
  vertex 0.013080256 0.2507422 -0.03481534
 endloop
endfacet
facet normal 0.99518454 -0.0002506912 -0.0980179
 outer loop
  vertex 0.013050605 0.2307415 -0.03506524
  vertex 0.013080256 0.2507422 -0.03481534
  vertex 0.013080256 0.23074226 -0.03476419
 endloop
endfacet
facet normal 0.99518484 -0.00025068354 -0.09801483
 outer loop
  vertex 0.013020954 0.23074073 -0.035366293
  vertex 0.013020954 0.25074065 -0.035417445
  vertex 0.013050605 0.25074142 -0.035116393
 endloop
endfacet
facet normal 0.99518484 -0.00025068354 -0.09801483
 outer loop
  vertex 0.013020954 0.23074073 -0.035366293
  vertex 0.013050605 0.25074142 -0.035116393
  vertex 0.013050605 0.2307415 -0.03506524
 endloop
endfacet
facet normal 0.99518496 -0.00025070144 -0.09801485
 outer loop
  vertex 0.013020954 0.25074065 -0.035417445
  vertex 0.013020954 0.2707406 -0.0354686
  vertex 0.013050605 0.27074137 -0.03516755
 endloop
endfacet
facet normal 0.9951849 -0.00025070144 -0.09801485
 outer loop
  vertex 0.013020954 0.25074065 -0.035417445
  vertex 0.013050605 0.27074137 -0.03516755
  vertex 0.013050605 0.25074142 -0.035116393
 endloop
endfacet
facet normal 0.95694053 -0.0007424308 -0.29028326
 outer loop
  vertex 0.01293314 0.23073998 -0.035655778
  vertex 0.01293314 0.2507399 -0.03570693
  vertex 0.013020954 0.25074065 -0.035417445
 endloop
endfacet
facet normal 0.9569405 -0.0007424308 -0.29028326
 outer loop
  vertex 0.01293314 0.23073998 -0.035655778
  vertex 0.013020954 0.25074065 -0.035417445
  vertex 0.013020954 0.23074073 -0.035366293
 endloop
endfacet
facet normal 0.9569405 -0.00074248394 -0.29028332
 outer loop
  vertex 0.012845325 0.23073924 -0.03594526
  vertex 0.012845325 0.2507392 -0.035996415
  vertex 0.01293314 0.2507399 -0.03570693
 endloop
endfacet
facet normal 0.9569395 -0.00074243953 -0.2902867
 outer loop
  vertex 0.012845325 0.23073924 -0.03594526
  vertex 0.01293314 0.2507399 -0.03570693
  vertex 0.01293314 0.23073998 -0.035655778
 endloop
endfacet
facet normal 0.95694053 -0.0007424308 -0.29028326
 outer loop
  vertex 0.012845325 0.2507392 -0.035996415
  vertex 0.012845325 0.2707391 -0.036047567
  vertex 0.01293314 0.27073985 -0.03575808
 endloop
endfacet
facet normal 0.9569405 -0.0007424298 -0.29028332
 outer loop
  vertex 0.012845325 0.2507392 -0.035996415
  vertex 0.01293314 0.27073985 -0.03575808
  vertex 0.01293314 0.2507399 -0.03570693
 endloop
endfacet
facet normal 0.8819194 -0.001205652 -0.47139865
 outer loop
  vertex 0.012702723 0.23073857 -0.03621205
  vertex 0.012702723 0.2507385 -0.0362632
  vertex 0.012845325 0.2507392 -0.035996415
 endloop
endfacet
facet normal 0.8819221 -0.001205726 -0.47139356
 outer loop
  vertex 0.012702723 0.23073857 -0.03621205
  vertex 0.012845325 0.2507392 -0.035996415
  vertex 0.012845325 0.23073924 -0.03594526
 endloop
endfacet
facet normal 0.8819222 -0.001205639 -0.47139353
 outer loop
  vertex 0.012560121 0.23073788 -0.03647884
  vertex 0.012560121 0.25073782 -0.03652999
  vertex 0.012702723 0.2507385 -0.0362632
 endloop
endfacet
facet normal 0.8819222 -0.001205639 -0.47139353
 outer loop
  vertex 0.012560121 0.23073788 -0.03647884
  vertex 0.012702723 0.2507385 -0.0362632
  vertex 0.012702723 0.23073857 -0.03621205
 endloop
endfacet
facet normal 0.8819194 -0.001205653 -0.47139862
 outer loop
  vertex 0.012560121 0.25073782 -0.03652999
  vertex 0.012560121 0.27073774 -0.036581144
  vertex 0.012702723 0.27073842 -0.036314357
 endloop
endfacet
facet normal 0.8819222 -0.0012057277 -0.47139353
 outer loop
  vertex 0.012560121 0.25073782 -0.03652999
  vertex 0.012702723 0.27073842 -0.036314357
  vertex 0.012702723 0.2507385 -0.0362632
 endloop
endfacet
facet normal 0.7730124 -0.001622635 -0.6343889
 outer loop
  vertex 0.012368211 0.23073728 -0.03671268
  vertex 0.012368211 0.25073722 -0.036763836
  vertex 0.012560121 0.25073782 -0.03652999
 endloop
endfacet
facet normal 0.7730074 -0.0016225324 -0.63439494
 outer loop
  vertex 0.012368211 0.23073728 -0.03671268
  vertex 0.012560121 0.25073782 -0.03652999
  vertex 0.012560121 0.23073788 -0.03647884
 endloop
endfacet
facet normal 0.7730059 -0.0016225358 -0.63439673
 outer loop
  vertex 0.0121762995 0.23073667 -0.036946524
  vertex 0.0121762995 0.25073662 -0.036997676
  vertex 0.012368211 0.25073722 -0.036763836
 endloop
endfacet
facet normal 0.77301085 -0.0016226396 -0.63439065
 outer loop
  vertex 0.0121762995 0.23073667 -0.036946524
  vertex 0.012368211 0.25073722 -0.036763836
  vertex 0.012368211 0.23073728 -0.03671268
 endloop
endfacet
facet normal 0.7730108 -0.0016226409 -0.63439065
 outer loop
  vertex 0.0121762995 0.25073662 -0.036997676
  vertex 0.0121762995 0.27073655 -0.03704883
  vertex 0.012368211 0.27073714 -0.036814988
 endloop
endfacet
facet normal 0.7730059 -0.0016225383 -0.6343968
 outer loop
  vertex 0.0121762995 0.25073662 -0.036997676
  vertex 0.012368211 0.27073714 -0.036814988
  vertex 0.012368211 0.25073722 -0.036763836
 endloop
endfacet
facet normal 0.6343987 -0.001977184 -0.7730035
 outer loop
  vertex 0.0119424565 0.2307362 -0.037138432
  vertex 0.0119424565 0.25073612 -0.037189588
  vertex 0.0121762995 0.25073662 -0.036997676
 endloop
endfacet
facet normal 0.63439125 -0.0019770528 -0.7730096
 outer loop
  vertex 0.0119424565 0.2307362 -0.037138432
  vertex 0.0121762995 0.25073662 -0.036997676
  vertex 0.0121762995 0.23073667 -0.036946524
 endloop
endfacet
facet normal 0.6343897 -0.0019770572 -0.77301085
 outer loop
  vertex 0.011708613 0.2307357 -0.037330344
  vertex 0.011708613 0.25073564 -0.037381496
  vertex 0.0119424565 0.25073612 -0.037189588
 endloop
endfacet
facet normal 0.6343971 -0.0019771873 -0.77300483
 outer loop
  vertex 0.011708613 0.2307357 -0.037330344
  vertex 0.0119424565 0.25073612 -0.037189588
  vertex 0.0119424565 0.2307362 -0.037138432
 endloop
endfacet
facet normal 0.6343972 -0.0019771873 -0.7730048
 outer loop
  vertex 0.011708613 0.25073564 -0.037381496
  vertex 0.011708613 0.27073556 -0.037432652
  vertex 0.0119424565 0.27073607 -0.03724074
 endloop
endfacet
facet normal 0.63438976 -0.001977056 -0.7730109
 outer loop
  vertex 0.011708613 0.25073564 -0.037381496
  vertex 0.0119424565 0.27073607 -0.03724074
  vertex 0.0119424565 0.25073612 -0.037189588
 endloop
endfacet
facet normal 0.4714022 -0.002255755 -0.88191545
 outer loop
  vertex 0.011441822 0.23073533 -0.037472945
  vertex 0.011441822 0.25073528 -0.0375241
  vertex 0.011708613 0.25073564 -0.037381496
 endloop
endfacet
facet normal 0.4713927 -0.0022556053 -0.8819205
 outer loop
  vertex 0.011441822 0.23073533 -0.037472945
  vertex 0.011708613 0.25073564 -0.037381496
  vertex 0.011708613 0.2307357 -0.037330344
 endloop
endfacet
facet normal 0.4713941 -0.0022556053 -0.8819198
 outer loop
  vertex 0.011175033 0.23073497 -0.03761555
  vertex 0.011175033 0.2507349 -0.0376667
  vertex 0.011441822 0.25073528 -0.0375241
 endloop
endfacet
facet normal 0.47140348 -0.0022557531 -0.8819148
 outer loop
  vertex 0.011175033 0.23073497 -0.03761555
  vertex 0.011441822 0.25073528 -0.0375241
  vertex 0.011441822 0.23073533 -0.037472945
 endloop
endfacet
facet normal 0.47140348 -0.0022557531 -0.8819148
 outer loop
  vertex 0.011175033 0.2507349 -0.0376667
  vertex 0.011175033 0.27073485 -0.037717856
  vertex 0.011441822 0.2707352 -0.037575252
 endloop
endfacet
facet normal 0.4713941 -0.0022556053 -0.8819198
 outer loop
  vertex 0.011175033 0.2507349 -0.0376667
  vertex 0.011441822 0.2707352 -0.037575252
  vertex 0.011441822 0.25073528 -0.0375241
 endloop
endfacet
facet normal 0.2902802 -0.0024474722 -0.95693856
 outer loop
  vertex 0.010885548 0.23073475 -0.03770336
  vertex 0.010885548 0.2507347 -0.037754513
  vertex 0.011175033 0.2507349 -0.0376667
 endloop
endfacet
facet normal 0.2902803 -0.0024474738 -0.95693856
 outer loop
  vertex 0.010885548 0.23073475 -0.03770336
  vertex 0.011175033 0.2507349 -0.0376667
  vertex 0.011175033 0.23073497 -0.03761555
 endloop
endfacet
facet normal 0.29029256 -0.0024476424 -0.9569348
 outer loop
  vertex 0.010596064 0.23073453 -0.037791174
  vertex 0.010596064 0.25073445 -0.03784233
  vertex 0.010885548 0.2507347 -0.037754513
 endloop
endfacet
facet normal 0.29028118 -0.0024474713 -0.95693827
 outer loop
  vertex 0.010596064 0.23073453 -0.037791174
  vertex 0.010885548 0.2507347 -0.037754513
  vertex 0.010885548 0.23073475 -0.03770336
 endloop
endfacet
facet normal 0.29028103 -0.0024474696 -0.9569383
 outer loop
  vertex 0.010596064 0.25073445 -0.03784233
  vertex 0.010596064 0.2707344 -0.03789348
  vertex 0.010885548 0.2707346 -0.03780567
 endloop
endfacet
facet normal 0.29029256 -0.0024476424 -0.9569348
 outer loop
  vertex 0.010596064 0.25073445 -0.03784233
  vertex 0.010885548 0.2707346 -0.03780567
  vertex 0.010885548 0.2507347 -0.037754513
 endloop
endfacet
facet normal 0.09801202 -0.0025452818 -0.995182
 outer loop
  vertex 0.01029501 0.23073444 -0.037820827
  vertex 0.01029501 0.2507344 -0.03787198
  vertex 0.010596064 0.25073445 -0.03784233
 endloop
endfacet
facet normal 0.09802446 -0.0025454676 -0.9951807
 outer loop
  vertex 0.01029501 0.23073444 -0.037820827
  vertex 0.010596064 0.25073445 -0.03784233
  vertex 0.010596064 0.23073453 -0.037791174
 endloop
endfacet
facet normal 0.09802446 -0.0025454657 -0.9951807
 outer loop
  vertex 0.009993956 0.23073436 -0.037850477
  vertex 0.009993956 0.2507343 -0.037901632
  vertex 0.01029501 0.2507344 -0.03787198
 endloop
endfacet
facet normal 0.09801214 -0.0025452818 -0.995182
 outer loop
  vertex 0.009993956 0.23073436 -0.037850477
  vertex 0.01029501 0.2507344 -0.03787198
  vertex 0.01029501 0.23073444 -0.037820827
 endloop
endfacet
facet normal 0.09801202 -0.0025452818 -0.995182
 outer loop
  vertex 0.009993956 0.2507343 -0.037901632
  vertex 0.009993956 0.27073425 -0.037952784
  vertex 0.01029501 0.2707343 -0.037923135
 endloop
endfacet
facet normal 0.09802446 -0.0025454676 -0.9951807
 outer loop
  vertex 0.009993956 0.2507343 -0.037901632
  vertex 0.01029501 0.2707343 -0.037923135
  vertex 0.01029501 0.2507344 -0.03787198
 endloop
endfacet
endsolid 
