solid 
facet normal 0.09801743 -0.0025453586 -0.99518144
 outer loop
  vertex 0.0013150405 -0.012812406 -0.053832065
  vertex 0.0013150405 0.23780778 -0.054473072
  vertex 0.005087558 0.23780873 -0.05410151
 endloop
endfacet
facet normal 0.09801743 -0.0025453586 -0.99518144
 outer loop
  vertex 0.0013150405 -0.012812406 -0.053832065
  vertex 0.005087558 0.23780873 -0.05410151
  vertex 0.005087558 -0.012811452 -0.053460505
 endloop
endfacet
facet normal 0.29028448 -0.0024475423 -0.9569372
 outer loop
  vertex 0.005087558 -0.012811452 -0.053460505
  vertex 0.005087558 0.23780873 -0.05410151
  vertex 0.008715101 0.23781155 -0.053001113
 endloop
endfacet
facet normal 0.29028445 -0.0024475423 -0.9569372
 outer loop
  vertex 0.005087558 -0.012811452 -0.053460505
  vertex 0.008715101 0.23781155 -0.053001113
  vertex 0.008715101 -0.012808636 -0.052360106
 endloop
endfacet
facet normal 0.4713966 -0.002255668 -0.88191843
 outer loop
  vertex 0.008715101 -0.012808636 -0.052360106
  vertex 0.008715101 0.23781155 -0.053001113
  vertex 0.012058263 0.23781611 -0.051214162
 endloop
endfacet
facet normal 0.4713966 -0.002255668 -0.88191843
 outer loop
  vertex 0.008715101 -0.012808636 -0.052360106
  vertex 0.012058263 0.23781611 -0.051214162
  vertex 0.012058263 -0.012804076 -0.050573155
 endloop
endfacet
facet normal 0.63439375 -0.0019771082 -0.7730075
 outer loop
  vertex 0.012058263 -0.012804076 -0.050573155
  vertex 0.012058263 0.23781611 -0.051214162
  vertex 0.014988569 0.23782226 -0.048809327
 endloop
endfacet
facet normal 0.63439316 -0.001977098 -0.77300805
 outer loop
  vertex 0.012058263 -0.012804076 -0.050573155
  vertex 0.014988569 0.23782226 -0.048809327
  vertex 0.014988569 -0.012797922 -0.048168324
 endloop
endfacet
facet normal 0.77301025 -0.0016225625 -0.63439137
 outer loop
  vertex 0.014988569 -0.012797922 -0.048168324
  vertex 0.014988569 0.23782226 -0.048809327
  vertex 0.017393408 0.23782976 -0.045879032
 endloop
endfacet
facet normal 0.7730107 -0.0016225708 -0.6343909
 outer loop
  vertex 0.014988569 -0.012797922 -0.048168324
  vertex 0.017393408 0.23782976 -0.045879032
  vertex 0.017393408 -0.012790427 -0.045238025
 endloop
endfacet
facet normal 0.8819213 -0.0012056794 -0.47139516
 outer loop
  vertex 0.017393408 -0.012790427 -0.045238025
  vertex 0.017393408 0.23782976 -0.045879032
  vertex 0.019180365 0.23783831 -0.042535882
 endloop
endfacet
facet normal 0.8819213 -0.0012056793 -0.47139513
 outer loop
  vertex 0.017393408 -0.012790427 -0.045238025
  vertex 0.019180365 0.23783831 -0.042535882
  vertex 0.019180365 -0.012781873 -0.041894875
 endloop
endfacet
facet normal 0.95694023 -0.0007424544 -0.29028398
 outer loop
  vertex 0.019180365 -0.012781873 -0.041894875
  vertex 0.019180365 0.23783831 -0.042535882
  vertex 0.02028077 0.23784758 -0.03890835
 endloop
endfacet
facet normal 0.95694023 -0.0007424543 -0.29028395
 outer loop
  vertex 0.019180365 -0.012781873 -0.041894875
  vertex 0.02028077 0.23784758 -0.03890835
  vertex 0.02028077 -0.012772605 -0.038267344
 endloop
endfacet
facet normal 0.99518466 -0.0002506959 -0.098016806
 outer loop
  vertex 0.02028077 -0.012772605 -0.038267344
  vertex 0.02028077 0.23784758 -0.03890835
  vertex 0.02065233 0.23785724 -0.035135847
 endloop
endfacet
facet normal 0.9951847 -0.00025069714 -0.09801671
 outer loop
  vertex 0.02028077 -0.012772605 -0.038267344
  vertex 0.02065233 0.23785724 -0.035135847
  vertex 0.02065233 -0.012762949 -0.034494836
 endloop
endfacet
facet normal 0.9951847 0.00025069714 0.09801671
 outer loop
  vertex 0.02065233 -0.012762949 -0.034494836
  vertex 0.02065233 0.23785724 -0.035135847
  vertex 0.02028077 0.2378669 -0.03136334
 endloop
endfacet
facet normal 0.99518466 0.0002506959 0.098016806
 outer loop
  vertex 0.02065233 -0.012762949 -0.034494836
  vertex 0.02028077 0.2378669 -0.03136334
  vertex 0.02028077 -0.012753293 -0.030722331
 endloop
endfacet
facet normal 0.95694023 0.0007424544 0.29028398
 outer loop
  vertex 0.02028077 -0.012753293 -0.030722331
  vertex 0.02028077 0.2378669 -0.03136334
  vertex 0.019180365 0.23787616 -0.027735807
 endloop
endfacet
facet normal 0.95694023 0.0007424543 0.29028395
 outer loop
  vertex 0.02028077 -0.012753293 -0.030722331
  vertex 0.019180365 0.23787616 -0.027735807
  vertex 0.019180365 -0.012744024 -0.0270948
 endloop
endfacet
facet normal 0.8819213 0.0012056794 0.47139516
 outer loop
  vertex 0.019180365 -0.012744024 -0.0270948
  vertex 0.019180365 0.23787616 -0.027735807
  vertex 0.017393408 0.23788472 -0.024392657
 endloop
endfacet
facet normal 0.8819213 0.0012056793 0.47139513
 outer loop
  vertex 0.019180365 -0.012744024 -0.0270948
  vertex 0.017393408 0.23788472 -0.024392657
  vertex 0.017393408 -0.012735471 -0.02375165
 endloop
endfacet
facet normal 0.7730105 0.0016225714 0.6343911
 outer loop
  vertex 0.017393408 -0.012735471 -0.02375165
  vertex 0.017393408 0.23788472 -0.024392657
  vertex 0.014988569 0.23789221 -0.02146236
 endloop
endfacet
facet normal 0.7730105 0.0016225714 0.6343911
 outer loop
  vertex 0.017393408 -0.012735471 -0.02375165
  vertex 0.014988569 0.23789221 -0.02146236
  vertex 0.014988569 -0.012727976 -0.020821353
 endloop
endfacet
facet normal 0.63439345 0.0019771087 0.77300775
 outer loop
  vertex 0.014988569 -0.012727976 -0.020821353
  vertex 0.014988569 0.23789221 -0.02146236
  vertex 0.012058263 0.23789836 -0.019057527
 endloop
endfacet
facet normal 0.63439345 0.001977109 0.7730078
 outer loop
  vertex 0.014988569 -0.012727976 -0.020821353
  vertex 0.012058263 0.23789836 -0.019057527
  vertex 0.012058263 -0.012721822 -0.01841652
 endloop
endfacet
facet normal 0.4713966 0.002255668 0.88191843
 outer loop
  vertex 0.012058263 -0.012721822 -0.01841652
  vertex 0.012058263 0.23789836 -0.019057527
  vertex 0.008715101 0.23790292 -0.017270576
 endloop
endfacet
facet normal 0.4713966 0.002255668 0.88191843
 outer loop
  vertex 0.012058263 -0.012721822 -0.01841652
  vertex 0.008715101 0.23790292 -0.017270576
  vertex 0.008715101 -0.012717262 -0.01662957
 endloop
endfacet
facet normal 0.29028448 0.0024475423 0.9569372
 outer loop
  vertex 0.008715101 -0.012717262 -0.01662957
  vertex 0.008715101 0.23790292 -0.017270576
  vertex 0.005087558 0.23790574 -0.016170178
 endloop
endfacet
facet normal 0.29028445 0.0024475423 0.9569372
 outer loop
  vertex 0.008715101 -0.012717262 -0.01662957
  vertex 0.005087558 0.23790574 -0.016170178
  vertex 0.005087558 -0.012714446 -0.015529171
 endloop
endfacet
facet normal 0.09801743 0.0025453586 0.99518144
 outer loop
  vertex 0.005087558 -0.012714446 -0.015529171
  vertex 0.005087558 0.23790574 -0.016170178
  vertex 0.0013150405 0.2379067 -0.015798617
 endloop
endfacet
facet normal 0.09801743 0.0025453586 0.99518144
 outer loop
  vertex 0.005087558 -0.012714446 -0.015529171
  vertex 0.0013150405 0.2379067 -0.015798617
  vertex 0.0013150405 -0.012713492 -0.01515761
 endloop
endfacet
facet normal -0.098017424 0.0025453586 0.99518144
 outer loop
  vertex 0.0013150405 -0.012713492 -0.01515761
  vertex 0.0013150405 0.2379067 -0.015798617
  vertex -0.0024574774 0.23790574 -0.016170178
 endloop
endfacet
facet normal -0.09801742 0.0025453586 0.99518144
 outer loop
  vertex 0.0013150405 -0.012713492 -0.01515761
  vertex -0.0024574774 0.23790574 -0.016170178
  vertex -0.0024574774 -0.012714446 -0.015529171
 endloop
endfacet
facet normal -0.29028448 0.0024475423 0.9569373
 outer loop
  vertex -0.0024574774 -0.012714446 -0.015529171
  vertex -0.0024574774 0.23790574 -0.016170178
  vertex -0.00608502 0.23790292 -0.017270576
 endloop
endfacet
facet normal -0.29028445 0.0024475423 0.9569373
 outer loop
  vertex -0.0024574774 -0.012714446 -0.015529171
  vertex -0.00608502 0.23790292 -0.017270576
  vertex -0.00608502 -0.012717262 -0.01662957
 endloop
endfacet
facet normal -0.47139665 0.0022556677 0.88191843
 outer loop
  vertex -0.00608502 -0.012717262 -0.01662957
  vertex -0.00608502 0.23790292 -0.017270576
  vertex -0.009428182 0.23789836 -0.019057527
 endloop
endfacet
facet normal -0.47139665 0.0022556677 0.88191843
 outer loop
  vertex -0.00608502 -0.012717262 -0.01662957
  vertex -0.009428182 0.23789836 -0.019057527
  vertex -0.009428182 -0.012721822 -0.01841652
 endloop
endfacet
facet normal -0.63439345 0.0019771087 0.77300775
 outer loop
  vertex -0.009428182 -0.012721822 -0.01841652
  vertex -0.009428182 0.23789836 -0.019057527
  vertex -0.012358488 0.23789221 -0.02146236
 endloop
endfacet
facet normal -0.63439345 0.0019771087 0.77300775
 outer loop
  vertex -0.009428182 -0.012721822 -0.01841652
  vertex -0.012358488 0.23789221 -0.02146236
  vertex -0.012358488 -0.012727976 -0.020821353
 endloop
endfacet
facet normal -0.7730105 0.0016225714 0.6343911
 outer loop
  vertex -0.012358488 -0.012727976 -0.020821353
  vertex -0.012358488 0.23789221 -0.02146236
  vertex -0.014763327 0.23788472 -0.024392657
 endloop
endfacet
facet normal -0.7730105 0.0016225714 0.6343911
 outer loop
  vertex -0.012358488 -0.012727976 -0.020821353
  vertex -0.014763327 0.23788472 -0.024392657
  vertex -0.014763327 -0.012735471 -0.02375165
 endloop
endfacet
facet normal -0.8819213 0.0012056794 0.47139516
 outer loop
  vertex -0.014763327 -0.012735471 -0.02375165
  vertex -0.014763327 0.23788472 -0.024392657
  vertex -0.016550284 0.23787616 -0.027735807
 endloop
endfacet
facet normal -0.8819213 0.0012056794 0.47139516
 outer loop
  vertex -0.014763327 -0.012735471 -0.02375165
  vertex -0.016550284 0.23787616 -0.027735807
  vertex -0.016550284 -0.012744024 -0.0270948
 endloop
endfacet
facet normal -0.95694023 0.0007424544 0.29028398
 outer loop
  vertex -0.016550284 -0.012744024 -0.0270948
  vertex -0.016550284 0.23787616 -0.027735807
  vertex -0.017650688 0.2378669 -0.03136334
 endloop
endfacet
facet normal -0.95694023 0.0007424544 0.29028398
 outer loop
  vertex -0.016550284 -0.012744024 -0.0270948
  vertex -0.017650688 0.2378669 -0.03136334
  vertex -0.017650688 -0.012753293 -0.030722331
 endloop
endfacet
facet normal -0.9951847 0.00025069568 0.09801671
 outer loop
  vertex -0.017650688 -0.012753293 -0.030722331
  vertex -0.017650688 0.2378669 -0.03136334
  vertex -0.018022249 0.23785724 -0.035135847
 endloop
endfacet
facet normal -0.99518466 0.0002506974 0.09801681
 outer loop
  vertex -0.017650688 -0.012753293 -0.030722331
  vertex -0.018022249 0.23785724 -0.035135847
  vertex -0.018022249 -0.012762949 -0.034494836
 endloop
endfacet
facet normal -0.99518466 -0.00025069737 -0.098016806
 outer loop
  vertex -0.018022249 -0.012762949 -0.034494836
  vertex -0.018022249 0.23785724 -0.035135847
  vertex -0.017650688 0.23784758 -0.03890835
 endloop
endfacet
facet normal -0.9951848 -0.0002506957 -0.098016724
 outer loop
  vertex -0.018022249 -0.012762949 -0.034494836
  vertex -0.017650688 0.23784758 -0.03890835
  vertex -0.017650688 -0.012772605 -0.038267344
 endloop
endfacet
facet normal -0.95694023 -0.0007424544 -0.29028398
 outer loop
  vertex -0.017650688 -0.012772605 -0.038267344
  vertex -0.017650688 0.23784758 -0.03890835
  vertex -0.016550284 0.23783831 -0.042535882
 endloop
endfacet
facet normal -0.95694023 -0.0007424544 -0.29028398
 outer loop
  vertex -0.017650688 -0.012772605 -0.038267344
  vertex -0.016550284 0.23783831 -0.042535882
  vertex -0.016550284 -0.012781873 -0.041894875
 endloop
endfacet
facet normal -0.8819213 -0.0012056794 -0.47139516
 outer loop
  vertex -0.016550284 -0.012781873 -0.041894875
  vertex -0.016550284 0.23783831 -0.042535882
  vertex -0.014763327 0.23782976 -0.045879032
 endloop
endfacet
facet normal -0.8819213 -0.0012056794 -0.47139516
 outer loop
  vertex -0.016550284 -0.012781873 -0.041894875
  vertex -0.014763327 0.23782976 -0.045879032
  vertex -0.014763327 -0.012790427 -0.045238025
 endloop
endfacet
facet normal -0.77301025 -0.001622572 -0.63439137
 outer loop
  vertex -0.014763327 -0.012790427 -0.045238025
  vertex -0.014763327 0.23782976 -0.045879032
  vertex -0.012358488 0.23782226 -0.048809327
 endloop
endfacet
facet normal -0.7730107 -0.0016225614 -0.6343909
 outer loop
  vertex -0.014763327 -0.012790427 -0.045238025
  vertex -0.012358488 0.23782226 -0.048809327
  vertex -0.012358488 -0.012797922 -0.048168324
 endloop
endfacet
facet normal -0.63439375 -0.0019770965 -0.7730075
 outer loop
  vertex -0.012358488 -0.012797922 -0.048168324
  vertex -0.012358488 0.23782226 -0.048809327
  vertex -0.009428182 0.23781611 -0.051214162
 endloop
endfacet
facet normal -0.63439316 -0.0019771094 -0.773008
 outer loop
  vertex -0.012358488 -0.012797922 -0.048168324
  vertex -0.009428182 0.23781611 -0.051214162
  vertex -0.009428182 -0.012804076 -0.050573155
 endloop
endfacet
facet normal -0.47139665 -0.0022556677 -0.88191843
 outer loop
  vertex -0.009428182 -0.012804076 -0.050573155
  vertex -0.009428182 0.23781611 -0.051214162
  vertex -0.00608502 0.23781155 -0.053001113
 endloop
endfacet
facet normal -0.47139665 -0.0022556677 -0.88191843
 outer loop
  vertex -0.009428182 -0.012804076 -0.050573155
  vertex -0.00608502 0.23781155 -0.053001113
  vertex -0.00608502 -0.012808636 -0.052360106
 endloop
endfacet
facet normal -1.066173e-06 0.9999968 -0.00255584
 outer loop
  vertex 0.008715101 0.23781155 -0.053001113
  vertex 0.005087558 0.23780873 -0.05410151
  vertex 0.0013150405 0.23780778 -0.054473072
 endloop
endfacet
facet normal 1.0661729e-06 0.9999968 -0.00255584
 outer loop
  vertex 0.0013150405 0.23780778 -0.054473072
  vertex -0.0024574774 0.23780873 -0.05410151
  vertex -0.00608502 0.23781155 -0.053001113
 endloop
endfacet
facet normal -1.1328087e-05 0.99999666 -0.0025728808
 outer loop
  vertex -0.00608502 0.23781155 -0.053001113
  vertex -0.009428182 0.23781611 -0.051214162
  vertex -0.012358488 0.23782226 -0.048809327
 endloop
endfacet
facet normal -2.0447392e-06 0.9999968 -0.0025595296
 outer loop
  vertex -0.012358488 0.23782226 -0.048809327
  vertex -0.014763327 0.23782976 -0.045879032
  vertex -0.016550284 0.23783831 -0.042535882
 endloop
endfacet
facet normal -2.201879e-05 0.9999968 -0.0025617203
 outer loop
  vertex -0.016550284 0.23783831 -0.042535882
  vertex -0.017650688 0.23784758 -0.03890835
  vertex -0.018022249 0.23785724 -0.035135847
 endloop
endfacet
facet normal 2.2006085e-05 0.9999968 -0.0025617166
 outer loop
  vertex -0.018022249 0.23785724 -0.035135847
  vertex -0.017650688 0.2378669 -0.03136334
  vertex -0.016550284 0.23787616 -0.027735807
 endloop
endfacet
facet normal 2.0504442e-06 0.9999968 -0.0025595324
 outer loop
  vertex -0.016550284 0.23787616 -0.027735807
  vertex -0.014763327 0.23788472 -0.024392657
  vertex -0.012358488 0.23789221 -0.02146236
 endloop
endfacet
facet normal 1.1331281e-05 0.99999666 -0.0025728866
 outer loop
  vertex -0.012358488 0.23789221 -0.02146236
  vertex -0.009428182 0.23789836 -0.019057527
  vertex -0.00608502 0.23790292 -0.017270576
 endloop
endfacet
facet normal -1.0661729e-06 0.9999968 -0.00255584
 outer loop
  vertex -0.00608502 0.23790292 -0.017270576
  vertex -0.0024574774 0.23790574 -0.016170178
  vertex 0.0013150405 0.2379067 -0.015798617
 endloop
endfacet
facet normal 1.066173e-06 0.9999968 -0.00255584
 outer loop
  vertex 0.0013150405 0.2379067 -0.015798617
  vertex 0.005087558 0.23790574 -0.016170178
  vertex 0.008715101 0.23790292 -0.017270576
 endloop
endfacet
facet normal -1.13312735e-05 0.99999666 -0.0025728862
 outer loop
  vertex 0.008715101 0.23790292 -0.017270576
  vertex 0.012058263 0.23789836 -0.019057527
  vertex 0.014988569 0.23789221 -0.02146236
 endloop
endfacet
facet normal -2.0504442e-06 0.9999968 -0.0025595324
 outer loop
  vertex 0.014988569 0.23789221 -0.02146236
  vertex 0.017393408 0.23788472 -0.024392657
  vertex 0.019180365 0.23787616 -0.027735807
 endloop
endfacet
facet normal -2.2006085e-05 0.9999968 -0.0025617166
 outer loop
  vertex 0.019180365 0.23787616 -0.027735807
  vertex 0.02028077 0.2378669 -0.03136334
  vertex 0.02065233 0.23785724 -0.035135847
 endloop
endfacet
facet normal 2.201879e-05 0.9999968 -0.0025617203
 outer loop
  vertex 0.02065233 0.23785724 -0.035135847
  vertex 0.02028077 0.23784758 -0.03890835
  vertex 0.019180365 0.23783831 -0.042535882
 endloop
endfacet
facet normal 2.0447392e-06 0.9999968 -0.0025595296
 outer loop
  vertex 0.019180365 0.23783831 -0.042535882
  vertex 0.017393408 0.23782976 -0.045879032
  vertex 0.014988569 0.23782226 -0.048809327
 endloop
endfacet
facet normal 1.1328079e-05 0.99999666 -0.0025728804
 outer loop
  vertex 0.014988569 0.23782226 -0.048809327
  vertex 0.012058263 0.23781611 -0.051214162
  vertex 0.008715101 0.23781155 -0.053001113
 endloop
endfacet
facet normal 0 0.9999967 -0.0025612002
 outer loop
  vertex 0.008715101 0.23781155 -0.053001113
  vertex 0.0013150405 0.23780778 -0.054473072
  vertex -0.00608502 0.23781155 -0.053001113
 endloop
endfacet
facet normal -2.6996127e-06 0.9999967 -0.0025599678
 outer loop
  vertex -0.00608502 0.23781155 -0.053001113
  vertex -0.012358488 0.23782226 -0.048809327
  vertex -0.016550284 0.23783831 -0.042535882
 endloop
endfacet
facet normal 3.2615757e-09 0.9999967 -0.00255734
 outer loop
  vertex -0.016550284 0.23783831 -0.042535882
  vertex -0.018022249 0.23785724 -0.035135847
  vertex -0.016550284 0.23787616 -0.027735807
 endloop
endfacet
facet normal 2.6973269e-06 0.9999967 -0.0025599652
 outer loop
  vertex -0.016550284 0.23787616 -0.027735807
  vertex -0.012358488 0.23789221 -0.02146236
  vertex -0.00608502 0.23790292 -0.017270576
 endloop
endfacet
facet normal 0 0.9999967 -0.0025612002
 outer loop
  vertex -0.00608502 0.23790292 -0.017270576
  vertex 0.0013150405 0.2379067 -0.015798617
  vertex 0.008715101 0.23790292 -0.017270576
 endloop
endfacet
facet normal -2.6973264e-06 0.9999967 -0.0025599652
 outer loop
  vertex 0.008715101 0.23790292 -0.017270576
  vertex 0.014988569 0.23789221 -0.02146236
  vertex 0.019180365 0.23787616 -0.027735807
 endloop
endfacet
facet normal -3.2615757e-09 0.9999967 -0.00255734
 outer loop
  vertex 0.019180365 0.23787616 -0.027735807
  vertex 0.02065233 0.23785724 -0.035135847
  vertex 0.019180365 0.23783831 -0.042535882
 endloop
endfacet
facet normal 2.6996122e-06 0.9999967 -0.0025599676
 outer loop
  vertex 0.019180365 0.23783831 -0.042535882
  vertex 0.014988569 0.23782226 -0.048809327
  vertex 0.008715101 0.23781155 -0.053001113
 endloop
endfacet
facet normal 0 0.9999967 -0.002557268
 outer loop
  vertex 0.008715101 0.23781155 -0.053001113
  vertex -0.00608502 0.23781155 -0.053001113
  vertex -0.016550284 0.23783831 -0.042535882
 endloop
endfacet
facet normal 7.211526e-08 0.9999967 -0.00255734
 outer loop
  vertex -0.016550284 0.23783831 -0.042535882
  vertex -0.016550284 0.23787616 -0.027735807
  vertex -0.00608502 0.23790292 -0.017270576
 endloop
endfacet
facet normal 0 0.9999967 -0.002557268
 outer loop
  vertex -0.00608502 0.23790292 -0.017270576
  vertex 0.008715101 0.23790292 -0.017270576
  vertex 0.019180365 0.23787616 -0.027735807
 endloop
endfacet
facet normal 7.211526e-08 0.9999967 -0.00255734
 outer loop
  vertex 0.019180365 0.23787616 -0.027735807
  vertex 0.019180365 0.23783831 -0.042535882
  vertex 0.008715101 0.23781155 -0.053001113
 endloop
endfacet
facet normal -1.4897558e-08 0.9999967 -0.0025573038
 outer loop
  vertex 0.008715101 0.23781155 -0.053001113
  vertex -0.016550284 0.23783831 -0.042535882
  vertex -0.00608502 0.23790292 -0.017270576
 endloop
endfacet
facet normal -1.4897558e-08 0.9999967 -0.0025573038
 outer loop
  vertex -0.00608502 0.23790292 -0.017270576
  vertex 0.019180365 0.23787616 -0.027735807
  vertex 0.008715101 0.23781155 -0.053001113
 endloop
endfacet
facet normal -0.29028448 -0.0024475423 -0.9569373
 outer loop
  vertex -0.00608502 -0.012808636 -0.052360106
  vertex -0.00608502 0.23781155 -0.053001113
  vertex -0.0024574774 0.23780873 -0.05410151
 endloop
endfacet
facet normal -0.29028445 -0.0024475423 -0.9569373
 outer loop
  vertex -0.00608502 -0.012808636 -0.052360106
  vertex -0.0024574774 0.23780873 -0.05410151
  vertex -0.0024574774 -0.012811452 -0.053460505
 endloop
endfacet
facet normal -0.098017424 -0.0025453586 -0.99518144
 outer loop
  vertex -0.0024574774 -0.012811452 -0.053460505
  vertex -0.0024574774 0.23780873 -0.05410151
  vertex 0.0013150405 0.23780778 -0.054473072
 endloop
endfacet
facet normal -0.09801742 -0.0025453586 -0.99518144
 outer loop
  vertex -0.0024574774 -0.012811452 -0.053460505
  vertex 0.0013150405 0.23780778 -0.054473072
  vertex 0.0013150405 -0.012812406 -0.053832065
 endloop
endfacet
facet normal 0 -0.99999666 0.0025666647
 outer loop
  vertex -0.0024574774 -0.012811452 -0.053460505
  vertex 0.0013150405 -0.012812406 -0.053832065
  vertex 0.005087558 -0.012811452 -0.053460505
 endloop
endfacet
facet normal 5.3779777e-06 -0.9999968 0.0025416268
 outer loop
  vertex 0.005087558 -0.012811452 -0.053460505
  vertex 0.008715101 -0.012808636 -0.052360106
  vertex 0.012058263 -0.012804076 -0.050573155
 endloop
endfacet
facet normal 3.0997348e-06 -0.9999968 0.0025553051
 outer loop
  vertex 0.012058263 -0.012804076 -0.050573155
  vertex 0.014988569 -0.012797922 -0.048168324
  vertex 0.017393408 -0.012790427 -0.045238025
 endloop
endfacet
facet normal 1.4688953e-05 -0.9999968 0.0025505854
 outer loop
  vertex 0.017393408 -0.012790427 -0.045238025
  vertex 0.019180365 -0.012781873 -0.041894875
  vertex 0.02028077 -0.012772605 -0.038267344
 endloop
endfacet
facet normal -1.2672705e-08 -0.9999968 0.0025595506
 outer loop
  vertex 0.02028077 -0.012772605 -0.038267344
  vertex 0.02065233 -0.012762949 -0.034494836
  vertex 0.02028077 -0.012753293 -0.030722331
 endloop
endfacet
facet normal -1.4688953e-05 -0.9999968 0.0025505854
 outer loop
  vertex 0.02028077 -0.012753293 -0.030722331
  vertex 0.019180365 -0.012744024 -0.0270948
  vertex 0.017393408 -0.012735471 -0.02375165
 endloop
endfacet
facet normal -3.0902413e-06 -0.9999968 0.0025553142
 outer loop
  vertex 0.017393408 -0.012735471 -0.02375165
  vertex 0.014988569 -0.012727976 -0.020821353
  vertex 0.012058263 -0.012721822 -0.01841652
 endloop
endfacet
facet normal -5.3779777e-06 -0.9999968 0.0025416268
 outer loop
  vertex 0.012058263 -0.012721822 -0.01841652
  vertex 0.008715101 -0.012717262 -0.01662957
  vertex 0.005087558 -0.012714446 -0.015529171
 endloop
endfacet
facet normal 0 -0.99999666 0.0025666647
 outer loop
  vertex 0.005087558 -0.012714446 -0.015529171
  vertex 0.0013150405 -0.012713492 -0.01515761
  vertex -0.0024574774 -0.012714446 -0.015529171
 endloop
endfacet
facet normal 5.3779754e-06 -0.9999968 0.002541626
 outer loop
  vertex -0.0024574774 -0.012714446 -0.015529171
  vertex -0.00608502 -0.012717262 -0.01662957
  vertex -0.009428182 -0.012721822 -0.01841652
 endloop
endfacet
facet normal 3.0902413e-06 -0.9999968 0.0025553142
 outer loop
  vertex -0.009428182 -0.012721822 -0.01841652
  vertex -0.012358488 -0.012727976 -0.020821353
  vertex -0.014763327 -0.012735471 -0.02375165
 endloop
endfacet
facet normal 1.4688953e-05 -0.9999968 0.0025505854
 outer loop
  vertex -0.014763327 -0.012735471 -0.02375165
  vertex -0.016550284 -0.012744024 -0.0270948
  vertex -0.017650688 -0.012753293 -0.030722331
 endloop
endfacet
facet normal 1.2672705e-08 -0.9999968 0.0025595506
 outer loop
  vertex -0.017650688 -0.012753293 -0.030722331
  vertex -0.018022249 -0.012762949 -0.034494836
  vertex -0.017650688 -0.012772605 -0.038267344
 endloop
endfacet
facet normal -1.4688953e-05 -0.9999968 0.0025505854
 outer loop
  vertex -0.017650688 -0.012772605 -0.038267344
  vertex -0.016550284 -0.012781873 -0.041894875
  vertex -0.014763327 -0.012790427 -0.045238025
 endloop
endfacet
facet normal -3.0997348e-06 -0.9999968 0.0025553051
 outer loop
  vertex -0.014763327 -0.012790427 -0.045238025
  vertex -0.012358488 -0.012797922 -0.048168324
  vertex -0.009428182 -0.012804076 -0.050573155
 endloop
endfacet
facet normal -5.3779754e-06 -0.9999968 0.002541626
 outer loop
  vertex -0.009428182 -0.012804076 -0.050573155
  vertex -0.00608502 -0.012808636 -0.052360106
  vertex -0.0024574774 -0.012811452 -0.053460505
 endloop
endfacet
facet normal 0 -0.9999967 0.0025546097
 outer loop
  vertex -0.0024574774 -0.012811452 -0.053460505
  vertex 0.005087558 -0.012811452 -0.053460505
  vertex 0.012058263 -0.012804076 -0.050573155
 endloop
endfacet
facet normal 2.9611892e-06 -0.9999967 0.0025554437
 outer loop
  vertex 0.012058263 -0.012804076 -0.050573155
  vertex 0.017393408 -0.012790427 -0.045238025
  vertex 0.02028077 -0.012772605 -0.038267344
 endloop
endfacet
facet normal 6.9549887e-06 -0.9999967 0.0025595506
 outer loop
  vertex 0.02028077 -0.012772605 -0.038267344
  vertex 0.02028077 -0.012753293 -0.030722331
  vertex 0.017393408 -0.012735471 -0.02375165
 endloop
endfacet
facet normal 2.683299e-06 -0.9999967 0.0025610875
 outer loop
  vertex 0.017393408 -0.012735471 -0.02375165
  vertex 0.012058263 -0.012721822 -0.01841652
  vertex 0.005087558 -0.012714446 -0.015529171
 endloop
endfacet
facet normal 0 -0.9999967 0.0025546097
 outer loop
  vertex 0.005087558 -0.012714446 -0.015529171
  vertex -0.0024574774 -0.012714446 -0.015529171
  vertex -0.009428182 -0.012721822 -0.01841652
 endloop
endfacet
facet normal 2.9611892e-06 -0.9999967 0.0025554437
 outer loop
  vertex -0.009428182 -0.012721822 -0.01841652
  vertex -0.014763327 -0.012735471 -0.02375165
  vertex -0.017650688 -0.012753293 -0.030722331
 endloop
endfacet
facet normal 6.9549887e-06 -0.9999967 0.0025595506
 outer loop
  vertex -0.017650688 -0.012753293 -0.030722331
  vertex -0.017650688 -0.012772605 -0.038267344
  vertex -0.014763327 -0.012790427 -0.045238025
 endloop
endfacet
facet normal 2.683299e-06 -0.9999967 0.0025610875
 outer loop
  vertex -0.014763327 -0.012790427 -0.045238025
  vertex -0.009428182 -0.012804076 -0.050573155
  vertex -0.0024574774 -0.012811452 -0.053460505
 endloop
endfacet
facet normal -6.451839e-07 -0.9999967 0.0025578528
 outer loop
  vertex -0.0024574774 -0.012811452 -0.053460505
  vertex 0.012058263 -0.012804076 -0.050573155
  vertex 0.02028077 -0.012772605 -0.038267344
 endloop
endfacet
facet normal 8.4428075e-07 -0.9999967 0.0025583347
 outer loop
  vertex 0.02028077 -0.012772605 -0.038267344
  vertex 0.017393408 -0.012735471 -0.02375165
  vertex 0.005087558 -0.012714446 -0.015529171
 endloop
endfacet
facet normal -6.451839e-07 -0.9999967 0.0025578528
 outer loop
  vertex 0.005087558 -0.012714446 -0.015529171
  vertex -0.009428182 -0.012721822 -0.01841652
  vertex -0.017650688 -0.012753293 -0.030722331
 endloop
endfacet
facet normal 8.4428075e-07 -0.9999967 0.0025583347
 outer loop
  vertex -0.017650688 -0.012753293 -0.030722331
  vertex -0.014763327 -0.012790427 -0.045238025
  vertex -0.0024574774 -0.012811452 -0.053460505
 endloop
endfacet
facet normal -4.081627e-07 -0.9999967 0.0025574984
 outer loop
  vertex -0.0024574774 -0.012811452 -0.053460505
  vertex 0.02028077 -0.012772605 -0.038267344
  vertex 0.005087558 -0.012714446 -0.015529171
 endloop
endfacet
facet normal -4.081627e-07 -0.9999967 0.0025574984
 outer loop
  vertex 0.005087558 -0.012714446 -0.015529171
  vertex -0.017650688 -0.012753293 -0.030722331
  vertex -0.0024574774 -0.012811452 -0.053460505
 endloop
endfacet
endsolid 
