solid 
facet normal 0.09802422 -0.0025454678 -0.99518085
 outer loop
  vertex -0.0081144245 0.2804362 -0.03787198
  vertex -0.0081144245 0.29043615 -0.037897557
  vertex -0.007813371 0.2904362 -0.037867904
 endloop
endfacet
facet normal 0.09801201 -0.0025451002 -0.9951819
 outer loop
  vertex -0.0081144245 0.2804362 -0.03787198
  vertex -0.007813371 0.2904362 -0.037867904
  vertex -0.007813371 0.28043625 -0.03784233
 endloop
endfacet
facet normal 0.29028085 -0.0024476517 -0.9569384
 outer loop
  vertex -0.007523887 0.2804365 -0.037754513
  vertex -0.007523887 0.29043645 -0.03778009
  vertex -0.0072344025 0.29043669 -0.03769228
 endloop
endfacet
facet normal 0.29028064 -0.0024476445 -0.95693845
 outer loop
  vertex -0.007523887 0.2804365 -0.037754513
  vertex -0.0072344025 0.29043669 -0.03769228
  vertex -0.0072344025 0.2804367 -0.0376667
 endloop
endfacet
facet normal 0.47139323 -0.002255442 -0.8819202
 outer loop
  vertex -0.006967612 0.28043708 -0.0375241
  vertex -0.006967612 0.29043704 -0.037549675
  vertex -0.006700822 0.2904374 -0.037407074
 endloop
endfacet
facet normal 0.47140285 -0.0022557576 -0.88191515
 outer loop
  vertex -0.006967612 0.28043708 -0.0375241
  vertex -0.006700822 0.2904374 -0.037407074
  vertex -0.006700822 0.28043744 -0.037381496
 endloop
endfacet
facet normal 0.6343979 -0.0019771855 -0.7730042
 outer loop
  vertex -0.006466978 0.28043792 -0.037189588
  vertex -0.006466978 0.29043788 -0.037215166
  vertex -0.006233135 0.29043838 -0.037023254
 endloop
endfacet
facet normal 0.6343979 -0.0019771855 -0.7730042
 outer loop
  vertex -0.006466978 0.28043792 -0.037189588
  vertex -0.006233135 0.29043838 -0.037023254
  vertex -0.006233135 0.28043842 -0.036997676
 endloop
endfacet
facet normal 0.7730074 -0.0016224155 -0.63439494
 outer loop
  vertex -0.006041224 0.28043902 -0.036763836
  vertex -0.006041224 0.29043898 -0.03678941
  vertex -0.005849314 0.29043958 -0.03655557
 endloop
endfacet
facet normal 0.77301234 -0.0016226362 -0.63438886
 outer loop
  vertex -0.006041224 0.28043902 -0.036763836
  vertex -0.005849314 0.29043958 -0.03655557
  vertex -0.005849314 0.28043962 -0.03652999
 endloop
endfacet
facet normal 0.8819222 -0.0012057277 -0.47139353
 outer loop
  vertex -0.0057067117 0.2804403 -0.0362632
  vertex -0.0057067117 0.29044026 -0.03628878
  vertex -0.0055641094 0.29044095 -0.03602199
 endloop
endfacet
facet normal 0.8819194 -0.0012055652 -0.47139862
 outer loop
  vertex -0.0057067117 0.2804403 -0.0362632
  vertex -0.0055641094 0.29044095 -0.03602199
  vertex -0.0055641094 0.280441 -0.035996415
 endloop
endfacet
facet normal 0.9569405 -0.0007424826 -0.29028323
 outer loop
  vertex -0.005476295 0.2804417 -0.03570693
  vertex -0.005476295 0.2904417 -0.035732508
  vertex -0.0053884806 0.29044244 -0.035443023
 endloop
endfacet
facet normal 0.9569404 -0.00074248266 -0.29028326
 outer loop
  vertex -0.005476295 0.2804417 -0.03570693
  vertex -0.0053884806 0.29044244 -0.035443023
  vertex -0.0053884806 0.28044245 -0.035417445
 endloop
endfacet
facet normal 0.9951847 -0.0002507057 -0.09801636
 outer loop
  vertex -0.0053588296 0.28044322 -0.035116393
  vertex -0.0053588296 0.29044318 -0.03514197
  vertex -0.0053291786 0.29044396 -0.03484092
 endloop
endfacet
facet normal 0.9951847 -0.0002507057 -0.09801636
 outer loop
  vertex -0.0053588296 0.28044322 -0.035116393
  vertex -0.0053291786 0.29044396 -0.03484092
  vertex -0.0053291786 0.280444 -0.03481534
 endloop
endfacet
facet normal 0.99518484 0.00025070264 0.09801516
 outer loop
  vertex -0.0053588296 0.28044477 -0.03451429
  vertex -0.0053588296 0.29044473 -0.034539867
  vertex -0.0053884806 0.2904455 -0.03423881
 endloop
endfacet
facet normal 0.9951847 0.00025066917 0.09801636
 outer loop
  vertex -0.0053588296 0.28044477 -0.03451429
  vertex -0.0053884806 0.2904455 -0.03423881
  vertex -0.0053884806 0.28044555 -0.034213237
 endloop
endfacet
facet normal 0.95694053 0.0007424849 0.29028326
 outer loop
  vertex -0.005476295 0.2804463 -0.033923753
  vertex -0.005476295 0.29044625 -0.03394933
  vertex -0.0055641094 0.290447 -0.033659846
 endloop
endfacet
facet normal 0.9569404 0.00074248284 0.29028332
 outer loop
  vertex -0.005476295 0.2804463 -0.033923753
  vertex -0.0055641094 0.290447 -0.033659846
  vertex -0.0055641094 0.280447 -0.033634268
 endloop
endfacet
facet normal 0.8819194 0.0012055652 0.47139862
 outer loop
  vertex -0.0057067117 0.2804477 -0.03336748
  vertex -0.0057067117 0.29044765 -0.033393055
  vertex -0.005849314 0.29044834 -0.03312627
 endloop
endfacet
facet normal 0.8819222 0.0012057277 0.47139353
 outer loop
  vertex -0.0057067117 0.2804477 -0.03336748
  vertex -0.005849314 0.29044834 -0.03312627
  vertex -0.005849314 0.28044838 -0.03310069
 endloop
endfacet
facet normal 0.77301174 0.0016226384 0.63438976
 outer loop
  vertex -0.006041224 0.28044897 -0.032866847
  vertex -0.006041224 0.29044893 -0.032892425
  vertex -0.006233135 0.29044956 -0.03265858
 endloop
endfacet
facet normal 0.7730066 0.0016224128 0.6343958
 outer loop
  vertex -0.006041224 0.28044897 -0.032866847
  vertex -0.006233135 0.29044956 -0.03265858
  vertex -0.006233135 0.28044957 -0.032633007
 endloop
endfacet
facet normal 0.63439703 0.0019771873 0.77300483
 outer loop
  vertex -0.006466978 0.28045008 -0.032441095
  vertex -0.006466978 0.29045004 -0.032466672
  vertex -0.006700822 0.2904505 -0.03227476
 endloop
endfacet
facet normal 0.6343897 0.0019769152 0.7730109
 outer loop
  vertex -0.006466978 0.28045008 -0.032441095
  vertex -0.006700822 0.2904505 -0.03227476
  vertex -0.006700822 0.28045055 -0.032249186
 endloop
endfacet
facet normal 0.4713926 0.0022557648 0.8819205
 outer loop
  vertex -0.006967612 0.2804509 -0.032106582
  vertex -0.006967612 0.2904509 -0.03213216
  vertex -0.0072344025 0.29045126 -0.03198956
 endloop
endfacet
facet normal 0.4713928 0.0022557713 0.88192046
 outer loop
  vertex -0.006967612 0.2804509 -0.032106582
  vertex -0.0072344025 0.29045126 -0.03198956
  vertex -0.0072344025 0.2804513 -0.03196398
 endloop
endfacet
facet normal 0.29028127 0.0024472948 0.95693827
 outer loop
  vertex -0.007523887 0.2804515 -0.03187617
  vertex -0.007523887 0.29045147 -0.031901743
  vertex -0.007813371 0.2904517 -0.03181393
 endloop
endfacet
facet normal 0.29029256 0.0024476424 0.9569348
 outer loop
  vertex -0.007523887 0.2804515 -0.03187617
  vertex -0.007813371 0.2904517 -0.03181393
  vertex -0.007813371 0.28045174 -0.031788353
 endloop
endfacet
facet normal 0.09802421 0.0025454601 0.9951808
 outer loop
  vertex -0.0081144245 0.2804518 -0.031758703
  vertex -0.0081144245 0.2904518 -0.03178428
  vertex -0.008415478 0.29045185 -0.031754628
 endloop
endfacet
facet normal 0.098024465 0.0025454676 0.9951807
 outer loop
  vertex -0.0081144245 0.2804518 -0.031758703
  vertex -0.008415478 0.29045185 -0.031754628
  vertex -0.008415478 0.2804519 -0.03172905
 endloop
endfacet
facet normal -0.09801227 0.0025454632 0.995182
 outer loop
  vertex -0.008716532 0.2804518 -0.031758703
  vertex -0.008716532 0.2904518 -0.03178428
  vertex -0.009017586 0.2904517 -0.03181393
 endloop
endfacet
facet normal -0.09801202 0.0025454706 0.9951819
 outer loop
  vertex -0.008716532 0.2804518 -0.031758703
  vertex -0.009017586 0.2904517 -0.03181393
  vertex -0.009017586 0.28045174 -0.031788353
 endloop
endfacet
facet normal -0.2902915 0.0024472869 0.95693517
 outer loop
  vertex -0.00930707 0.2804515 -0.03187617
  vertex -0.00930707 0.29045147 -0.031901743
  vertex -0.009596555 0.29045126 -0.03198956
 endloop
endfacet
facet normal -0.2902802 0.002447652 0.95693856
 outer loop
  vertex -0.00930707 0.2804515 -0.03187617
  vertex -0.009596555 0.29045126 -0.03198956
  vertex -0.009596555 0.2804513 -0.03196398
 endloop
endfacet
facet normal -0.47139284 0.0022557646 0.88192046
 outer loop
  vertex -0.009863344 0.2804509 -0.032106582
  vertex -0.009863344 0.2904509 -0.03213216
  vertex -0.010130134 0.2904505 -0.03227476
 endloop
endfacet
facet normal -0.4714022 0.00225543 0.88191545
 outer loop
  vertex -0.009863344 0.2804509 -0.032106582
  vertex -0.010130134 0.2904505 -0.03227476
  vertex -0.010130134 0.28045055 -0.032249186
 endloop
endfacet
facet normal -0.6343912 0.0019772 0.77300966
 outer loop
  vertex -0.010363978 0.28045008 -0.032441095
  vertex -0.010363978 0.29045004 -0.032466672
  vertex -0.010597821 0.29044956 -0.03265858
 endloop
endfacet
facet normal -0.63439864 0.00197689 0.7730035
 outer loop
  vertex -0.010363978 0.28045008 -0.032441095
  vertex -0.010597821 0.29044956 -0.03265858
  vertex -0.010597821 0.28044957 -0.032633007
 endloop
endfacet
facet normal -0.77301234 0.0016226362 0.63438886
 outer loop
  vertex -0.010789732 0.28044897 -0.032866847
  vertex -0.010789732 0.29044893 -0.032892425
  vertex -0.010981643 0.29044834 -0.03312627
 endloop
endfacet
facet normal -0.77301234 0.0016226362 0.63438886
 outer loop
  vertex -0.010789732 0.28044897 -0.032866847
  vertex -0.010981643 0.29044834 -0.03312627
  vertex -0.010981643 0.28044838 -0.03310069
 endloop
endfacet
facet normal -0.8819221 0.0012055524 0.47139362
 outer loop
  vertex -0.011124245 0.2804477 -0.03336748
  vertex -0.011124245 0.29044765 -0.033393055
  vertex -0.011266847 0.290447 -0.033659846
 endloop
endfacet
facet normal -0.88191944 0.0012057371 0.47139862
 outer loop
  vertex -0.011124245 0.2804477 -0.03336748
  vertex -0.011266847 0.290447 -0.033659846
  vertex -0.011266847 0.280447 -0.033634268
 endloop
endfacet
facet normal -0.9569395 0.00074249366 0.2902867
 outer loop
  vertex -0.011354662 0.2804463 -0.033923753
  vertex -0.011354662 0.29044625 -0.03394933
  vertex -0.011442476 0.2904455 -0.03423881
 endloop
endfacet
facet normal -0.95694053 0.0007423768 0.29028326
 outer loop
  vertex -0.011354662 0.2804463 -0.033923753
  vertex -0.011442476 0.2904455 -0.03423881
  vertex -0.011442476 0.28044555 -0.034213237
 endloop
endfacet
facet normal -0.99518466 0.00025070962 0.098017894
 outer loop
  vertex -0.0114721265 0.28044477 -0.03451429
  vertex -0.0114721265 0.29044473 -0.034539867
  vertex -0.011501778 0.29044396 -0.03484092
 endloop
endfacet
facet normal -0.99518466 0.00025070962 0.098017894
 outer loop
  vertex -0.0114721265 0.28044477 -0.03451429
  vertex -0.011501778 0.29044396 -0.03484092
  vertex -0.011501778 0.280444 -0.03481534
 endloop
endfacet
facet normal -0.99518484 -0.00025070185 -0.098014854
 outer loop
  vertex -0.0114721265 0.28044322 -0.035116393
  vertex -0.0114721265 0.29044318 -0.03514197
  vertex -0.011442476 0.29044244 -0.035443023
 endloop
endfacet
facet normal -0.99518496 -0.00025070106 -0.09801484
 outer loop
  vertex -0.0114721265 0.28044322 -0.035116393
  vertex -0.011442476 0.29044244 -0.035443023
  vertex -0.011442476 0.28044245 -0.035417445
 endloop
endfacet
facet normal -0.9569394 -0.00074249133 -0.29028666
 outer loop
  vertex -0.011354662 0.2804417 -0.03570693
  vertex -0.011354662 0.2904417 -0.035732508
  vertex -0.011266847 0.29044095 -0.03602199
 endloop
endfacet
facet normal -0.9569405 -0.00074237696 -0.29028332
 outer loop
  vertex -0.011354662 0.2804417 -0.03570693
  vertex -0.011266847 0.29044095 -0.03602199
  vertex -0.011266847 0.280441 -0.035996415
 endloop
endfacet
facet normal -0.8819222 -0.0012057277 -0.47139353
 outer loop
  vertex -0.011124245 0.2804403 -0.0362632
  vertex -0.011124245 0.29044026 -0.03628878
  vertex -0.010981643 0.29043958 -0.03655557
 endloop
endfacet
facet normal -0.8819222 -0.0012057277 -0.47139353
 outer loop
  vertex -0.011124245 0.2804403 -0.0362632
  vertex -0.010981643 0.29043958 -0.03655557
  vertex -0.010981643 0.28043962 -0.03652999
 endloop
endfacet
facet normal -0.7730108 -0.0016224046 -0.63439065
 outer loop
  vertex -0.010789732 0.28043902 -0.036763836
  vertex -0.010789732 0.29043898 -0.03678941
  vertex -0.010597821 0.29043838 -0.037023254
 endloop
endfacet
facet normal -0.7730059 -0.0016226565 -0.6343968
 outer loop
  vertex -0.010789732 0.28043902 -0.036763836
  vertex -0.010597821 0.29043838 -0.037023254
  vertex -0.010597821 0.28043842 -0.036997676
 endloop
endfacet
facet normal -0.6343897 -0.001977203 -0.7730109
 outer loop
  vertex -0.010363978 0.28043792 -0.037189588
  vertex -0.010363978 0.29043788 -0.037215166
  vertex -0.010130134 0.2904374 -0.037407074
 endloop
endfacet
facet normal -0.6343897 -0.001977203 -0.7730109
 outer loop
  vertex -0.010363978 0.28043792 -0.037189588
  vertex -0.010130134 0.2904374 -0.037407074
  vertex -0.010130134 0.28043744 -0.037381496
 endloop
endfacet
facet normal -0.47140348 -0.0022554281 -0.88191473
 outer loop
  vertex -0.009863344 0.28043708 -0.0375241
  vertex -0.009863344 0.29043704 -0.037549675
  vertex -0.009596555 0.29043669 -0.03769228
 endloop
endfacet
facet normal -0.4713941 -0.0022557627 -0.88191974
 outer loop
  vertex -0.009863344 0.28043708 -0.0375241
  vertex -0.009596555 0.29043669 -0.03769228
  vertex -0.009596555 0.2804367 -0.0376667
 endloop
endfacet
facet normal 0.00010283677 0.99999535 -0.0030540861
 outer loop
  vertex -0.007523887 0.29043645 -0.03778009
  vertex -0.007813371 0.2904362 -0.037867904
  vertex -0.0081144245 0.29043615 -0.037897557
 endloop
endfacet
facet normal 0 0.9999955 -0.003015441
 outer loop
  vertex -0.0081144245 0.29043615 -0.037897557
  vertex -0.008415478 0.29043606 -0.037927207
  vertex -0.008716532 0.29043615 -0.037897557
 endloop
endfacet
facet normal -0.00010283677 0.99999535 -0.0030540861
 outer loop
  vertex -0.008716532 0.29043615 -0.037897557
  vertex -0.009017586 0.2904362 -0.037867904
  vertex -0.00930707 0.29043645 -0.03778009
 endloop
endfacet
facet normal 0.00014535744 0.9999975 -0.0022358904
 outer loop
  vertex -0.00930707 0.29043645 -0.03778009
  vertex -0.009596555 0.29043669 -0.03769228
  vertex -0.009863344 0.29043704 -0.037549675
 endloop
endfacet
facet normal 3.5545807e-05 0.999997 -0.0024413925
 outer loop
  vertex -0.009863344 0.29043704 -0.037549675
  vertex -0.010130134 0.2904374 -0.037407074
  vertex -0.010363978 0.29043788 -0.037215166
 endloop
endfacet
facet normal 0.0002288759 0.9999972 -0.0023610664
 outer loop
  vertex -0.010363978 0.29043788 -0.037215166
  vertex -0.010597821 0.29043838 -0.037023254
  vertex -0.010789732 0.29043898 -0.03678941
 endloop
endfacet
facet normal -7.097107e-05 0.9999966 -0.0026071842
 outer loop
  vertex -0.010789732 0.29043898 -0.03678941
  vertex -0.010981643 0.29043958 -0.03655557
  vertex -0.011124245 0.29044026 -0.03628878
 endloop
endfacet
facet normal -1.9520821e-05 0.9999966 -0.0025796837
 outer loop
  vertex -0.011124245 0.29044026 -0.03628878
  vertex -0.011266847 0.29044095 -0.03602199
  vertex -0.011354662 0.2904417 -0.035732508
 endloop
endfacet
facet normal 0.00048271587 0.9999969 -0.002427299
 outer loop
  vertex -0.011354662 0.2904417 -0.035732508
  vertex -0.011442476 0.29044244 -0.035443023
  vertex -0.0114721265 0.29044318 -0.03514197
 endloop
endfacet
facet normal 0 0.9999967 -0.0025738347
 outer loop
  vertex -0.0114721265 0.29044318 -0.03514197
  vertex -0.011501778 0.29044396 -0.03484092
  vertex -0.0114721265 0.29044473 -0.034539867
 endloop
endfacet
facet normal 1.9898907e-07 0.9999967 -0.0025738226
 outer loop
  vertex -0.0114721265 0.29044473 -0.034539867
  vertex -0.011442476 0.2904455 -0.03423881
  vertex -0.011354662 0.29044625 -0.03394933
 endloop
endfacet
facet normal 0.0005026133 0.99999624 -0.002726194
 outer loop
  vertex -0.011354662 0.29044625 -0.03394933
  vertex -0.011266847 0.290447 -0.033659846
  vertex -0.011124245 0.29044765 -0.033393055
 endloop
endfacet
facet normal 7.124344e-05 0.9999966 -0.0026073663
 outer loop
  vertex -0.011124245 0.29044765 -0.033393055
  vertex -0.010981643 0.29044834 -0.03312627
  vertex -0.010789732 0.29044893 -0.032892425
 endloop
endfacet
facet normal 0.00048170492 0.9999951 -0.0030716658
 outer loop
  vertex -0.010789732 0.29044893 -0.032892425
  vertex -0.010597821 0.29044956 -0.03265858
  vertex -0.010363978 0.29045004 -0.032466672
 endloop
endfacet
facet normal -0.0003559609 0.9999978 -0.0020509227
 outer loop
  vertex -0.010363978 0.29045004 -0.032466672
  vertex -0.010130134 0.2904505 -0.03227476
  vertex -0.009863344 0.2904509 -0.03213216
 endloop
endfacet
facet normal 9.280536e-05 0.9999964 -0.002681522
 outer loop
  vertex -0.009863344 0.2904509 -0.03213216
  vertex -0.009596555 0.29045126 -0.03198956
  vertex -0.00930707 0.29045147 -0.031901743
 endloop
endfacet
facet normal -4.3803782e-05 0.9999966 -0.0025706722
 outer loop
  vertex -0.00930707 0.29045147 -0.031901743
  vertex -0.009017586 0.2904517 -0.03181393
  vertex -0.008716532 0.2904518 -0.03178428
 endloop
endfacet
facet normal 0 0.99999803 -0.0020100463
 outer loop
  vertex -0.008716532 0.2904518 -0.03178428
  vertex -0.008415478 0.29045185 -0.031754628
  vertex -0.0081144245 0.2904518 -0.03178428
 endloop
endfacet
facet normal 4.3803782e-05 0.9999966 -0.0025706722
 outer loop
  vertex -0.0081144245 0.2904518 -0.03178428
  vertex -0.007813371 0.2904517 -0.03181393
  vertex -0.007523887 0.29045147 -0.031901743
 endloop
endfacet
facet normal -9.280615e-05 0.9999964 -0.0026815243
 outer loop
  vertex -0.007523887 0.29045147 -0.031901743
  vertex -0.0072344025 0.29045126 -0.03198956
  vertex -0.006967612 0.2904509 -0.03213216
 endloop
endfacet
facet normal 0.00035596266 0.9999978 -0.0020509204
 outer loop
  vertex -0.006967612 0.2904509 -0.03213216
  vertex -0.006700822 0.2904505 -0.03227476
  vertex -0.006466978 0.29045004 -0.032466672
 endloop
endfacet
facet normal -0.00048169948 0.9999951 -0.0030716595
 outer loop
  vertex -0.006466978 0.29045004 -0.032466672
  vertex -0.006233135 0.29044956 -0.03265858
  vertex -0.006041224 0.29044893 -0.032892425
 endloop
endfacet
facet normal -7.124344e-05 0.9999966 -0.0026073663
 outer loop
  vertex -0.006041224 0.29044893 -0.032892425
  vertex -0.005849314 0.29044834 -0.03312627
  vertex -0.0057067117 0.29044765 -0.033393055
 endloop
endfacet
facet normal -0.0005026133 0.99999624 -0.002726194
 outer loop
  vertex -0.0057067117 0.29044765 -0.033393055
  vertex -0.0055641094 0.290447 -0.033659846
  vertex -0.005476295 0.29044625 -0.03394933
 endloop
endfacet
facet normal -1.9899058e-07 0.9999967 -0.0025738226
 outer loop
  vertex -0.005476295 0.29044625 -0.03394933
  vertex -0.0053884806 0.2904455 -0.03423881
  vertex -0.0053588296 0.29044473 -0.034539867
 endloop
endfacet
facet normal 0 0.9999967 -0.0025738347
 outer loop
  vertex -0.0053588296 0.29044473 -0.034539867
  vertex -0.0053291786 0.29044396 -0.03484092
  vertex -0.0053588296 0.29044318 -0.03514197
 endloop
endfacet
facet normal -0.00048271954 0.9999969 -0.002427298
 outer loop
  vertex -0.0053588296 0.29044318 -0.03514197
  vertex -0.0053884806 0.29044244 -0.035443023
  vertex -0.005476295 0.2904417 -0.035732508
 endloop
endfacet
facet normal 1.9520821e-05 0.9999966 -0.0025796837
 outer loop
  vertex -0.005476295 0.2904417 -0.035732508
  vertex -0.0055641094 0.29044095 -0.03602199
  vertex -0.0057067117 0.29044026 -0.03628878
 endloop
endfacet
facet normal 7.097107e-05 0.9999966 -0.0026071842
 outer loop
  vertex -0.0057067117 0.29044026 -0.03628878
  vertex -0.005849314 0.29043958 -0.03655557
  vertex -0.006041224 0.29043898 -0.03678941
 endloop
endfacet
facet normal -0.00022887335 0.9999972 -0.0023610687
 outer loop
  vertex -0.006041224 0.29043898 -0.03678941
  vertex -0.006233135 0.29043838 -0.037023254
  vertex -0.006466978 0.29043788 -0.037215166
 endloop
endfacet
facet normal -3.554598e-05 0.999997 -0.002441392
 outer loop
  vertex -0.006466978 0.29043788 -0.037215166
  vertex -0.006700822 0.2904374 -0.037407074
  vertex -0.006967612 0.29043704 -0.037549675
 endloop
endfacet
facet normal -0.00014535863 0.9999975 -0.0022358869
 outer loop
  vertex -0.006967612 0.29043704 -0.037549675
  vertex -0.0072344025 0.29043669 -0.03769228
  vertex -0.007523887 0.29043645 -0.03778009
 endloop
endfacet
facet normal 0 0.9999968 -0.002537097
 outer loop
  vertex -0.007523887 0.29043645 -0.03778009
  vertex -0.0081144245 0.29043615 -0.037897557
  vertex -0.008716532 0.29043615 -0.037897557
 endloop
endfacet
facet normal -1.9025203e-05 0.9999965 -0.0026327418
 outer loop
  vertex -0.008716532 0.29043615 -0.037897557
  vertex -0.00930707 0.29043645 -0.03778009
  vertex -0.009863344 0.29043704 -0.037549675
 endloop
endfacet
facet normal -0.00019199218 0.9999962 -0.0027819292
 outer loop
  vertex -0.009863344 0.29043704 -0.037549675
  vertex -0.010363978 0.29043788 -0.037215166
  vertex -0.010789732 0.29043898 -0.03678941
 endloop
endfacet
facet normal -4.6601006e-05 0.99999666 -0.002590901
 outer loop
  vertex -0.010789732 0.29043898 -0.03678941
  vertex -0.011124245 0.29044026 -0.03628878
  vertex -0.011354662 0.2904417 -0.035732508
 endloop
endfacet
facet normal -0.00025397225 0.99999666 -0.0025738347
 outer loop
  vertex -0.011354662 0.2904417 -0.035732508
  vertex -0.0114721265 0.29044318 -0.03514197
  vertex -0.0114721265 0.29044473 -0.034539867
 endloop
endfacet
facet normal 0.00025906385 0.9999965 -0.0026253134
 outer loop
  vertex -0.0114721265 0.29044473 -0.034539867
  vertex -0.011354662 0.29044625 -0.03394933
  vertex -0.011124245 0.29044765 -0.033393055
 endloop
endfacet
facet normal -9.101068e-05 0.9999969 -0.002498952
 outer loop
  vertex -0.011124245 0.29044765 -0.033393055
  vertex -0.010789732 0.29044893 -0.032892425
  vertex -0.010363978 0.29045004 -0.032466672
 endloop
endfacet
facet normal 0.00013751409 0.99999607 -0.0027894576
 outer loop
  vertex -0.010363978 0.29045004 -0.032466672
  vertex -0.009863344 0.2904509 -0.03213216
  vertex -0.00930707 0.29045147 -0.031901743
 endloop
endfacet
facet normal 0 0.99999607 -0.0027908932
 outer loop
  vertex -0.00930707 0.29045147 -0.031901743
  vertex -0.008716532 0.2904518 -0.03178428
  vertex -0.0081144245 0.2904518 -0.03178428
 endloop
endfacet
facet normal 0.00012758937 0.9999977 -0.0021494455
 outer loop
  vertex -0.0081144245 0.2904518 -0.03178428
  vertex -0.007523887 0.29045147 -0.031901743
  vertex -0.006967612 0.2904509 -0.03213216
 endloop
endfacet
facet normal -1.2702405e-05 0.9999966 -0.002602665
 outer loop
  vertex -0.006967612 0.2904509 -0.03213216
  vertex -0.006466978 0.29045004 -0.032466672
  vertex -0.006041224 0.29044893 -0.032892425
 endloop
endfacet
facet normal 0.0001644169 0.99999696 -0.0024499032
 outer loop
  vertex -0.006041224 0.29044893 -0.032892425
  vertex -0.0057067117 0.29044765 -0.033393055
  vertex -0.005476295 0.29044625 -0.03394933
 endloop
endfacet
facet normal -2.6057674e-07 0.99999666 -0.002573835
 outer loop
  vertex -0.005476295 0.29044625 -0.03394933
  vertex -0.0053588296 0.29044473 -0.034539867
  vertex -0.0053588296 0.29044318 -0.03514197
 endloop
endfacet
facet normal -0.00022424826 0.9999969 -0.002478711
 outer loop
  vertex -0.0053588296 0.29044318 -0.03514197
  vertex -0.005476295 0.2904417 -0.035732508
  vertex -0.0057067117 0.29044026 -0.03628878
 endloop
endfacet
facet normal -9.094479e-05 0.9999969 -0.002498996
 outer loop
  vertex -0.0057067117 0.29044026 -0.03628878
  vertex -0.006041224 0.29043898 -0.03678941
  vertex -0.006466978 0.29043788 -0.037215166
 endloop
endfacet
facet normal -0.000100503836 0.99999726 -0.0023441755
 outer loop
  vertex -0.006466978 0.29043788 -0.037215166
  vertex -0.006967612 0.29043704 -0.037549675
  vertex -0.007523887 0.29043645 -0.03778009
 endloop
endfacet
facet normal 2.4482488e-06 0.9999968 -0.0025619545
 outer loop
  vertex -0.007523887 0.29043645 -0.03778009
  vertex -0.008716532 0.29043615 -0.037897557
  vertex -0.009863344 0.29043704 -0.037549675
 endloop
endfacet
facet normal -2.6323378e-05 0.99999666 -0.0025800625
 outer loop
  vertex -0.009863344 0.29043704 -0.037549675
  vertex -0.010789732 0.29043898 -0.03678941
  vertex -0.011354662 0.2904417 -0.035732508
 endloop
endfacet
facet normal 5.2084224e-06 0.9999968 -0.0025483079
 outer loop
  vertex -0.011354662 0.2904417 -0.035732508
  vertex -0.0114721265 0.29044473 -0.034539867
  vertex -0.011124245 0.29044765 -0.033393055
 endloop
endfacet
facet normal 3.9473005e-05 0.9999966 -0.0026060368
 outer loop
  vertex -0.011124245 0.29044765 -0.033393055
  vertex -0.010363978 0.29045004 -0.032466672
  vertex -0.00930707 0.29045147 -0.031901743
 endloop
endfacet
facet normal -1.6419479e-05 0.9999966 -0.0026241804
 outer loop
  vertex -0.00930707 0.29045147 -0.031901743
  vertex -0.0081144245 0.2904518 -0.03178428
  vertex -0.006967612 0.2904509 -0.03213216
 endloop
endfacet
facet normal 7.222489e-05 0.9999969 -0.002499181
 outer loop
  vertex -0.006967612 0.2904509 -0.03213216
  vertex -0.006041224 0.29044893 -0.032892425
  vertex -0.005476295 0.29044625 -0.03394933
 endloop
endfacet
facet normal 6.737287e-05 0.99999666 -0.0025671734
 outer loop
  vertex -0.005476295 0.29044625 -0.03394933
  vertex -0.0053588296 0.29044318 -0.03514197
  vertex -0.0057067117 0.29044026 -0.03628878
 endloop
endfacet
facet normal 3.944666e-05 0.9999966 -0.0026060047
 outer loop
  vertex -0.0057067117 0.29044026 -0.03628878
  vertex -0.006466978 0.29043788 -0.037215166
  vertex -0.007523887 0.29043645 -0.03778009
 endloop
endfacet
facet normal 3.0380484e-06 0.9999967 -0.002555966
 outer loop
  vertex -0.007523887 0.29043645 -0.03778009
  vertex -0.009863344 0.29043704 -0.037549675
  vertex -0.011354662 0.2904417 -0.035732508
 endloop
endfacet
facet normal -9.057064e-06 0.9999967 -0.0025469025
 outer loop
  vertex -0.011354662 0.2904417 -0.035732508
  vertex -0.011124245 0.29044765 -0.033393055
  vertex -0.00930707 0.29045147 -0.031901743
 endloop
endfacet
facet normal -1.0820577e-05 0.9999967 -0.0025673343
 outer loop
  vertex -0.00930707 0.29045147 -0.031901743
  vertex -0.006967612 0.2904509 -0.03213216
  vertex -0.005476295 0.29044625 -0.03394933
 endloop
endfacet
facet normal 2.3204689e-06 0.9999967 -0.0025607664
 outer loop
  vertex -0.005476295 0.29044625 -0.03394933
  vertex -0.0057067117 0.29044026 -0.03628878
  vertex -0.007523887 0.29043645 -0.03778009
 endloop
endfacet
facet normal 4.118179e-06 0.9999967 -0.0025539452
 outer loop
  vertex -0.007523887 0.29043645 -0.03778009
  vertex -0.011354662 0.2904417 -0.035732508
  vertex -0.00930707 0.29045147 -0.031901743
 endloop
endfacet
facet normal -5.170015e-06 0.9999967 -0.0025567627
 outer loop
  vertex -0.00930707 0.29045147 -0.031901743
  vertex -0.005476295 0.29044625 -0.03394933
  vertex -0.007523887 0.29043645 -0.03778009
 endloop
endfacet
facet normal -0.29028127 -0.0024476512 -0.95693827
 outer loop
  vertex -0.00930707 0.2804365 -0.037754513
  vertex -0.00930707 0.29043645 -0.03778009
  vertex -0.009017586 0.2904362 -0.037867904
 endloop
endfacet
facet normal -0.29029256 -0.002447286 -0.9569348
 outer loop
  vertex -0.00930707 0.2804365 -0.037754513
  vertex -0.009017586 0.2904362 -0.037867904
  vertex -0.009017586 0.28043625 -0.03784233
 endloop
endfacet
facet normal -0.09801225 -0.0025454706 -0.9951819
 outer loop
  vertex -0.008716532 0.2804362 -0.03787198
  vertex -0.008716532 0.29043615 -0.037897557
  vertex -0.008415478 0.29043606 -0.037927207
 endloop
endfacet
facet normal -0.098024465 -0.0025450971 -0.9951807
 outer loop
  vertex -0.008716532 0.2804362 -0.03787198
  vertex -0.008415478 0.29043606 -0.037927207
  vertex -0.008415478 0.2804361 -0.037901632
 endloop
endfacet
facet normal 0 -0.99999803 0.0020100463
 outer loop
  vertex -0.008716532 0.2704362 -0.0378464
  vertex -0.008415478 0.27043614 -0.037876055
  vertex -0.0081144245 0.2704362 -0.0378464
 endloop
endfacet
facet normal 4.3803782e-05 -0.9999966 0.0025706722
 outer loop
  vertex -0.0081144245 0.2704362 -0.0378464
  vertex -0.007813371 0.2704363 -0.03781675
  vertex -0.007523887 0.27043653 -0.03772894
 endloop
endfacet
facet normal -9.280615e-05 -0.9999964 0.0026815243
 outer loop
  vertex -0.007523887 0.27043653 -0.03772894
  vertex -0.0072344025 0.27043673 -0.037641123
  vertex -0.006967612 0.2704371 -0.037498523
 endloop
endfacet
facet normal 0.00035596266 -0.9999978 0.0020509204
 outer loop
  vertex -0.006967612 0.2704371 -0.037498523
  vertex -0.006700822 0.27043748 -0.037355922
  vertex -0.006466978 0.27043796 -0.03716401
 endloop
endfacet
facet normal -0.00048169948 -0.9999951 0.0030716595
 outer loop
  vertex -0.006466978 0.27043796 -0.03716401
  vertex -0.006233135 0.27043843 -0.0369721
  vertex -0.006041224 0.27043906 -0.036738258
 endloop
endfacet
facet normal -7.124344e-05 -0.9999966 0.0026073663
 outer loop
  vertex -0.006041224 0.27043906 -0.036738258
  vertex -0.005849314 0.27043965 -0.036504414
  vertex -0.0057067117 0.27044034 -0.036237627
 endloop
endfacet
facet normal -0.0005026133 -0.99999624 0.002726194
 outer loop
  vertex -0.0057067117 0.27044034 -0.036237627
  vertex -0.0055641094 0.270441 -0.035970837
  vertex -0.005476295 0.27044174 -0.035681352
 endloop
endfacet
facet normal -1.9899058e-07 -0.9999967 0.0025738226
 outer loop
  vertex -0.005476295 0.27044174 -0.035681352
  vertex -0.0053884806 0.2704425 -0.03539187
  vertex -0.0053588296 0.27044326 -0.035090815
 endloop
endfacet
facet normal 0 -0.9999967 0.0025738347
 outer loop
  vertex -0.0053588296 0.27044326 -0.035090815
  vertex -0.0053291786 0.27044404 -0.034789763
  vertex -0.0053588296 0.2704448 -0.03448871
 endloop
endfacet
facet normal -0.00048271954 -0.9999969 0.002427298
 outer loop
  vertex -0.0053588296 0.2704448 -0.03448871
  vertex -0.0053884806 0.27044556 -0.03418766
  vertex -0.005476295 0.2704463 -0.033898175
 endloop
endfacet
facet normal 1.9520821e-05 -0.9999966 0.0025796837
 outer loop
  vertex -0.005476295 0.2704463 -0.033898175
  vertex -0.0055641094 0.27044705 -0.033608694
  vertex -0.0057067117 0.27044773 -0.033341903
 endloop
endfacet
facet normal 7.097107e-05 -0.9999966 0.0026071842
 outer loop
  vertex -0.0057067117 0.27044773 -0.033341903
  vertex -0.005849314 0.27044842 -0.033075113
  vertex -0.006041224 0.270449 -0.032841273
 endloop
endfacet
facet normal -0.00022887335 -0.9999972 0.0023610687
 outer loop
  vertex -0.006041224 0.270449 -0.032841273
  vertex -0.006233135 0.2704496 -0.03260743
  vertex -0.006466978 0.27045012 -0.032415517
 endloop
endfacet
facet normal -3.554598e-05 -0.999997 0.002441392
 outer loop
  vertex -0.006466978 0.27045012 -0.032415517
  vertex -0.006700822 0.2704506 -0.03222361
  vertex -0.006967612 0.27045095 -0.032081008
 endloop
endfacet
facet normal -0.00014535863 -0.9999975 0.0022358869
 outer loop
  vertex -0.006967612 0.27045095 -0.032081008
  vertex -0.0072344025 0.2704513 -0.031938404
  vertex -0.007523887 0.27045155 -0.03185059
 endloop
endfacet
facet normal 0.00010283677 -0.99999535 0.0030540861
 outer loop
  vertex -0.007523887 0.27045155 -0.03185059
  vertex -0.007813371 0.27045178 -0.03176278
  vertex -0.0081144245 0.27045184 -0.031733125
 endloop
endfacet
facet normal 0 -0.9999955 0.003015441
 outer loop
  vertex -0.0081144245 0.27045184 -0.031733125
  vertex -0.008415478 0.27045193 -0.031703476
  vertex -0.008716532 0.27045184 -0.031733125
 endloop
endfacet
facet normal -0.00010283677 -0.99999535 0.0030540861
 outer loop
  vertex -0.008716532 0.27045184 -0.031733125
  vertex -0.009017586 0.27045178 -0.03176278
  vertex -0.00930707 0.27045155 -0.03185059
 endloop
endfacet
facet normal 0.00014535744 -0.9999975 0.0022358904
 outer loop
  vertex -0.00930707 0.27045155 -0.03185059
  vertex -0.009596555 0.2704513 -0.031938404
  vertex -0.009863344 0.27045095 -0.032081008
 endloop
endfacet
facet normal 3.5545807e-05 -0.999997 0.0024413925
 outer loop
  vertex -0.009863344 0.27045095 -0.032081008
  vertex -0.010130134 0.2704506 -0.03222361
  vertex -0.010363978 0.27045012 -0.032415517
 endloop
endfacet
facet normal 0.0002288759 -0.9999972 0.0023610664
 outer loop
  vertex -0.010363978 0.27045012 -0.032415517
  vertex -0.010597821 0.2704496 -0.03260743
  vertex -0.010789732 0.270449 -0.032841273
 endloop
endfacet
facet normal -7.097107e-05 -0.9999966 0.0026071842
 outer loop
  vertex -0.010789732 0.270449 -0.032841273
  vertex -0.010981643 0.27044842 -0.033075113
  vertex -0.011124245 0.27044773 -0.033341903
 endloop
endfacet
facet normal -1.9520821e-05 -0.9999966 0.0025796837
 outer loop
  vertex -0.011124245 0.27044773 -0.033341903
  vertex -0.011266847 0.27044705 -0.033608694
  vertex -0.011354662 0.2704463 -0.033898175
 endloop
endfacet
facet normal 0.00048271587 -0.9999969 0.002427299
 outer loop
  vertex -0.011354662 0.2704463 -0.033898175
  vertex -0.011442476 0.27044556 -0.03418766
  vertex -0.0114721265 0.2704448 -0.03448871
 endloop
endfacet
facet normal 0 -0.9999967 0.0025738347
 outer loop
  vertex -0.0114721265 0.2704448 -0.03448871
  vertex -0.011501778 0.27044404 -0.034789763
  vertex -0.0114721265 0.27044326 -0.035090815
 endloop
endfacet
facet normal 1.9898907e-07 -0.9999967 0.0025738226
 outer loop
  vertex -0.0114721265 0.27044326 -0.035090815
  vertex -0.011442476 0.2704425 -0.03539187
  vertex -0.011354662 0.27044174 -0.035681352
 endloop
endfacet
facet normal 0.0005026133 -0.99999624 0.002726194
 outer loop
  vertex -0.011354662 0.27044174 -0.035681352
  vertex -0.011266847 0.270441 -0.035970837
  vertex -0.011124245 0.27044034 -0.036237627
 endloop
endfacet
facet normal 7.124344e-05 -0.9999966 0.0026073663
 outer loop
  vertex -0.011124245 0.27044034 -0.036237627
  vertex -0.010981643 0.27043965 -0.036504414
  vertex -0.010789732 0.27043906 -0.036738258
 endloop
endfacet
facet normal 0.00048170492 -0.9999951 0.0030716658
 outer loop
  vertex -0.010789732 0.27043906 -0.036738258
  vertex -0.010597821 0.27043843 -0.0369721
  vertex -0.010363978 0.27043796 -0.03716401
 endloop
endfacet
facet normal -0.0003559609 -0.9999978 0.0020509227
 outer loop
  vertex -0.010363978 0.27043796 -0.03716401
  vertex -0.010130134 0.27043748 -0.037355922
  vertex -0.009863344 0.2704371 -0.037498523
 endloop
endfacet
facet normal 9.280536e-05 -0.9999964 0.002681522
 outer loop
  vertex -0.009863344 0.2704371 -0.037498523
  vertex -0.009596555 0.27043673 -0.037641123
  vertex -0.00930707 0.27043653 -0.03772894
 endloop
endfacet
facet normal -4.3803782e-05 -0.9999966 0.0025706722
 outer loop
  vertex -0.00930707 0.27043653 -0.03772894
  vertex -0.009017586 0.2704363 -0.03781675
  vertex -0.008716532 0.2704362 -0.0378464
 endloop
endfacet
facet normal 0 -0.99999607 0.0027908932
 outer loop
  vertex -0.008716532 0.2704362 -0.0378464
  vertex -0.0081144245 0.2704362 -0.0378464
  vertex -0.007523887 0.27043653 -0.03772894
 endloop
endfacet
facet normal -0.00013751358 -0.99999607 0.0027894566
 outer loop
  vertex -0.007523887 0.27043653 -0.03772894
  vertex -0.006967612 0.2704371 -0.037498523
  vertex -0.006466978 0.27043796 -0.03716401
 endloop
endfacet
facet normal 9.101068e-05 -0.9999969 0.002498952
 outer loop
  vertex -0.006466978 0.27043796 -0.03716401
  vertex -0.006041224 0.27043906 -0.036738258
  vertex -0.0057067117 0.27044034 -0.036237627
 endloop
endfacet
facet normal -0.00025906478 -0.9999965 0.0026253138
 outer loop
  vertex -0.0057067117 0.27044034 -0.036237627
  vertex -0.005476295 0.27044174 -0.035681352
  vertex -0.0053588296 0.27044326 -0.035090815
 endloop
endfacet
facet normal 0.00025397126 -0.99999666 0.002573835
 outer loop
  vertex -0.0053588296 0.27044326 -0.035090815
  vertex -0.0053588296 0.2704448 -0.03448871
  vertex -0.005476295 0.2704463 -0.033898175
 endloop
endfacet
facet normal 4.6601006e-05 -0.99999666 0.002590901
 outer loop
  vertex -0.005476295 0.2704463 -0.033898175
  vertex -0.0057067117 0.27044773 -0.033341903
  vertex -0.006041224 0.270449 -0.032841273
 endloop
endfacet
facet normal 0.00019199273 -0.9999962 0.0027819301
 outer loop
  vertex -0.006041224 0.270449 -0.032841273
  vertex -0.006466978 0.27045012 -0.032415517
  vertex -0.006967612 0.27045095 -0.032081008
 endloop
endfacet
facet normal 1.9025218e-05 -0.9999965 0.002632742
 outer loop
  vertex -0.006967612 0.27045095 -0.032081008
  vertex -0.007523887 0.27045155 -0.03185059
  vertex -0.0081144245 0.27045184 -0.031733125
 endloop
endfacet
facet normal 0 -0.9999968 0.002537097
 outer loop
  vertex -0.0081144245 0.27045184 -0.031733125
  vertex -0.008716532 0.27045184 -0.031733125
  vertex -0.00930707 0.27045155 -0.03185059
 endloop
endfacet
facet normal 0.0001005042 -0.9999972 0.0023441745
 outer loop
  vertex -0.00930707 0.27045155 -0.03185059
  vertex -0.009863344 0.27045095 -0.032081008
  vertex -0.010363978 0.27045012 -0.032415517
 endloop
endfacet
facet normal 9.094479e-05 -0.9999969 0.002498996
 outer loop
  vertex -0.010363978 0.27045012 -0.032415517
  vertex -0.010789732 0.270449 -0.032841273
  vertex -0.011124245 0.27044773 -0.033341903
 endloop
endfacet
facet normal 0.00022424746 -0.9999969 0.0024787115
 outer loop
  vertex -0.011124245 0.27044773 -0.033341903
  vertex -0.011354662 0.2704463 -0.033898175
  vertex -0.0114721265 0.2704448 -0.03448871
 endloop
endfacet
facet normal 2.6057774e-07 -0.99999666 0.0025738347
 outer loop
  vertex -0.0114721265 0.2704448 -0.03448871
  vertex -0.0114721265 0.27044326 -0.035090815
  vertex -0.011354662 0.27044174 -0.035681352
 endloop
endfacet
facet normal -0.0001644169 -0.99999696 0.0024499032
 outer loop
  vertex -0.011354662 0.27044174 -0.035681352
  vertex -0.011124245 0.27044034 -0.036237627
  vertex -0.010789732 0.27043906 -0.036738258
 endloop
endfacet
facet normal 1.2702369e-05 -0.9999966 0.0026026648
 outer loop
  vertex -0.010789732 0.27043906 -0.036738258
  vertex -0.010363978 0.27043796 -0.03716401
  vertex -0.009863344 0.2704371 -0.037498523
 endloop
endfacet
facet normal -0.00012758927 -0.9999977 0.002149446
 outer loop
  vertex -0.009863344 0.2704371 -0.037498523
  vertex -0.00930707 0.27043653 -0.03772894
  vertex -0.008716532 0.2704362 -0.0378464
 endloop
endfacet
facet normal 3.1235086e-05 -0.999997 0.0024737522
 outer loop
  vertex -0.008716532 0.2704362 -0.0378464
  vertex -0.007523887 0.27043653 -0.03772894
  vertex -0.006466978 0.27043796 -0.03716401
 endloop
endfacet
facet normal 5.2024952e-05 -0.9999968 0.002530946
 outer loop
  vertex -0.006466978 0.27043796 -0.03716401
  vertex -0.0057067117 0.27044034 -0.036237627
  vertex -0.0053588296 0.27044326 -0.035090815
 endloop
endfacet
facet normal -3.938152e-05 -0.9999968 0.0025449425
 outer loop
  vertex -0.0053588296 0.27044326 -0.035090815
  vertex -0.005476295 0.2704463 -0.033898175
  vertex -0.006041224 0.270449 -0.032841273
 endloop
endfacet
facet normal -1.060513e-05 -0.9999968 0.002535065
 outer loop
  vertex -0.006041224 0.270449 -0.032841273
  vertex -0.006967612 0.27045095 -0.032081008
  vertex -0.0081144245 0.27045184 -0.031733125
 endloop
endfacet
facet normal 5.9065746e-07 -0.9999968 0.0025311
 outer loop
  vertex -0.0081144245 0.27045184 -0.031733125
  vertex -0.00930707 0.27045155 -0.03185059
  vertex -0.010363978 0.27045012 -0.032415517
 endloop
endfacet
facet normal 5.1989347e-05 -0.9999968 0.002530965
 outer loop
  vertex -0.010363978 0.27045012 -0.032415517
  vertex -0.011124245 0.27044773 -0.033341903
  vertex -0.0114721265 0.2704448 -0.03448871
 endloop
endfacet
facet normal 8.261925e-05 -0.99999666 0.0025819468
 outer loop
  vertex -0.0114721265 0.2704448 -0.03448871
  vertex -0.011354662 0.27044174 -0.035681352
  vertex -0.010789732 0.27043906 -0.036738258
 endloop
endfacet
facet normal 8.245291e-06 -0.9999966 0.0025972333
 outer loop
  vertex -0.010789732 0.27043906 -0.036738258
  vertex -0.009863344 0.2704371 -0.037498523
  vertex -0.008716532 0.2704362 -0.0378464
 endloop
endfacet
facet normal 6.5045288e-06 -0.9999967 0.0025552772
 outer loop
  vertex -0.008716532 0.2704362 -0.0378464
  vertex -0.006466978 0.27043796 -0.03716401
  vertex -0.0053588296 0.27044326 -0.035090815
 endloop
endfacet
facet normal 1.2649064e-06 -0.9999967 0.002557272
 outer loop
  vertex -0.0053588296 0.27044326 -0.035090815
  vertex -0.006041224 0.270449 -0.032841273
  vertex -0.0081144245 0.27045184 -0.031733125
 endloop
endfacet
facet normal -9.307259e-06 -0.9999967 0.0025637292
 outer loop
  vertex -0.0081144245 0.27045184 -0.031733125
  vertex -0.010363978 0.27045012 -0.032415517
  vertex -0.0114721265 0.2704448 -0.03448871
 endloop
endfacet
facet normal -1.5900045e-05 -0.9999967 0.0025520606
 outer loop
  vertex -0.0114721265 0.2704448 -0.03448871
  vertex -0.010789732 0.27043906 -0.036738258
  vertex -0.008716532 0.2704362 -0.0378464
 endloop
endfacet
facet normal 3.4177106e-06 -0.9999967 0.0025590388
 outer loop
  vertex -0.008716532 0.2704362 -0.0378464
  vertex -0.0053588296 0.27044326 -0.035090815
  vertex -0.0081144245 0.27045184 -0.031733125
 endloop
endfacet
facet normal -6.2386102e-06 -0.9999967 0.00255999
 outer loop
  vertex -0.0081144245 0.27045184 -0.031733125
  vertex -0.0114721265 0.2704448 -0.03448871
  vertex -0.008716532 0.2704362 -0.0378464
 endloop
endfacet
facet normal -0.09802446 -0.0025454601 -0.9951808
 outer loop
  vertex -0.008716532 0.2704362 -0.0378464
  vertex -0.008716532 0.2804362 -0.03787198
  vertex -0.008415478 0.2804361 -0.037901632
 endloop
endfacet
facet normal -0.09802422 -0.0025454678 -0.99518085
 outer loop
  vertex -0.008716532 0.2704362 -0.0378464
  vertex -0.008415478 0.2804361 -0.037901632
  vertex -0.008415478 0.27043614 -0.037876055
 endloop
endfacet
facet normal -0.09801201 -0.0025454706 -0.9951819
 outer loop
  vertex -0.009017586 0.2704363 -0.03781675
  vertex -0.009017586 0.28043625 -0.03784233
  vertex -0.008716532 0.2804362 -0.03787198
 endloop
endfacet
facet normal -0.098012276 -0.0025454632 -0.995182
 outer loop
  vertex -0.009017586 0.2704363 -0.03781675
  vertex -0.008716532 0.2804362 -0.03787198
  vertex -0.008716532 0.2704362 -0.0378464
 endloop
endfacet
facet normal -0.09802422 -0.0025450971 -0.99518085
 outer loop
  vertex -0.009017586 0.28043625 -0.03784233
  vertex -0.009017586 0.2904362 -0.037867904
  vertex -0.008716532 0.29043615 -0.037897557
 endloop
endfacet
facet normal -0.09801202 -0.0025454706 -0.9951819
 outer loop
  vertex -0.009017586 0.28043625 -0.03784233
  vertex -0.008716532 0.29043615 -0.037897557
  vertex -0.008716532 0.2804362 -0.03787198
 endloop
endfacet
facet normal -0.29029256 -0.002447286 -0.9569348
 outer loop
  vertex -0.00930707 0.27043653 -0.03772894
  vertex -0.00930707 0.2804365 -0.037754513
  vertex -0.009017586 0.28043625 -0.03784233
 endloop
endfacet
facet normal -0.2902813 -0.0024476512 -0.95693827
 outer loop
  vertex -0.00930707 0.27043653 -0.03772894
  vertex -0.009017586 0.28043625 -0.03784233
  vertex -0.009017586 0.2704363 -0.03781675
 endloop
endfacet
facet normal -0.29028016 -0.002447652 -0.95693856
 outer loop
  vertex -0.009596555 0.27043673 -0.037641123
  vertex -0.009596555 0.2804367 -0.0376667
  vertex -0.00930707 0.2804365 -0.037754513
 endloop
endfacet
facet normal -0.2902915 -0.0024472869 -0.95693517
 outer loop
  vertex -0.009596555 0.27043673 -0.037641123
  vertex -0.00930707 0.2804365 -0.037754513
  vertex -0.00930707 0.27043653 -0.03772894
 endloop
endfacet
facet normal -0.2902804 -0.0024476447 -0.9569385
 outer loop
  vertex -0.009596555 0.2804367 -0.0376667
  vertex -0.009596555 0.29043669 -0.03769228
  vertex -0.00930707 0.29043645 -0.03778009
 endloop
endfacet
facet normal -0.2902802 -0.002447652 -0.95693856
 outer loop
  vertex -0.009596555 0.2804367 -0.0376667
  vertex -0.00930707 0.29043645 -0.03778009
  vertex -0.00930707 0.2804365 -0.037754513
 endloop
endfacet
facet normal -0.4713941 -0.0022557627 -0.88191974
 outer loop
  vertex -0.009863344 0.2704371 -0.037498523
  vertex -0.009863344 0.28043708 -0.0375241
  vertex -0.009596555 0.2804367 -0.0376667
 endloop
endfacet
facet normal -0.47139394 -0.00225577 -0.8819199
 outer loop
  vertex -0.009863344 0.2704371 -0.037498523
  vertex -0.009596555 0.2804367 -0.0376667
  vertex -0.009596555 0.27043673 -0.037641123
 endloop
endfacet
facet normal -0.4714022 -0.00225543 -0.88191545
 outer loop
  vertex -0.010130134 0.27043748 -0.037355922
  vertex -0.010130134 0.28043744 -0.037381496
  vertex -0.009863344 0.28043708 -0.0375241
 endloop
endfacet
facet normal -0.47139284 -0.0022557646 -0.88192046
 outer loop
  vertex -0.010130134 0.27043748 -0.037355922
  vertex -0.009863344 0.28043708 -0.0375241
  vertex -0.009863344 0.2704371 -0.037498523
 endloop
endfacet
facet normal -0.4713926 -0.0022557715 -0.8819206
 outer loop
  vertex -0.010130134 0.28043744 -0.037381496
  vertex -0.010130134 0.2904374 -0.037407074
  vertex -0.009863344 0.29043704 -0.037549675
 endloop
endfacet
facet normal -0.4714022 -0.00225543 -0.88191545
 outer loop
  vertex -0.010130134 0.28043744 -0.037381496
  vertex -0.009863344 0.29043704 -0.037549675
  vertex -0.009863344 0.28043708 -0.0375241
 endloop
endfacet
facet normal -0.6343897 -0.001977203 -0.7730109
 outer loop
  vertex -0.010363978 0.27043796 -0.03716401
  vertex -0.010363978 0.28043792 -0.037189588
  vertex -0.010130134 0.28043744 -0.037381496
 endloop
endfacet
facet normal -0.63439703 -0.0019768996 -0.77300483
 outer loop
  vertex -0.010363978 0.27043796 -0.03716401
  vertex -0.010130134 0.28043744 -0.037381496
  vertex -0.010130134 0.27043748 -0.037355922
 endloop
endfacet
facet normal -0.63439864 -0.00197689 -0.7730035
 outer loop
  vertex -0.010597821 0.27043843 -0.0369721
  vertex -0.010597821 0.28043842 -0.036997676
  vertex -0.010363978 0.28043792 -0.037189588
 endloop
endfacet
facet normal -0.6343912 -0.0019772 -0.77300966
 outer loop
  vertex -0.010597821 0.27043843 -0.0369721
  vertex -0.010363978 0.28043792 -0.037189588
  vertex -0.010363978 0.27043796 -0.03716401
 endloop
endfacet
facet normal -0.6343987 -0.001977184 -0.7730035
 outer loop
  vertex -0.010597821 0.28043842 -0.036997676
  vertex -0.010597821 0.29043838 -0.037023254
  vertex -0.010363978 0.29043788 -0.037215166
 endloop
endfacet
facet normal -0.6343987 -0.001977184 -0.7730035
 outer loop
  vertex -0.010597821 0.28043842 -0.036997676
  vertex -0.010363978 0.29043788 -0.037215166
  vertex -0.010363978 0.28043792 -0.037189588
 endloop
endfacet
facet normal -0.7730059 -0.0016226565 -0.6343968
 outer loop
  vertex -0.010789732 0.27043906 -0.036738258
  vertex -0.010789732 0.28043902 -0.036763836
  vertex -0.010597821 0.28043842 -0.036997676
 endloop
endfacet
facet normal -0.77301097 -0.0016223995 -0.6343906
 outer loop
  vertex -0.010789732 0.27043906 -0.036738258
  vertex -0.010597821 0.28043842 -0.036997676
  vertex -0.010597821 0.27043843 -0.0369721
 endloop
endfacet
facet normal -0.77301234 -0.0016226362 -0.63438886
 outer loop
  vertex -0.010981643 0.27043965 -0.036504414
  vertex -0.010981643 0.28043962 -0.03652999
  vertex -0.010789732 0.28043902 -0.036763836
 endloop
endfacet
facet normal -0.77301234 -0.0016226362 -0.63438886
 outer loop
  vertex -0.010981643 0.27043965 -0.036504414
  vertex -0.010789732 0.28043902 -0.036763836
  vertex -0.010789732 0.27043906 -0.036738258
 endloop
endfacet
facet normal -0.7730074 -0.0016226517 -0.63439494
 outer loop
  vertex -0.010981643 0.28043962 -0.03652999
  vertex -0.010981643 0.29043958 -0.03655557
  vertex -0.010789732 0.29043898 -0.03678941
 endloop
endfacet
facet normal -0.77301234 -0.0016224 -0.63438886
 outer loop
  vertex -0.010981643 0.28043962 -0.03652999
  vertex -0.010789732 0.29043898 -0.03678941
  vertex -0.010789732 0.28043902 -0.036763836
 endloop
endfacet
facet normal -0.8819222 -0.0012055521 -0.47139353
 outer loop
  vertex -0.011124245 0.27044034 -0.036237627
  vertex -0.011124245 0.2804403 -0.0362632
  vertex -0.010981643 0.28043962 -0.03652999
 endloop
endfacet
facet normal -0.8819194 -0.0012057407 -0.47139862
 outer loop
  vertex -0.011124245 0.27044034 -0.036237627
  vertex -0.010981643 0.28043962 -0.03652999
  vertex -0.010981643 0.27043965 -0.036504414
 endloop
endfacet
facet normal -0.88191944 -0.0012057372 -0.47139865
 outer loop
  vertex -0.011266847 0.270441 -0.035970837
  vertex -0.011266847 0.280441 -0.035996415
  vertex -0.011124245 0.2804403 -0.0362632
 endloop
endfacet
facet normal -0.8819221 -0.0012055524 -0.47139362
 outer loop
  vertex -0.011266847 0.270441 -0.035970837
  vertex -0.011124245 0.2804403 -0.0362632
  vertex -0.011124245 0.27044034 -0.036237627
 endloop
endfacet
facet normal -0.8819222 -0.0012055521 -0.47139353
 outer loop
  vertex -0.011266847 0.280441 -0.035996415
  vertex -0.011266847 0.29044095 -0.03602199
  vertex -0.011124245 0.29044026 -0.03628878
 endloop
endfacet
facet normal -0.8819194 -0.0012057407 -0.47139862
 outer loop
  vertex -0.011266847 0.280441 -0.035996415
  vertex -0.011124245 0.29044026 -0.03628878
  vertex -0.011124245 0.2804403 -0.0362632
 endloop
endfacet
facet normal -0.9569405 -0.00074248505 -0.29028332
 outer loop
  vertex -0.011354662 0.27044174 -0.035681352
  vertex -0.011354662 0.2804417 -0.03570693
  vertex -0.011266847 0.280441 -0.035996415
 endloop
endfacet
facet normal -0.9569404 -0.00074248266 -0.29028326
 outer loop
  vertex -0.011354662 0.27044174 -0.035681352
  vertex -0.011266847 0.280441 -0.035996415
  vertex -0.011266847 0.270441 -0.035970837
 endloop
endfacet
facet normal -0.95694053 -0.0007423768 -0.29028326
 outer loop
  vertex -0.011442476 0.2704425 -0.03539187
  vertex -0.011442476 0.28044245 -0.035417445
  vertex -0.011354662 0.2804417 -0.03570693
 endloop
endfacet
facet normal -0.9569395 -0.00074249366 -0.2902867
 outer loop
  vertex -0.011442476 0.2704425 -0.03539187
  vertex -0.011354662 0.2804417 -0.03570693
  vertex -0.011354662 0.27044174 -0.035681352
 endloop
endfacet
facet normal -0.9569405 -0.0007424826 -0.29028323
 outer loop
  vertex -0.011442476 0.28044245 -0.035417445
  vertex -0.011442476 0.29044244 -0.035443023
  vertex -0.011354662 0.2904417 -0.035732508
 endloop
endfacet
facet normal -0.9569404 -0.00074248266 -0.29028326
 outer loop
  vertex -0.011442476 0.28044245 -0.035417445
  vertex -0.011354662 0.2904417 -0.035732508
  vertex -0.011354662 0.2804417 -0.03570693
 endloop
endfacet
facet normal -0.99518484 -0.0002507018 -0.09801483
 outer loop
  vertex -0.0114721265 0.27044326 -0.035090815
  vertex -0.0114721265 0.28044322 -0.035116393
  vertex -0.011442476 0.28044245 -0.035417445
 endloop
endfacet
facet normal -0.995185 -0.0002506622 -0.09801363
 outer loop
  vertex -0.0114721265 0.27044326 -0.035090815
  vertex -0.011442476 0.28044245 -0.035417445
  vertex -0.011442476 0.2704425 -0.03539187
 endloop
endfacet
facet normal -0.99518466 -0.00025070962 -0.098017894
 outer loop
  vertex -0.011501778 0.27044404 -0.034789763
  vertex -0.011501778 0.280444 -0.03481534
  vertex -0.0114721265 0.28044322 -0.035116393
 endloop
endfacet
facet normal -0.99518466 -0.00025070962 -0.098017894
 outer loop
  vertex -0.011501778 0.27044404 -0.034789763
  vertex -0.0114721265 0.28044322 -0.035116393
  vertex -0.0114721265 0.27044326 -0.035090815
 endloop
endfacet
facet normal -0.99518466 -0.00025070962 -0.098017894
 outer loop
  vertex -0.011501778 0.280444 -0.03481534
  vertex -0.011501778 0.29044396 -0.03484092
  vertex -0.0114721265 0.29044318 -0.03514197
 endloop
endfacet
facet normal -0.99518466 -0.00025070962 -0.098017894
 outer loop
  vertex -0.011501778 0.280444 -0.03481534
  vertex -0.0114721265 0.29044318 -0.03514197
  vertex -0.0114721265 0.28044322 -0.035116393
 endloop
endfacet
facet normal -0.99518466 0.00025070962 0.098017894
 outer loop
  vertex -0.0114721265 0.2704448 -0.03448871
  vertex -0.0114721265 0.28044477 -0.03451429
  vertex -0.011501778 0.280444 -0.03481534
 endloop
endfacet
facet normal -0.99518466 0.00025070962 0.098017894
 outer loop
  vertex -0.0114721265 0.2704448 -0.03448871
  vertex -0.011501778 0.280444 -0.03481534
  vertex -0.011501778 0.27044404 -0.034789763
 endloop
endfacet
facet normal -0.99518496 0.0002507011 0.09801485
 outer loop
  vertex -0.011442476 0.27044556 -0.03418766
  vertex -0.011442476 0.28044555 -0.034213237
  vertex -0.0114721265 0.28044477 -0.03451429
 endloop
endfacet
facet normal -0.99518484 0.00025070185 0.098014854
 outer loop
  vertex -0.011442476 0.27044556 -0.03418766
  vertex -0.0114721265 0.28044477 -0.03451429
  vertex -0.0114721265 0.2704448 -0.03448871
 endloop
endfacet
facet normal -0.995185 0.0002506622 0.09801363
 outer loop
  vertex -0.011442476 0.28044555 -0.034213237
  vertex -0.011442476 0.2904455 -0.03423881
  vertex -0.0114721265 0.29044473 -0.034539867
 endloop
endfacet
facet normal -0.99518484 0.0002507018 0.09801483
 outer loop
  vertex -0.011442476 0.28044555 -0.034213237
  vertex -0.0114721265 0.29044473 -0.034539867
  vertex -0.0114721265 0.28044477 -0.03451429
 endloop
endfacet
facet normal -0.9569405 0.0007424826 0.29028323
 outer loop
  vertex -0.011354662 0.2704463 -0.033898175
  vertex -0.011354662 0.2804463 -0.033923753
  vertex -0.011442476 0.28044555 -0.034213237
 endloop
endfacet
facet normal -0.9569404 0.00074248266 0.29028326
 outer loop
  vertex -0.011354662 0.2704463 -0.033898175
  vertex -0.011442476 0.28044555 -0.034213237
  vertex -0.011442476 0.27044556 -0.03418766
 endloop
endfacet
facet normal -0.9569405 0.00074237696 0.29028332
 outer loop
  vertex -0.011266847 0.27044705 -0.033608694
  vertex -0.011266847 0.280447 -0.033634268
  vertex -0.011354662 0.2804463 -0.033923753
 endloop
endfacet
facet normal -0.9569394 0.0007424914 0.2902867
 outer loop
  vertex -0.011266847 0.27044705 -0.033608694
  vertex -0.011354662 0.2804463 -0.033923753
  vertex -0.011354662 0.2704463 -0.033898175
 endloop
endfacet
facet normal -0.9569405 0.0007424826 0.29028323
 outer loop
  vertex -0.011266847 0.280447 -0.033634268
  vertex -0.011266847 0.290447 -0.033659846
  vertex -0.011354662 0.29044625 -0.03394933
 endloop
endfacet
facet normal -0.9569405 0.000742485 0.2902833
 outer loop
  vertex -0.011266847 0.280447 -0.033634268
  vertex -0.011354662 0.29044625 -0.03394933
  vertex -0.011354662 0.2804463 -0.033923753
 endloop
endfacet
facet normal -0.8819194 0.0012057407 0.47139862
 outer loop
  vertex -0.011124245 0.27044773 -0.033341903
  vertex -0.011124245 0.2804477 -0.03336748
  vertex -0.011266847 0.280447 -0.033634268
 endloop
endfacet
facet normal -0.8819222 0.0012055521 0.47139353
 outer loop
  vertex -0.011124245 0.27044773 -0.033341903
  vertex -0.011266847 0.280447 -0.033634268
  vertex -0.011266847 0.27044705 -0.033608694
 endloop
endfacet
facet normal -0.8819222 0.0012057277 0.47139353
 outer loop
  vertex -0.010981643 0.27044842 -0.033075113
  vertex -0.010981643 0.28044838 -0.03310069
  vertex -0.011124245 0.2804477 -0.03336748
 endloop
endfacet
facet normal -0.8819222 0.0012057277 0.47139353
 outer loop
  vertex -0.010981643 0.27044842 -0.033075113
  vertex -0.011124245 0.2804477 -0.03336748
  vertex -0.011124245 0.27044773 -0.033341903
 endloop
endfacet
facet normal -0.8819194 0.0012057407 0.47139862
 outer loop
  vertex -0.010981643 0.28044838 -0.03310069
  vertex -0.010981643 0.29044834 -0.03312627
  vertex -0.011124245 0.29044765 -0.033393055
 endloop
endfacet
facet normal -0.8819222 0.0012055521 0.47139353
 outer loop
  vertex -0.010981643 0.28044838 -0.03310069
  vertex -0.011124245 0.29044765 -0.033393055
  vertex -0.011124245 0.2804477 -0.03336748
 endloop
endfacet
facet normal -0.77301234 0.0016224 0.63438886
 outer loop
  vertex -0.010789732 0.270449 -0.032841273
  vertex -0.010789732 0.28044897 -0.032866847
  vertex -0.010981643 0.28044838 -0.03310069
 endloop
endfacet
facet normal -0.7730074 0.0016226517 0.63439494
 outer loop
  vertex -0.010789732 0.270449 -0.032841273
  vertex -0.010981643 0.28044838 -0.03310069
  vertex -0.010981643 0.27044842 -0.033075113
 endloop
endfacet
facet normal -0.7730059 0.0016226565 0.6343968
 outer loop
  vertex -0.010597821 0.2704496 -0.03260743
  vertex -0.010597821 0.28044957 -0.032633007
  vertex -0.010789732 0.28044897 -0.032866847
 endloop
endfacet
facet normal -0.7730108 0.0016224046 0.63439065
 outer loop
  vertex -0.010597821 0.2704496 -0.03260743
  vertex -0.010789732 0.28044897 -0.032866847
  vertex -0.010789732 0.270449 -0.032841273
 endloop
endfacet
facet normal -0.77301097 0.0016223995 0.6343906
 outer loop
  vertex -0.010597821 0.28044957 -0.032633007
  vertex -0.010597821 0.29044956 -0.03265858
  vertex -0.010789732 0.29044893 -0.032892425
 endloop
endfacet
facet normal -0.7730059 0.0016226565 0.6343968
 outer loop
  vertex -0.010597821 0.28044957 -0.032633007
  vertex -0.010789732 0.29044893 -0.032892425
  vertex -0.010789732 0.28044897 -0.032866847
 endloop
endfacet
facet normal -0.6343987 0.001977184 0.7730035
 outer loop
  vertex -0.010363978 0.27045012 -0.032415517
  vertex -0.010363978 0.28045008 -0.032441095
  vertex -0.010597821 0.28044957 -0.032633007
 endloop
endfacet
facet normal -0.6343987 0.001977184 0.7730035
 outer loop
  vertex -0.010363978 0.27045012 -0.032415517
  vertex -0.010597821 0.28044957 -0.032633007
  vertex -0.010597821 0.2704496 -0.03260743
 endloop
endfacet
facet normal -0.6343897 0.001977203 0.7730109
 outer loop
  vertex -0.010130134 0.2704506 -0.03222361
  vertex -0.010130134 0.28045055 -0.032249186
  vertex -0.010363978 0.28045008 -0.032441095
 endloop
endfacet
facet normal -0.6343897 0.001977203 0.7730109
 outer loop
  vertex -0.010130134 0.2704506 -0.03222361
  vertex -0.010363978 0.28045008 -0.032441095
  vertex -0.010363978 0.27045012 -0.032415517
 endloop
endfacet
facet normal -0.63439703 0.0019768996 0.77300483
 outer loop
  vertex -0.010130134 0.28045055 -0.032249186
  vertex -0.010130134 0.2904505 -0.03227476
  vertex -0.010363978 0.29045004 -0.032466672
 endloop
endfacet
facet normal -0.6343897 0.001977203 0.7730109
 outer loop
  vertex -0.010130134 0.28045055 -0.032249186
  vertex -0.010363978 0.29045004 -0.032466672
  vertex -0.010363978 0.28045008 -0.032441095
 endloop
endfacet
facet normal -0.4714022 0.00225543 0.88191545
 outer loop
  vertex -0.009863344 0.27045095 -0.032081008
  vertex -0.009863344 0.2804509 -0.032106582
  vertex -0.010130134 0.28045055 -0.032249186
 endloop
endfacet
facet normal -0.47139263 0.0022557715 0.8819206
 outer loop
  vertex -0.009863344 0.27045095 -0.032081008
  vertex -0.010130134 0.28045055 -0.032249186
  vertex -0.010130134 0.2704506 -0.03222361
 endloop
endfacet
facet normal -0.4713941 0.0022557627 0.88191974
 outer loop
  vertex -0.009596555 0.2704513 -0.031938404
  vertex -0.009596555 0.2804513 -0.03196398
  vertex -0.009863344 0.2804509 -0.032106582
 endloop
endfacet
facet normal -0.47140348 0.0022554281 0.88191473
 outer loop
  vertex -0.009596555 0.2704513 -0.031938404
  vertex -0.009863344 0.2804509 -0.032106582
  vertex -0.009863344 0.27045095 -0.032081008
 endloop
endfacet
facet normal -0.4713939 0.00225577 0.8819199
 outer loop
  vertex -0.009596555 0.2804513 -0.03196398
  vertex -0.009596555 0.29045126 -0.03198956
  vertex -0.009863344 0.2904509 -0.03213216
 endloop
endfacet
facet normal -0.4713941 0.0022557627 0.88191974
 outer loop
  vertex -0.009596555 0.2804513 -0.03196398
  vertex -0.009863344 0.2904509 -0.03213216
  vertex -0.009863344 0.2804509 -0.032106582
 endloop
endfacet
facet normal -0.29028016 0.002447652 0.95693856
 outer loop
  vertex -0.00930707 0.27045155 -0.03185059
  vertex -0.00930707 0.2804515 -0.03187617
  vertex -0.009596555 0.2804513 -0.03196398
 endloop
endfacet
facet normal -0.2902804 0.0024476447 0.9569385
 outer loop
  vertex -0.00930707 0.27045155 -0.03185059
  vertex -0.009596555 0.2804513 -0.03196398
  vertex -0.009596555 0.2704513 -0.031938404
 endloop
endfacet
facet normal -0.29029256 0.002447286 0.9569348
 outer loop
  vertex -0.009017586 0.27045178 -0.03176278
  vertex -0.009017586 0.28045174 -0.031788353
  vertex -0.00930707 0.2804515 -0.03187617
 endloop
endfacet
facet normal -0.2902813 0.0024476512 0.95693827
 outer loop
  vertex -0.009017586 0.27045178 -0.03176278
  vertex -0.00930707 0.2804515 -0.03187617
  vertex -0.00930707 0.27045155 -0.03185059
 endloop
endfacet
facet normal -0.29028127 0.0024476512 0.95693827
 outer loop
  vertex -0.009017586 0.28045174 -0.031788353
  vertex -0.009017586 0.2904517 -0.03181393
  vertex -0.00930707 0.29045147 -0.031901743
 endloop
endfacet
facet normal -0.29029256 0.002447286 0.9569348
 outer loop
  vertex -0.009017586 0.28045174 -0.031788353
  vertex -0.00930707 0.29045147 -0.031901743
  vertex -0.00930707 0.2804515 -0.03187617
 endloop
endfacet
facet normal -0.09801201 0.0025454706 0.9951819
 outer loop
  vertex -0.008716532 0.27045184 -0.031733125
  vertex -0.008716532 0.2804518 -0.031758703
  vertex -0.009017586 0.28045174 -0.031788353
 endloop
endfacet
facet normal -0.09802422 0.0025450971 0.99518085
 outer loop
  vertex -0.008716532 0.27045184 -0.031733125
  vertex -0.009017586 0.28045174 -0.031788353
  vertex -0.009017586 0.27045178 -0.03176278
 endloop
endfacet
facet normal -0.09802446 0.0025450971 0.9951807
 outer loop
  vertex -0.008415478 0.27045193 -0.031703476
  vertex -0.008415478 0.2804519 -0.03172905
  vertex -0.008716532 0.2804518 -0.031758703
 endloop
endfacet
facet normal -0.09801226 0.0025454706 0.9951819
 outer loop
  vertex -0.008415478 0.27045193 -0.031703476
  vertex -0.008716532 0.2804518 -0.031758703
  vertex -0.008716532 0.27045184 -0.031733125
 endloop
endfacet
facet normal -0.09802422 0.0025454678 0.99518085
 outer loop
  vertex -0.008415478 0.2804519 -0.03172905
  vertex -0.008415478 0.29045185 -0.031754628
  vertex -0.008716532 0.2904518 -0.03178428
 endloop
endfacet
facet normal -0.098024465 0.0025454601 0.9951808
 outer loop
  vertex -0.008415478 0.2804519 -0.03172905
  vertex -0.008716532 0.2904518 -0.03178428
  vertex -0.008716532 0.2804518 -0.031758703
 endloop
endfacet
facet normal 0.09802446 0.0025454676 0.9951807
 outer loop
  vertex -0.0081144245 0.27045184 -0.031733125
  vertex -0.0081144245 0.2804518 -0.031758703
  vertex -0.008415478 0.2804519 -0.03172905
 endloop
endfacet
facet normal 0.09801226 0.0025451002 0.9951819
 outer loop
  vertex -0.0081144245 0.27045184 -0.031733125
  vertex -0.008415478 0.2804519 -0.03172905
  vertex -0.008415478 0.27045193 -0.031703476
 endloop
endfacet
facet normal 0.09801201 0.0025451002 0.9951819
 outer loop
  vertex -0.007813371 0.27045178 -0.03176278
  vertex -0.007813371 0.28045174 -0.031788353
  vertex -0.0081144245 0.2804518 -0.031758703
 endloop
endfacet
facet normal 0.09802422 0.0025454678 0.99518085
 outer loop
  vertex -0.007813371 0.27045178 -0.03176278
  vertex -0.0081144245 0.2804518 -0.031758703
  vertex -0.0081144245 0.27045184 -0.031733125
 endloop
endfacet
facet normal 0.09801225 0.0025454706 0.9951819
 outer loop
  vertex -0.007813371 0.28045174 -0.031788353
  vertex -0.007813371 0.2904517 -0.03181393
  vertex -0.0081144245 0.2904518 -0.03178428
 endloop
endfacet
facet normal 0.09801202 0.0025454632 0.995182
 outer loop
  vertex -0.007813371 0.28045174 -0.031788353
  vertex -0.0081144245 0.2904518 -0.03178428
  vertex -0.0081144245 0.2804518 -0.031758703
 endloop
endfacet
facet normal 0.29029256 0.0024476424 0.9569348
 outer loop
  vertex -0.007523887 0.27045155 -0.03185059
  vertex -0.007523887 0.2804515 -0.03187617
  vertex -0.007813371 0.28045174 -0.031788353
 endloop
endfacet
facet normal 0.29028127 0.0024472948 0.95693827
 outer loop
  vertex -0.007523887 0.27045155 -0.03185059
  vertex -0.007813371 0.28045174 -0.031788353
  vertex -0.007813371 0.27045178 -0.03176278
 endloop
endfacet
facet normal 0.2902806 0.0024476445 0.95693845
 outer loop
  vertex -0.0072344025 0.2704513 -0.031938404
  vertex -0.0072344025 0.2804513 -0.03196398
  vertex -0.007523887 0.2804515 -0.03187617
 endloop
endfacet
facet normal 0.29028085 0.0024476517 0.9569384
 outer loop
  vertex -0.0072344025 0.2704513 -0.031938404
  vertex -0.007523887 0.2804515 -0.03187617
  vertex -0.007523887 0.27045155 -0.03185059
 endloop
endfacet
facet normal 0.2902919 0.002447643 0.95693505
 outer loop
  vertex -0.0072344025 0.2804513 -0.03196398
  vertex -0.0072344025 0.29045126 -0.03198956
  vertex -0.007523887 0.29045147 -0.031901743
 endloop
endfacet
facet normal 0.29028058 0.0024472952 0.9569384
 outer loop
  vertex -0.0072344025 0.2804513 -0.03196398
  vertex -0.007523887 0.29045147 -0.031901743
  vertex -0.007523887 0.2804515 -0.03187617
 endloop
endfacet
facet normal 0.4713928 0.0022554428 0.88192046
 outer loop
  vertex -0.006967612 0.27045095 -0.032081008
  vertex -0.006967612 0.2804509 -0.032106582
  vertex -0.0072344025 0.2804513 -0.03196398
 endloop
endfacet
facet normal 0.4714022 0.0022557518 0.88191545
 outer loop
  vertex -0.006967612 0.27045095 -0.032081008
  vertex -0.0072344025 0.2804513 -0.03196398
  vertex -0.0072344025 0.2704513 -0.031938404
 endloop
endfacet
facet normal 0.47140282 0.0022557576 0.88191515
 outer loop
  vertex -0.006700822 0.2704506 -0.03222361
  vertex -0.006700822 0.28045055 -0.032249186
  vertex -0.006967612 0.2804509 -0.032106582
 endloop
endfacet
facet normal 0.47139326 0.002255442 0.8819202
 outer loop
  vertex -0.006700822 0.2704506 -0.03222361
  vertex -0.006967612 0.2804509 -0.032106582
  vertex -0.006967612 0.27045095 -0.032081008
 endloop
endfacet
facet normal 0.47139347 0.0022554419 0.88192016
 outer loop
  vertex -0.006700822 0.28045055 -0.032249186
  vertex -0.006700822 0.2904505 -0.03227476
  vertex -0.006967612 0.2904509 -0.03213216
 endloop
endfacet
facet normal 0.47140282 0.0022557508 0.8819151
 outer loop
  vertex -0.006700822 0.28045055 -0.032249186
  vertex -0.006967612 0.2904509 -0.03213216
  vertex -0.006967612 0.2804509 -0.032106582
 endloop
endfacet
facet normal 0.6343897 0.001977203 0.7730109
 outer loop
  vertex -0.006466978 0.27045012 -0.032415517
  vertex -0.006466978 0.28045008 -0.032441095
  vertex -0.006700822 0.28045055 -0.032249186
 endloop
endfacet
facet normal 0.6343897 0.001977203 0.7730109
 outer loop
  vertex -0.006466978 0.27045012 -0.032415517
  vertex -0.006700822 0.28045055 -0.032249186
  vertex -0.006700822 0.2704506 -0.03222361
 endloop
endfacet
facet normal 0.6343979 0.0019771855 0.7730042
 outer loop
  vertex -0.006233135 0.2704496 -0.03260743
  vertex -0.006233135 0.28044957 -0.032633007
  vertex -0.006466978 0.28045008 -0.032441095
 endloop
endfacet
facet normal 0.6343979 0.0019771855 0.7730042
 outer loop
  vertex -0.006233135 0.2704496 -0.03260743
  vertex -0.006466978 0.28045008 -0.032441095
  vertex -0.006466978 0.27045012 -0.032415517
 endloop
endfacet
facet normal 0.6343905 0.0019769075 0.77301025
 outer loop
  vertex -0.006233135 0.28044957 -0.032633007
  vertex -0.006233135 0.29044956 -0.03265858
  vertex -0.006466978 0.29045004 -0.032466672
 endloop
endfacet
facet normal 0.6343979 0.0019771855 0.7730042
 outer loop
  vertex -0.006233135 0.28044957 -0.032633007
  vertex -0.006466978 0.29045004 -0.032466672
  vertex -0.006466978 0.28045008 -0.032441095
 endloop
endfacet
facet normal 0.7730066 0.0016224177 0.63439584
 outer loop
  vertex -0.006041224 0.270449 -0.032841273
  vertex -0.006041224 0.28044897 -0.032866847
  vertex -0.006233135 0.28044957 -0.032633007
 endloop
endfacet
facet normal 0.7730116 0.0016226387 0.6343898
 outer loop
  vertex -0.006041224 0.270449 -0.032841273
  vertex -0.006233135 0.28044957 -0.032633007
  vertex -0.006233135 0.2704496 -0.03260743
 endloop
endfacet
facet normal 0.77301234 0.0016226362 0.63438886
 outer loop
  vertex -0.005849314 0.27044842 -0.033075113
  vertex -0.005849314 0.28044838 -0.03310069
  vertex -0.006041224 0.28044897 -0.032866847
 endloop
endfacet
facet normal 0.7730074 0.0016224155 0.63439494
 outer loop
  vertex -0.005849314 0.27044842 -0.033075113
  vertex -0.006041224 0.28044897 -0.032866847
  vertex -0.006041224 0.270449 -0.032841273
 endloop
endfacet
facet normal 0.77301234 0.0016226362 0.63438886
 outer loop
  vertex -0.005849314 0.28044838 -0.03310069
  vertex -0.005849314 0.29044834 -0.03312627
  vertex -0.006041224 0.29044893 -0.032892425
 endloop
endfacet
facet normal 0.77301234 0.0016226362 0.63438886
 outer loop
  vertex -0.005849314 0.28044838 -0.03310069
  vertex -0.006041224 0.29044893 -0.032892425
  vertex -0.006041224 0.28044897 -0.032866847
 endloop
endfacet
facet normal 0.8819222 0.0012057277 0.47139353
 outer loop
  vertex -0.0057067117 0.27044773 -0.033341903
  vertex -0.0057067117 0.2804477 -0.03336748
  vertex -0.005849314 0.28044838 -0.03310069
 endloop
endfacet
facet normal 0.8819222 0.0012057277 0.47139353
 outer loop
  vertex -0.0057067117 0.27044773 -0.033341903
  vertex -0.005849314 0.28044838 -0.03310069
  vertex -0.005849314 0.27044842 -0.033075113
 endloop
endfacet
facet normal 0.8819194 0.0012055652 0.47139862
 outer loop
  vertex -0.0055641094 0.27044705 -0.033608694
  vertex -0.0055641094 0.280447 -0.033634268
  vertex -0.0057067117 0.2804477 -0.03336748
 endloop
endfacet
facet normal 0.8819222 0.0012057277 0.47139353
 outer loop
  vertex -0.0055641094 0.27044705 -0.033608694
  vertex -0.0057067117 0.2804477 -0.03336748
  vertex -0.0057067117 0.27044773 -0.033341903
 endloop
endfacet
facet normal 0.8819221 0.0012057243 0.47139364
 outer loop
  vertex -0.0055641094 0.280447 -0.033634268
  vertex -0.0055641094 0.290447 -0.033659846
  vertex -0.0057067117 0.29044765 -0.033393055
 endloop
endfacet
facet normal 0.8819194 0.0012055652 0.47139862
 outer loop
  vertex -0.0055641094 0.280447 -0.033634268
  vertex -0.0057067117 0.29044765 -0.033393055
  vertex -0.0057067117 0.2804477 -0.03336748
 endloop
endfacet
facet normal 0.9569404 0.00074248284 0.29028332
 outer loop
  vertex -0.005476295 0.2704463 -0.033898175
  vertex -0.005476295 0.2804463 -0.033923753
  vertex -0.0055641094 0.280447 -0.033634268
 endloop
endfacet
facet normal 0.9569395 0.0007423855 0.2902867
 outer loop
  vertex -0.005476295 0.2704463 -0.033898175
  vertex -0.0055641094 0.280447 -0.033634268
  vertex -0.0055641094 0.27044705 -0.033608694
 endloop
endfacet
facet normal 0.9569405 0.0007424826 0.29028323
 outer loop
  vertex -0.0053884806 0.27044556 -0.03418766
  vertex -0.0053884806 0.28044555 -0.034213237
  vertex -0.005476295 0.2804463 -0.033923753
 endloop
endfacet
facet normal 0.9569404 0.00074248266 0.29028326
 outer loop
  vertex -0.0053884806 0.27044556 -0.03418766
  vertex -0.005476295 0.2804463 -0.033923753
  vertex -0.005476295 0.2704463 -0.033898175
 endloop
endfacet
facet normal 0.9569395 0.0007423855 0.2902867
 outer loop
  vertex -0.0053884806 0.28044555 -0.034213237
  vertex -0.0053884806 0.2904455 -0.03423881
  vertex -0.005476295 0.29044625 -0.03394933
 endloop
endfacet
facet normal 0.95694053 0.0007424849 0.29028326
 outer loop
  vertex -0.0053884806 0.28044555 -0.034213237
  vertex -0.005476295 0.29044625 -0.03394933
  vertex -0.005476295 0.2804463 -0.033923753
 endloop
endfacet
facet normal 0.9951847 0.0002507057 0.09801636
 outer loop
  vertex -0.0053588296 0.2704448 -0.03448871
  vertex -0.0053588296 0.28044477 -0.03451429
  vertex -0.0053884806 0.28044555 -0.034213237
 endloop
endfacet
facet normal 0.9951847 0.00025070502 0.09801639
 outer loop
  vertex -0.0053588296 0.2704448 -0.03448871
  vertex -0.0053884806 0.28044555 -0.034213237
  vertex -0.0053884806 0.27044556 -0.03418766
 endloop
endfacet
facet normal 0.9951847 0.0002507057 0.09801636
 outer loop
  vertex -0.0053291786 0.27044404 -0.034789763
  vertex -0.0053291786 0.280444 -0.03481534
  vertex -0.0053588296 0.28044477 -0.03451429
 endloop
endfacet
facet normal 0.9951847 0.0002507057 0.09801636
 outer loop
  vertex -0.0053291786 0.27044404 -0.034789763
  vertex -0.0053588296 0.28044477 -0.03451429
  vertex -0.0053588296 0.2704448 -0.03448871
 endloop
endfacet
facet normal 0.9951847 0.0002507057 0.09801636
 outer loop
  vertex -0.0053291786 0.280444 -0.03481534
  vertex -0.0053291786 0.29044396 -0.03484092
  vertex -0.0053588296 0.29044473 -0.034539867
 endloop
endfacet
facet normal 0.9951847 0.0002507057 0.09801636
 outer loop
  vertex -0.0053291786 0.280444 -0.03481534
  vertex -0.0053588296 0.29044473 -0.034539867
  vertex -0.0053588296 0.28044477 -0.03451429
 endloop
endfacet
facet normal 0.9951847 -0.0002507057 -0.09801636
 outer loop
  vertex -0.0053588296 0.27044326 -0.035090815
  vertex -0.0053588296 0.28044322 -0.035116393
  vertex -0.0053291786 0.280444 -0.03481534
 endloop
endfacet
facet normal 0.9951847 -0.0002507057 -0.09801636
 outer loop
  vertex -0.0053588296 0.27044326 -0.035090815
  vertex -0.0053291786 0.280444 -0.03481534
  vertex -0.0053291786 0.27044404 -0.034789763
 endloop
endfacet
facet normal 0.9951847 -0.00025066917 -0.09801636
 outer loop
  vertex -0.0053884806 0.2704425 -0.03539187
  vertex -0.0053884806 0.28044245 -0.035417445
  vertex -0.0053588296 0.28044322 -0.035116393
 endloop
endfacet
facet normal 0.99518484 -0.00025070264 -0.09801516
 outer loop
  vertex -0.0053884806 0.2704425 -0.03539187
  vertex -0.0053588296 0.28044322 -0.035116393
  vertex -0.0053588296 0.27044326 -0.035090815
 endloop
endfacet
facet normal 0.9951847 -0.00025070502 -0.09801639
 outer loop
  vertex -0.0053884806 0.28044245 -0.035417445
  vertex -0.0053884806 0.29044244 -0.035443023
  vertex -0.0053588296 0.29044318 -0.03514197
 endloop
endfacet
facet normal 0.9951847 -0.0002507057 -0.09801636
 outer loop
  vertex -0.0053884806 0.28044245 -0.035417445
  vertex -0.0053588296 0.29044318 -0.03514197
  vertex -0.0053588296 0.28044322 -0.035116393
 endloop
endfacet
facet normal 0.95694053 -0.0007424849 -0.29028326
 outer loop
  vertex -0.005476295 0.27044174 -0.035681352
  vertex -0.005476295 0.2804417 -0.03570693
  vertex -0.0053884806 0.28044245 -0.035417445
 endloop
endfacet
facet normal 0.9569395 -0.0007423855 -0.2902867
 outer loop
  vertex -0.005476295 0.27044174 -0.035681352
  vertex -0.0053884806 0.28044245 -0.035417445
  vertex -0.0053884806 0.2704425 -0.03539187
 endloop
endfacet
facet normal 0.9569404 -0.00074248284 -0.29028332
 outer loop
  vertex -0.0055641094 0.270441 -0.035970837
  vertex -0.0055641094 0.280441 -0.035996415
  vertex -0.005476295 0.2804417 -0.03570693
 endloop
endfacet
facet normal 0.95694053 -0.0007424849 -0.29028326
 outer loop
  vertex -0.0055641094 0.270441 -0.035970837
  vertex -0.005476295 0.2804417 -0.03570693
  vertex -0.005476295 0.27044174 -0.035681352
 endloop
endfacet
facet normal 0.9569395 -0.0007423855 -0.2902867
 outer loop
  vertex -0.0055641094 0.280441 -0.035996415
  vertex -0.0055641094 0.29044095 -0.03602199
  vertex -0.005476295 0.2904417 -0.035732508
 endloop
endfacet
facet normal 0.9569404 -0.00074248284 -0.29028332
 outer loop
  vertex -0.0055641094 0.280441 -0.035996415
  vertex -0.005476295 0.2904417 -0.035732508
  vertex -0.005476295 0.2804417 -0.03570693
 endloop
endfacet
facet normal 0.8819194 -0.0012055652 -0.47139862
 outer loop
  vertex -0.0057067117 0.27044034 -0.036237627
  vertex -0.0057067117 0.2804403 -0.0362632
  vertex -0.0055641094 0.280441 -0.035996415
 endloop
endfacet
facet normal 0.8819221 -0.0012057243 -0.47139364
 outer loop
  vertex -0.0057067117 0.27044034 -0.036237627
  vertex -0.0055641094 0.280441 -0.035996415
  vertex -0.0055641094 0.270441 -0.035970837
 endloop
endfacet
facet normal 0.8819222 -0.0012057277 -0.47139353
 outer loop
  vertex -0.005849314 0.27043965 -0.036504414
  vertex -0.005849314 0.28043962 -0.03652999
  vertex -0.0057067117 0.2804403 -0.0362632
 endloop
endfacet
facet normal 0.8819194 -0.0012055652 -0.47139862
 outer loop
  vertex -0.005849314 0.27043965 -0.036504414
  vertex -0.0057067117 0.2804403 -0.0362632
  vertex -0.0057067117 0.27044034 -0.036237627
 endloop
endfacet
facet normal 0.8819222 -0.0012057277 -0.47139353
 outer loop
  vertex -0.005849314 0.28043962 -0.03652999
  vertex -0.005849314 0.29043958 -0.03655557
  vertex -0.0057067117 0.29044026 -0.03628878
 endloop
endfacet
facet normal 0.8819222 -0.0012057277 -0.47139353
 outer loop
  vertex -0.005849314 0.28043962 -0.03652999
  vertex -0.0057067117 0.29044026 -0.03628878
  vertex -0.0057067117 0.2804403 -0.0362632
 endloop
endfacet
facet normal 0.77301234 -0.0016226362 -0.63438886
 outer loop
  vertex -0.006041224 0.27043906 -0.036738258
  vertex -0.006041224 0.28043902 -0.036763836
  vertex -0.005849314 0.28043962 -0.03652999
 endloop
endfacet
facet normal 0.77301234 -0.0016226362 -0.63438886
 outer loop
  vertex -0.006041224 0.27043906 -0.036738258
  vertex -0.005849314 0.28043962 -0.03652999
  vertex -0.005849314 0.27043965 -0.036504414
 endloop
endfacet
facet normal 0.7730066 -0.0016224128 -0.6343958
 outer loop
  vertex -0.006233135 0.27043843 -0.0369721
  vertex -0.006233135 0.28043842 -0.036997676
  vertex -0.006041224 0.28043902 -0.036763836
 endloop
endfacet
facet normal 0.77301174 -0.0016226384 -0.63438976
 outer loop
  vertex -0.006233135 0.27043843 -0.0369721
  vertex -0.006041224 0.28043902 -0.036763836
  vertex -0.006041224 0.27043906 -0.036738258
 endloop
endfacet
facet normal 0.7730116 -0.0016226387 -0.6343898
 outer loop
  vertex -0.006233135 0.28043842 -0.036997676
  vertex -0.006233135 0.29043838 -0.037023254
  vertex -0.006041224 0.29043898 -0.03678941
 endloop
endfacet
facet normal 0.7730066 -0.0016224177 -0.63439584
 outer loop
  vertex -0.006233135 0.28043842 -0.036997676
  vertex -0.006041224 0.29043898 -0.03678941
  vertex -0.006041224 0.28043902 -0.036763836
 endloop
endfacet
facet normal 0.6343979 -0.0019771855 -0.7730042
 outer loop
  vertex -0.006466978 0.27043796 -0.03716401
  vertex -0.006466978 0.28043792 -0.037189588
  vertex -0.006233135 0.28043842 -0.036997676
 endloop
endfacet
facet normal 0.6343905 -0.0019769075 -0.7730103
 outer loop
  vertex -0.006466978 0.27043796 -0.03716401
  vertex -0.006233135 0.28043842 -0.036997676
  vertex -0.006233135 0.27043843 -0.0369721
 endloop
endfacet
facet normal 0.6343897 -0.0019769152 -0.7730109
 outer loop
  vertex -0.006700822 0.27043748 -0.037355922
  vertex -0.006700822 0.28043744 -0.037381496
  vertex -0.006466978 0.28043792 -0.037189588
 endloop
endfacet
facet normal 0.63439703 -0.0019771873 -0.77300483
 outer loop
  vertex -0.006700822 0.27043748 -0.037355922
  vertex -0.006466978 0.28043792 -0.037189588
  vertex -0.006466978 0.27043796 -0.03716401
 endloop
endfacet
facet normal 0.6343897 -0.001977203 -0.7730109
 outer loop
  vertex -0.006700822 0.28043744 -0.037381496
  vertex -0.006700822 0.2904374 -0.037407074
  vertex -0.006466978 0.29043788 -0.037215166
 endloop
endfacet
facet normal 0.6343897 -0.001977203 -0.7730109
 outer loop
  vertex -0.006700822 0.28043744 -0.037381496
  vertex -0.006466978 0.29043788 -0.037215166
  vertex -0.006466978 0.28043792 -0.037189588
 endloop
endfacet
facet normal 0.4714028 -0.0022557508 -0.8819151
 outer loop
  vertex -0.006967612 0.2704371 -0.037498523
  vertex -0.006967612 0.28043708 -0.0375241
  vertex -0.006700822 0.28043744 -0.037381496
 endloop
endfacet
facet normal 0.47139347 -0.0022554419 -0.88192016
 outer loop
  vertex -0.006967612 0.2704371 -0.037498523
  vertex -0.006700822 0.28043744 -0.037381496
  vertex -0.006700822 0.27043748 -0.037355922
 endloop
endfacet
facet normal 0.4713928 -0.0022557713 -0.88192046
 outer loop
  vertex -0.0072344025 0.27043673 -0.037641123
  vertex -0.0072344025 0.2804367 -0.0376667
  vertex -0.006967612 0.28043708 -0.0375241
 endloop
endfacet
facet normal 0.4713926 -0.0022557648 -0.8819205
 outer loop
  vertex -0.0072344025 0.27043673 -0.037641123
  vertex -0.006967612 0.28043708 -0.0375241
  vertex -0.006967612 0.2704371 -0.037498523
 endloop
endfacet
facet normal 0.47140217 -0.0022557518 -0.88191545
 outer loop
  vertex -0.0072344025 0.2804367 -0.0376667
  vertex -0.0072344025 0.29043669 -0.03769228
  vertex -0.006967612 0.29043704 -0.037549675
 endloop
endfacet
facet normal 0.4713928 -0.0022554428 -0.88192046
 outer loop
  vertex -0.0072344025 0.2804367 -0.0376667
  vertex -0.006967612 0.29043704 -0.037549675
  vertex -0.006967612 0.28043708 -0.0375241
 endloop
endfacet
facet normal 0.2902806 -0.0024472952 -0.9569384
 outer loop
  vertex -0.007523887 0.27043653 -0.03772894
  vertex -0.007523887 0.2804365 -0.037754513
  vertex -0.0072344025 0.2804367 -0.0376667
 endloop
endfacet
facet normal 0.2902919 -0.002447643 -0.95693505
 outer loop
  vertex -0.007523887 0.27043653 -0.03772894
  vertex -0.0072344025 0.2804367 -0.0376667
  vertex -0.0072344025 0.27043673 -0.037641123
 endloop
endfacet
facet normal 0.29029256 -0.0024476424 -0.9569348
 outer loop
  vertex -0.007813371 0.2704363 -0.03781675
  vertex -0.007813371 0.28043625 -0.03784233
  vertex -0.007523887 0.2804365 -0.037754513
 endloop
endfacet
facet normal 0.29028127 -0.0024472948 -0.95693827
 outer loop
  vertex -0.007813371 0.2704363 -0.03781675
  vertex -0.007523887 0.2804365 -0.037754513
  vertex -0.007523887 0.27043653 -0.03772894
 endloop
endfacet
facet normal 0.29028127 -0.0024472948 -0.95693827
 outer loop
  vertex -0.007813371 0.28043625 -0.03784233
  vertex -0.007813371 0.2904362 -0.037867904
  vertex -0.007523887 0.29043645 -0.03778009
 endloop
endfacet
facet normal 0.29029256 -0.0024476424 -0.9569348
 outer loop
  vertex -0.007813371 0.28043625 -0.03784233
  vertex -0.007523887 0.29043645 -0.03778009
  vertex -0.007523887 0.2804365 -0.037754513
 endloop
endfacet
facet normal 0.09801202 -0.0025454632 -0.995182
 outer loop
  vertex -0.0081144245 0.2704362 -0.0378464
  vertex -0.0081144245 0.2804362 -0.03787198
  vertex -0.007813371 0.28043625 -0.03784233
 endloop
endfacet
facet normal 0.09801226 -0.0025454706 -0.9951819
 outer loop
  vertex -0.0081144245 0.2704362 -0.0378464
  vertex -0.007813371 0.28043625 -0.03784233
  vertex -0.007813371 0.2704363 -0.03781675
 endloop
endfacet
facet normal 0.09802446 -0.0025454676 -0.9951807
 outer loop
  vertex -0.008415478 0.27043614 -0.037876055
  vertex -0.008415478 0.2804361 -0.037901632
  vertex -0.0081144245 0.2804362 -0.03787198
 endloop
endfacet
facet normal 0.09802421 -0.0025454601 -0.9951808
 outer loop
  vertex -0.008415478 0.27043614 -0.037876055
  vertex -0.0081144245 0.2804362 -0.03787198
  vertex -0.0081144245 0.2704362 -0.0378464
 endloop
endfacet
facet normal 0.09801225 -0.0025451002 -0.9951819
 outer loop
  vertex -0.008415478 0.2804361 -0.037901632
  vertex -0.008415478 0.29043606 -0.037927207
  vertex -0.0081144245 0.29043615 -0.037897557
 endloop
endfacet
facet normal 0.098024465 -0.0025454676 -0.9951807
 outer loop
  vertex -0.008415478 0.2804361 -0.037901632
  vertex -0.0081144245 0.29043615 -0.037897557
  vertex -0.0081144245 0.2804362 -0.03787198
 endloop
endfacet
endsolid 
