solid 
facet normal 0.09802422 -0.0025454678 -0.99518085
 outer loop
  vertex 0.010230369 0.28062338 -0.03787198
  vertex 0.010230369 0.29062334 -0.037897557
  vertex 0.010531423 0.2906234 -0.037867904
 endloop
endfacet
facet normal 0.09801201 -0.0025451002 -0.9951819
 outer loop
  vertex 0.010230369 0.28062338 -0.03787198
  vertex 0.010531423 0.2906234 -0.037867904
  vertex 0.010531423 0.28062344 -0.03784233
 endloop
endfacet
facet normal 0.29028016 -0.002447652 -0.95693856
 outer loop
  vertex 0.010820907 0.28062367 -0.037754513
  vertex 0.010820907 0.29062364 -0.03778009
  vertex 0.0111103915 0.29062384 -0.03769228
 endloop
endfacet
facet normal 0.29028016 -0.002447652 -0.95693856
 outer loop
  vertex 0.010820907 0.28062367 -0.037754513
  vertex 0.0111103915 0.29062384 -0.03769228
  vertex 0.0111103915 0.28062388 -0.0376667
 endloop
endfacet
facet normal 0.4713926 -0.002255443 -0.8819206
 outer loop
  vertex 0.011377181 0.28062427 -0.0375241
  vertex 0.011377181 0.29062423 -0.037549675
  vertex 0.011643971 0.2906246 -0.037407074
 endloop
endfacet
facet normal 0.47140223 -0.0022557585 -0.88191545
 outer loop
  vertex 0.011377181 0.28062427 -0.0375241
  vertex 0.011643971 0.2906246 -0.037407074
  vertex 0.011643971 0.28062463 -0.037381496
 endloop
endfacet
facet normal 0.6343987 -0.001977184 -0.7730035
 outer loop
  vertex 0.011877815 0.2806251 -0.037189588
  vertex 0.011877815 0.29062507 -0.037215166
  vertex 0.012111658 0.29062557 -0.037023254
 endloop
endfacet
facet normal 0.6343987 -0.001977184 -0.7730035
 outer loop
  vertex 0.011877815 0.2806251 -0.037189588
  vertex 0.012111658 0.29062557 -0.037023254
  vertex 0.012111658 0.2806256 -0.036997676
 endloop
endfacet
facet normal 0.7730074 -0.0016224155 -0.63439494
 outer loop
  vertex 0.012303569 0.2806262 -0.036763836
  vertex 0.012303569 0.29062617 -0.03678941
  vertex 0.01249548 0.29062676 -0.03655557
 endloop
endfacet
facet normal 0.77301234 -0.0016226362 -0.63438886
 outer loop
  vertex 0.012303569 0.2806262 -0.036763836
  vertex 0.01249548 0.29062676 -0.03655557
  vertex 0.01249548 0.2806268 -0.03652999
 endloop
endfacet
facet normal 0.8819222 -0.0012057277 -0.47139353
 outer loop
  vertex 0.012638082 0.2806275 -0.0362632
  vertex 0.012638082 0.29062745 -0.03628878
  vertex 0.012780684 0.29062814 -0.03602199
 endloop
endfacet
facet normal 0.8819194 -0.0012055652 -0.47139862
 outer loop
  vertex 0.012638082 0.2806275 -0.0362632
  vertex 0.012780684 0.29062814 -0.03602199
  vertex 0.012780684 0.28062817 -0.035996415
 endloop
endfacet
facet normal 0.9569405 -0.0007424826 -0.29028323
 outer loop
  vertex 0.012868498 0.2806289 -0.03570693
  vertex 0.012868498 0.29062888 -0.035732508
  vertex 0.012956313 0.29062963 -0.035443023
 endloop
endfacet
facet normal 0.9569404 -0.00074248266 -0.29028326
 outer loop
  vertex 0.012868498 0.2806289 -0.03570693
  vertex 0.012956313 0.29062963 -0.035443023
  vertex 0.012956313 0.28062963 -0.035417445
 endloop
endfacet
facet normal 0.99518466 -0.00025070962 -0.098017894
 outer loop
  vertex 0.012985963 0.2806304 -0.035116393
  vertex 0.012985963 0.29063037 -0.03514197
  vertex 0.013015615 0.29063115 -0.03484092
 endloop
endfacet
facet normal 0.99518466 -0.00025070962 -0.098017894
 outer loop
  vertex 0.012985963 0.2806304 -0.035116393
  vertex 0.013015615 0.29063115 -0.03484092
  vertex 0.013015615 0.28063118 -0.03481534
 endloop
endfacet
facet normal 0.995185 0.00025069874 0.09801363
 outer loop
  vertex 0.012985963 0.28063196 -0.03451429
  vertex 0.012985963 0.29063192 -0.034539867
  vertex 0.012956313 0.2906327 -0.03423881
 endloop
endfacet
facet normal 0.99518484 0.0002506653 0.09801483
 outer loop
  vertex 0.012985963 0.28063196 -0.03451429
  vertex 0.012956313 0.2906327 -0.03423881
  vertex 0.012956313 0.28063273 -0.034213237
 endloop
endfacet
facet normal 0.95694053 0.0007424849 0.29028326
 outer loop
  vertex 0.012868498 0.28063348 -0.033923753
  vertex 0.012868498 0.29063344 -0.03394933
  vertex 0.012780684 0.29063419 -0.033659846
 endloop
endfacet
facet normal 0.9569404 0.00074248284 0.29028332
 outer loop
  vertex 0.012868498 0.28063348 -0.033923753
  vertex 0.012780684 0.29063419 -0.033659846
  vertex 0.012780684 0.2806342 -0.033634268
 endloop
endfacet
facet normal 0.8819194 0.0012055652 0.47139862
 outer loop
  vertex 0.012638082 0.28063488 -0.03336748
  vertex 0.012638082 0.29063484 -0.033393055
  vertex 0.01249548 0.29063553 -0.03312627
 endloop
endfacet
facet normal 0.8819222 0.0012057277 0.47139353
 outer loop
  vertex 0.012638082 0.28063488 -0.03336748
  vertex 0.01249548 0.29063553 -0.03312627
  vertex 0.01249548 0.28063557 -0.03310069
 endloop
endfacet
facet normal 0.7730108 0.0016226409 0.63439065
 outer loop
  vertex 0.012303569 0.28063616 -0.032866847
  vertex 0.012303569 0.29063612 -0.032892425
  vertex 0.012111658 0.29063672 -0.03265858
 endloop
endfacet
facet normal 0.7730059 0.0016224202 0.6343968
 outer loop
  vertex 0.012303569 0.28063616 -0.032866847
  vertex 0.012111658 0.29063672 -0.03265858
  vertex 0.012111658 0.28063676 -0.032633007
 endloop
endfacet
facet normal 0.63439703 0.0019771873 0.77300483
 outer loop
  vertex 0.011877815 0.28063726 -0.032441095
  vertex 0.011877815 0.29063722 -0.032466672
  vertex 0.011643971 0.2906377 -0.03227476
 endloop
endfacet
facet normal 0.6343897 0.0019769152 0.7730109
 outer loop
  vertex 0.011877815 0.28063726 -0.032441095
  vertex 0.011643971 0.2906377 -0.03227476
  vertex 0.011643971 0.28063774 -0.032249186
 endloop
endfacet
facet normal 0.4713939 0.002255763 0.8819199
 outer loop
  vertex 0.011377181 0.2806381 -0.032106582
  vertex 0.011377181 0.2906381 -0.03213216
  vertex 0.0111103915 0.29063845 -0.03198956
 endloop
endfacet
facet normal 0.4713941 0.0022557694 0.8819198
 outer loop
  vertex 0.011377181 0.2806381 -0.032106582
  vertex 0.0111103915 0.29063845 -0.03198956
  vertex 0.0111103915 0.2806385 -0.03196398
 endloop
endfacet
facet normal 0.29028127 0.0024472948 0.95693827
 outer loop
  vertex 0.010820907 0.2806387 -0.03187617
  vertex 0.010820907 0.29063866 -0.031901743
  vertex 0.010531423 0.2906389 -0.03181393
 endloop
endfacet
facet normal 0.29029256 0.0024476424 0.9569348
 outer loop
  vertex 0.010820907 0.2806387 -0.03187617
  vertex 0.010531423 0.2906389 -0.03181393
  vertex 0.010531423 0.28063893 -0.031788353
 endloop
endfacet
facet normal 0.09802421 0.0025454601 0.9951808
 outer loop
  vertex 0.010230369 0.280639 -0.031758703
  vertex 0.010230369 0.29063898 -0.03178428
  vertex 0.009929315 0.29063904 -0.031754628
 endloop
endfacet
facet normal 0.098024465 0.0025454676 0.9951807
 outer loop
  vertex 0.010230369 0.280639 -0.031758703
  vertex 0.009929315 0.29063904 -0.031754628
  vertex 0.009929315 0.28063908 -0.03172905
 endloop
endfacet
facet normal -0.09801227 0.0025454632 0.995182
 outer loop
  vertex 0.009628261 0.280639 -0.031758703
  vertex 0.009628261 0.29063898 -0.03178428
  vertex 0.009327208 0.2906389 -0.03181393
 endloop
endfacet
facet normal -0.09801202 0.0025454706 0.9951819
 outer loop
  vertex 0.009628261 0.280639 -0.031758703
  vertex 0.009327208 0.2906389 -0.03181393
  vertex 0.009327208 0.28063893 -0.031788353
 endloop
endfacet
facet normal -0.2902915 0.0024472869 0.95693517
 outer loop
  vertex 0.009037724 0.2806387 -0.03187617
  vertex 0.009037724 0.29063866 -0.031901743
  vertex 0.008748239 0.29063845 -0.03198956
 endloop
endfacet
facet normal -0.2902802 0.002447652 0.95693856
 outer loop
  vertex 0.009037724 0.2806387 -0.03187617
  vertex 0.008748239 0.29063845 -0.03198956
  vertex 0.008748239 0.2806385 -0.03196398
 endloop
endfacet
facet normal -0.47139284 0.0022557646 0.88192046
 outer loop
  vertex 0.008481449 0.2806381 -0.032106582
  vertex 0.008481449 0.2906381 -0.03213216
  vertex 0.008214659 0.2906377 -0.03227476
 endloop
endfacet
facet normal -0.4714022 0.00225543 0.88191545
 outer loop
  vertex 0.008481449 0.2806381 -0.032106582
  vertex 0.008214659 0.2906377 -0.03227476
  vertex 0.008214659 0.28063774 -0.032249186
 endloop
endfacet
facet normal -0.6343906 0.0019772009 0.7730102
 outer loop
  vertex 0.007980815 0.28063726 -0.032441095
  vertex 0.007980815 0.29063722 -0.032466672
  vertex 0.0077469717 0.29063672 -0.03265858
 endloop
endfacet
facet normal -0.6343979 0.0019768977 0.7730042
 outer loop
  vertex 0.007980815 0.28063726 -0.032441095
  vertex 0.0077469717 0.29063672 -0.03265858
  vertex 0.0077469717 0.28063676 -0.032633007
 endloop
endfacet
facet normal -0.77301234 0.0016226362 0.63438886
 outer loop
  vertex 0.007555061 0.28063616 -0.032866847
  vertex 0.007555061 0.29063612 -0.032892425
  vertex 0.007363151 0.29063553 -0.03312627
 endloop
endfacet
facet normal -0.77301234 0.0016226362 0.63438886
 outer loop
  vertex 0.007555061 0.28063616 -0.032866847
  vertex 0.007363151 0.29063553 -0.03312627
  vertex 0.007363151 0.28063557 -0.03310069
 endloop
endfacet
facet normal -0.8819221 0.0012055524 0.47139362
 outer loop
  vertex 0.0072205486 0.28063488 -0.03336748
  vertex 0.0072205486 0.29063484 -0.033393055
  vertex 0.0070779463 0.29063419 -0.033659846
 endloop
endfacet
facet normal -0.88191944 0.0012057371 0.47139862
 outer loop
  vertex 0.0072205486 0.28063488 -0.03336748
  vertex 0.0070779463 0.29063419 -0.033659846
  vertex 0.0070779463 0.2806342 -0.033634268
 endloop
endfacet
facet normal -0.9569395 0.00074249366 0.2902867
 outer loop
  vertex 0.006990132 0.28063348 -0.033923753
  vertex 0.006990132 0.29063344 -0.03394933
  vertex 0.0069023175 0.2906327 -0.03423881
 endloop
endfacet
facet normal -0.95694053 0.0007423768 0.29028326
 outer loop
  vertex 0.006990132 0.28063348 -0.033923753
  vertex 0.0069023175 0.2906327 -0.03423881
  vertex 0.0069023175 0.28063273 -0.034213237
 endloop
endfacet
facet normal -0.9951847 0.0002507057 0.09801636
 outer loop
  vertex 0.0068726665 0.28063196 -0.03451429
  vertex 0.0068726665 0.29063192 -0.034539867
  vertex 0.0068430156 0.29063115 -0.03484092
 endloop
endfacet
facet normal -0.9951847 0.0002507057 0.09801636
 outer loop
  vertex 0.0068726665 0.28063196 -0.03451429
  vertex 0.0068430156 0.29063115 -0.03484092
  vertex 0.0068430156 0.28063118 -0.03481534
 endloop
endfacet
facet normal -0.9951848 -0.00025070578 -0.09801639
 outer loop
  vertex 0.0068726665 0.2806304 -0.035116393
  vertex 0.0068726665 0.29063037 -0.03514197
  vertex 0.0069023175 0.29062963 -0.035443023
 endloop
endfacet
facet normal -0.9951848 -0.00025070496 -0.09801637
 outer loop
  vertex 0.0068726665 0.2806304 -0.035116393
  vertex 0.0069023175 0.29062963 -0.035443023
  vertex 0.0069023175 0.28062963 -0.035417445
 endloop
endfacet
facet normal -0.9569394 -0.00074249133 -0.29028666
 outer loop
  vertex 0.006990132 0.2806289 -0.03570693
  vertex 0.006990132 0.29062888 -0.035732508
  vertex 0.0070779463 0.29062814 -0.03602199
 endloop
endfacet
facet normal -0.9569405 -0.00074237696 -0.29028332
 outer loop
  vertex 0.006990132 0.2806289 -0.03570693
  vertex 0.0070779463 0.29062814 -0.03602199
  vertex 0.0070779463 0.28062817 -0.035996415
 endloop
endfacet
facet normal -0.8819222 -0.0012057277 -0.47139353
 outer loop
  vertex 0.0072205486 0.2806275 -0.0362632
  vertex 0.0072205486 0.29062745 -0.03628878
  vertex 0.007363151 0.29062676 -0.03655557
 endloop
endfacet
facet normal -0.8819222 -0.0012057277 -0.47139353
 outer loop
  vertex 0.0072205486 0.2806275 -0.0362632
  vertex 0.007363151 0.29062676 -0.03655557
  vertex 0.007363151 0.2806268 -0.03652999
 endloop
endfacet
facet normal -0.7730116 -0.0016224023 -0.6343898
 outer loop
  vertex 0.007555061 0.2806262 -0.036763836
  vertex 0.007555061 0.29062617 -0.03678941
  vertex 0.0077469717 0.29062557 -0.037023254
 endloop
endfacet
facet normal -0.7730066 -0.001622654 -0.63439584
 outer loop
  vertex 0.007555061 0.2806262 -0.036763836
  vertex 0.0077469717 0.29062557 -0.037023254
  vertex 0.0077469717 0.2806256 -0.036997676
 endloop
endfacet
facet normal -0.6343897 -0.001977203 -0.7730109
 outer loop
  vertex 0.007980815 0.2806251 -0.037189588
  vertex 0.007980815 0.29062507 -0.037215166
  vertex 0.008214659 0.2906246 -0.037407074
 endloop
endfacet
facet normal -0.6343897 -0.001977203 -0.7730109
 outer loop
  vertex 0.007980815 0.2806251 -0.037189588
  vertex 0.008214659 0.2906246 -0.037407074
  vertex 0.008214659 0.28062463 -0.037381496
 endloop
endfacet
facet normal -0.4714037 -0.002255428 -0.8819147
 outer loop
  vertex 0.008481449 0.28062427 -0.0375241
  vertex 0.008481449 0.29062423 -0.037549675
  vertex 0.008748239 0.29062384 -0.03769228
 endloop
endfacet
facet normal -0.4713941 -0.0022557694 -0.8819198
 outer loop
  vertex 0.008481449 0.28062427 -0.0375241
  vertex 0.008748239 0.29062384 -0.03769228
  vertex 0.008748239 0.28062388 -0.0376667
 endloop
endfacet
facet normal 0.00010283677 0.99999535 -0.0030540861
 outer loop
  vertex 0.010820907 0.29062364 -0.03778009
  vertex 0.010531423 0.2906234 -0.037867904
  vertex 0.010230369 0.29062334 -0.037897557
 endloop
endfacet
facet normal 0 0.9999955 -0.003015441
 outer loop
  vertex 0.010230369 0.29062334 -0.037897557
  vertex 0.009929315 0.29062325 -0.037927207
  vertex 0.009628261 0.29062334 -0.037897557
 endloop
endfacet
facet normal -0.00010283677 0.99999535 -0.0030540861
 outer loop
  vertex 0.009628261 0.29062334 -0.037897557
  vertex 0.009327208 0.2906234 -0.037867904
  vertex 0.009037724 0.29062364 -0.03778009
 endloop
endfacet
facet normal -0.00023925216 0.99999493 -0.0031644122
 outer loop
  vertex 0.009037724 0.29062364 -0.03778009
  vertex 0.008748239 0.29062384 -0.03769228
  vertex 0.008481449 0.29062423 -0.037549675
 endloop
endfacet
facet normal 3.5545807e-05 0.999997 -0.0024413925
 outer loop
  vertex 0.008481449 0.29062423 -0.037549675
  vertex 0.008214659 0.2906246 -0.037407074
  vertex 0.007980815 0.29062507 -0.037215166
 endloop
endfacet
facet normal 0.00022887335 0.9999972 -0.0023610687
 outer loop
  vertex 0.007980815 0.29062507 -0.037215166
  vertex 0.0077469717 0.29062557 -0.037023254
  vertex 0.007555061 0.29062617 -0.03678941
 endloop
endfacet
facet normal -7.097107e-05 0.9999966 -0.0026071842
 outer loop
  vertex 0.007555061 0.29062617 -0.03678941
  vertex 0.007363151 0.29062676 -0.03655557
  vertex 0.0072205486 0.29062745 -0.03628878
 endloop
endfacet
facet normal -1.9520821e-05 0.9999966 -0.0025796837
 outer loop
  vertex 0.0072205486 0.29062745 -0.03628878
  vertex 0.0070779463 0.29062814 -0.03602199
  vertex 0.006990132 0.29062888 -0.035732508
 endloop
endfacet
facet normal 0.00048271954 0.9999969 -0.002427298
 outer loop
  vertex 0.006990132 0.29062888 -0.035732508
  vertex 0.0069023175 0.29062963 -0.035443023
  vertex 0.0068726665 0.29063037 -0.03514197
 endloop
endfacet
facet normal 0 0.9999967 -0.0025738347
 outer loop
  vertex 0.0068726665 0.29063037 -0.03514197
  vertex 0.0068430156 0.29063115 -0.03484092
  vertex 0.0068726665 0.29063192 -0.034539867
 endloop
endfacet
facet normal 1.9899058e-07 0.9999967 -0.0025738226
 outer loop
  vertex 0.0068726665 0.29063192 -0.034539867
  vertex 0.0069023175 0.2906327 -0.03423881
  vertex 0.006990132 0.29063344 -0.03394933
 endloop
endfacet
facet normal 0.0005026133 0.99999624 -0.002726194
 outer loop
  vertex 0.006990132 0.29063344 -0.03394933
  vertex 0.0070779463 0.29063419 -0.033659846
  vertex 0.0072205486 0.29063484 -0.033393055
 endloop
endfacet
facet normal 7.124344e-05 0.9999966 -0.0026073663
 outer loop
  vertex 0.0072205486 0.29063484 -0.033393055
  vertex 0.007363151 0.29063553 -0.03312627
  vertex 0.007555061 0.29063612 -0.032892425
 endloop
endfacet
facet normal -0.00022898853 0.9999972 -0.002360974
 outer loop
  vertex 0.007555061 0.29063612 -0.032892425
  vertex 0.0077469717 0.29063672 -0.03265858
  vertex 0.007980815 0.29063722 -0.032466672
 endloop
endfacet
facet normal -0.0003559609 0.9999978 -0.0020509227
 outer loop
  vertex 0.007980815 0.29063722 -0.032466672
  vertex 0.008214659 0.2906377 -0.03227476
  vertex 0.008481449 0.2906381 -0.03213216
 endloop
endfacet
facet normal 9.280536e-05 0.9999964 -0.002681522
 outer loop
  vertex 0.008481449 0.2906381 -0.03213216
  vertex 0.008748239 0.29063845 -0.03198956
  vertex 0.009037724 0.29063866 -0.031901743
 endloop
endfacet
facet normal -4.3803782e-05 0.9999966 -0.0025706722
 outer loop
  vertex 0.009037724 0.29063866 -0.031901743
  vertex 0.009327208 0.2906389 -0.03181393
  vertex 0.009628261 0.29063898 -0.03178428
 endloop
endfacet
facet normal 0 0.99999803 -0.0020100463
 outer loop
  vertex 0.009628261 0.29063898 -0.03178428
  vertex 0.009929315 0.29063904 -0.031754628
  vertex 0.010230369 0.29063898 -0.03178428
 endloop
endfacet
facet normal 4.3803782e-05 0.9999966 -0.0025706722
 outer loop
  vertex 0.010230369 0.29063898 -0.03178428
  vertex 0.010531423 0.2906389 -0.03181393
  vertex 0.010820907 0.29063866 -0.031901743
 endloop
endfacet
facet normal -9.280536e-05 0.9999964 -0.002681522
 outer loop
  vertex 0.010820907 0.29063866 -0.031901743
  vertex 0.0111103915 0.29063845 -0.03198956
  vertex 0.011377181 0.2906381 -0.03213216
 endloop
endfacet
facet normal 0.0003559609 0.9999978 -0.0020509227
 outer loop
  vertex 0.011377181 0.2906381 -0.03213216
  vertex 0.011643971 0.2906377 -0.03227476
  vertex 0.011877815 0.29063722 -0.032466672
 endloop
endfacet
facet normal 0.00022899112 0.9999972 -0.0023609719
 outer loop
  vertex 0.011877815 0.29063722 -0.032466672
  vertex 0.012111658 0.29063672 -0.03265858
  vertex 0.012303569 0.29063612 -0.032892425
 endloop
endfacet
facet normal -7.124344e-05 0.9999966 -0.0026073663
 outer loop
  vertex 0.012303569 0.29063612 -0.032892425
  vertex 0.01249548 0.29063553 -0.03312627
  vertex 0.012638082 0.29063484 -0.033393055
 endloop
endfacet
facet normal -0.0005026133 0.99999624 -0.002726194
 outer loop
  vertex 0.012638082 0.29063484 -0.033393055
  vertex 0.012780684 0.29063419 -0.033659846
  vertex 0.012868498 0.29063344 -0.03394933
 endloop
endfacet
facet normal -1.9898907e-07 0.9999967 -0.0025738226
 outer loop
  vertex 0.012868498 0.29063344 -0.03394933
  vertex 0.012956313 0.2906327 -0.03423881
  vertex 0.012985963 0.29063192 -0.034539867
 endloop
endfacet
facet normal 0 0.9999967 -0.0025738347
 outer loop
  vertex 0.012985963 0.29063192 -0.034539867
  vertex 0.013015615 0.29063115 -0.03484092
  vertex 0.012985963 0.29063037 -0.03514197
 endloop
endfacet
facet normal -0.00048271587 0.9999969 -0.002427299
 outer loop
  vertex 0.012985963 0.29063037 -0.03514197
  vertex 0.012956313 0.29062963 -0.035443023
  vertex 0.012868498 0.29062888 -0.035732508
 endloop
endfacet
facet normal 1.9520821e-05 0.9999966 -0.0025796837
 outer loop
  vertex 0.012868498 0.29062888 -0.035732508
  vertex 0.012780684 0.29062814 -0.03602199
  vertex 0.012638082 0.29062745 -0.03628878
 endloop
endfacet
facet normal 7.097107e-05 0.9999966 -0.0026071842
 outer loop
  vertex 0.012638082 0.29062745 -0.03628878
  vertex 0.01249548 0.29062676 -0.03655557
  vertex 0.012303569 0.29062617 -0.03678941
 endloop
endfacet
facet normal -0.0002288759 0.9999972 -0.0023610664
 outer loop
  vertex 0.012303569 0.29062617 -0.03678941
  vertex 0.012111658 0.29062557 -0.037023254
  vertex 0.011877815 0.29062507 -0.037215166
 endloop
endfacet
facet normal -3.5545807e-05 0.999997 -0.0024413925
 outer loop
  vertex 0.011877815 0.29062507 -0.037215166
  vertex 0.011643971 0.2906246 -0.037407074
  vertex 0.011377181 0.29062423 -0.037549675
 endloop
endfacet
facet normal 0.00023925216 0.99999493 -0.0031644122
 outer loop
  vertex 0.011377181 0.29062423 -0.037549675
  vertex 0.0111103915 0.29062384 -0.03769228
  vertex 0.010820907 0.29062364 -0.03778009
 endloop
endfacet
facet normal 0 0.9999968 -0.002537097
 outer loop
  vertex 0.010820907 0.29062364 -0.03778009
  vertex 0.010230369 0.29062334 -0.037897557
  vertex 0.009628261 0.29062334 -0.037897557
 endloop
endfacet
facet normal -1.9025203e-05 0.9999965 -0.0026327418
 outer loop
  vertex 0.009628261 0.29062334 -0.037897557
  vertex 0.009037724 0.29062364 -0.03778009
  vertex 0.008481449 0.29062423 -0.037549675
 endloop
endfacet
facet normal -0.00019199218 0.9999962 -0.0027819292
 outer loop
  vertex 0.008481449 0.29062423 -0.037549675
  vertex 0.007980815 0.29062507 -0.037215166
  vertex 0.007555061 0.29062617 -0.03678941
 endloop
endfacet
facet normal -4.6601006e-05 0.99999666 -0.002590901
 outer loop
  vertex 0.007555061 0.29062617 -0.03678941
  vertex 0.0072205486 0.29062745 -0.03628878
  vertex 0.006990132 0.29062888 -0.035732508
 endloop
endfacet
facet normal -0.00025397126 0.99999666 -0.002573835
 outer loop
  vertex 0.006990132 0.29062888 -0.035732508
  vertex 0.0068726665 0.29063037 -0.03514197
  vertex 0.0068726665 0.29063192 -0.034539867
 endloop
endfacet
facet normal 0.00025906478 0.9999965 -0.0026253138
 outer loop
  vertex 0.0068726665 0.29063192 -0.034539867
  vertex 0.006990132 0.29063344 -0.03394933
  vertex 0.0072205486 0.29063484 -0.033393055
 endloop
endfacet
facet normal -9.101068e-05 0.9999969 -0.002498952
 outer loop
  vertex 0.0072205486 0.29063484 -0.033393055
  vertex 0.007555061 0.29063612 -0.032892425
  vertex 0.007980815 0.29063722 -0.032466672
 endloop
endfacet
facet normal 0.00013751409 0.99999607 -0.0027894576
 outer loop
  vertex 0.007980815 0.29063722 -0.032466672
  vertex 0.008481449 0.2906381 -0.03213216
  vertex 0.009037724 0.29063866 -0.031901743
 endloop
endfacet
facet normal 0 0.99999607 -0.0027908932
 outer loop
  vertex 0.009037724 0.29063866 -0.031901743
  vertex 0.009628261 0.29063898 -0.03178428
  vertex 0.010230369 0.29063898 -0.03178428
 endloop
endfacet
facet normal 0.00012758927 0.9999977 -0.002149446
 outer loop
  vertex 0.010230369 0.29063898 -0.03178428
  vertex 0.010820907 0.29063866 -0.031901743
  vertex 0.011377181 0.2906381 -0.03213216
 endloop
endfacet
facet normal -1.2702369e-05 0.9999966 -0.0026026648
 outer loop
  vertex 0.011377181 0.2906381 -0.03213216
  vertex 0.011877815 0.29063722 -0.032466672
  vertex 0.012303569 0.29063612 -0.032892425
 endloop
endfacet
facet normal 0.0001644169 0.99999696 -0.0024499032
 outer loop
  vertex 0.012303569 0.29063612 -0.032892425
  vertex 0.012638082 0.29063484 -0.033393055
  vertex 0.012868498 0.29063344 -0.03394933
 endloop
endfacet
facet normal -2.6057774e-07 0.99999666 -0.0025738347
 outer loop
  vertex 0.012868498 0.29063344 -0.03394933
  vertex 0.012985963 0.29063192 -0.034539867
  vertex 0.012985963 0.29063037 -0.03514197
 endloop
endfacet
facet normal -0.00022424746 0.9999969 -0.0024787115
 outer loop
  vertex 0.012985963 0.29063037 -0.03514197
  vertex 0.012868498 0.29062888 -0.035732508
  vertex 0.012638082 0.29062745 -0.03628878
 endloop
endfacet
facet normal -9.094479e-05 0.9999969 -0.002498996
 outer loop
  vertex 0.012638082 0.29062745 -0.03628878
  vertex 0.012303569 0.29062617 -0.03678941
  vertex 0.011877815 0.29062507 -0.037215166
 endloop
endfacet
facet normal -0.0001005042 0.9999972 -0.0023441745
 outer loop
  vertex 0.011877815 0.29062507 -0.037215166
  vertex 0.011377181 0.29062423 -0.037549675
  vertex 0.010820907 0.29062364 -0.03778009
 endloop
endfacet
facet normal 2.4482488e-06 0.9999968 -0.0025619545
 outer loop
  vertex 0.010820907 0.29062364 -0.03778009
  vertex 0.009628261 0.29062334 -0.037897557
  vertex 0.008481449 0.29062423 -0.037549675
 endloop
endfacet
facet normal -2.6323378e-05 0.99999666 -0.0025800625
 outer loop
  vertex 0.008481449 0.29062423 -0.037549675
  vertex 0.007555061 0.29062617 -0.03678941
  vertex 0.006990132 0.29062888 -0.035732508
 endloop
endfacet
facet normal 5.2084124e-06 0.9999968 -0.002548308
 outer loop
  vertex 0.006990132 0.29062888 -0.035732508
  vertex 0.0068726665 0.29063192 -0.034539867
  vertex 0.0072205486 0.29063484 -0.033393055
 endloop
endfacet
facet normal 3.9473005e-05 0.9999966 -0.0026060368
 outer loop
  vertex 0.0072205486 0.29063484 -0.033393055
  vertex 0.007980815 0.29063722 -0.032466672
  vertex 0.009037724 0.29063866 -0.031901743
 endloop
endfacet
facet normal -1.6419479e-05 0.9999965 -0.0026241802
 outer loop
  vertex 0.009037724 0.29063866 -0.031901743
  vertex 0.010230369 0.29063898 -0.03178428
  vertex 0.011377181 0.2906381 -0.03213216
 endloop
endfacet
facet normal 7.2224815e-05 0.9999969 -0.002499181
 outer loop
  vertex 0.011377181 0.2906381 -0.03213216
  vertex 0.012303569 0.29063612 -0.032892425
  vertex 0.012868498 0.29063344 -0.03394933
 endloop
endfacet
facet normal 6.7373e-05 0.99999666 -0.0025671734
 outer loop
  vertex 0.012868498 0.29063344 -0.03394933
  vertex 0.012985963 0.29063037 -0.03514197
  vertex 0.012638082 0.29062745 -0.03628878
 endloop
endfacet
facet normal 3.944666e-05 0.9999966 -0.0026060047
 outer loop
  vertex 0.012638082 0.29062745 -0.03628878
  vertex 0.011877815 0.29062507 -0.037215166
  vertex 0.010820907 0.29062364 -0.03778009
 endloop
endfacet
facet normal 3.0380484e-06 0.9999967 -0.002555966
 outer loop
  vertex 0.010820907 0.29062364 -0.03778009
  vertex 0.008481449 0.29062423 -0.037549675
  vertex 0.006990132 0.29062888 -0.035732508
 endloop
endfacet
facet normal -9.057064e-06 0.9999967 -0.0025469025
 outer loop
  vertex 0.006990132 0.29062888 -0.035732508
  vertex 0.0072205486 0.29063484 -0.033393055
  vertex 0.009037724 0.29063866 -0.031901743
 endloop
endfacet
facet normal -1.08205795e-05 0.9999967 -0.0025673343
 outer loop
  vertex 0.009037724 0.29063866 -0.031901743
  vertex 0.011377181 0.2906381 -0.03213216
  vertex 0.012868498 0.29063344 -0.03394933
 endloop
endfacet
facet normal 2.3204689e-06 0.9999967 -0.0025607664
 outer loop
  vertex 0.012868498 0.29063344 -0.03394933
  vertex 0.012638082 0.29062745 -0.03628878
  vertex 0.010820907 0.29062364 -0.03778009
 endloop
endfacet
facet normal 4.118179e-06 0.9999967 -0.0025539452
 outer loop
  vertex 0.010820907 0.29062364 -0.03778009
  vertex 0.006990132 0.29062888 -0.035732508
  vertex 0.009037724 0.29063866 -0.031901743
 endloop
endfacet
facet normal -5.170015e-06 0.9999967 -0.0025567627
 outer loop
  vertex 0.009037724 0.29063866 -0.031901743
  vertex 0.012868498 0.29063344 -0.03394933
  vertex 0.010820907 0.29062364 -0.03778009
 endloop
endfacet
facet normal -0.29028127 -0.0024476512 -0.95693827
 outer loop
  vertex 0.009037724 0.28062367 -0.037754513
  vertex 0.009037724 0.29062364 -0.03778009
  vertex 0.009327208 0.2906234 -0.037867904
 endloop
endfacet
facet normal -0.29029256 -0.002447286 -0.9569348
 outer loop
  vertex 0.009037724 0.28062367 -0.037754513
  vertex 0.009327208 0.2906234 -0.037867904
  vertex 0.009327208 0.28062344 -0.03784233
 endloop
endfacet
facet normal -0.09801225 -0.0025454706 -0.9951819
 outer loop
  vertex 0.009628261 0.28062338 -0.03787198
  vertex 0.009628261 0.29062334 -0.037897557
  vertex 0.009929315 0.29062325 -0.037927207
 endloop
endfacet
facet normal -0.098024465 -0.0025450971 -0.9951807
 outer loop
  vertex 0.009628261 0.28062338 -0.03787198
  vertex 0.009929315 0.29062325 -0.037927207
  vertex 0.009929315 0.2806233 -0.037901632
 endloop
endfacet
facet normal 0 -0.99999803 0.0020100463
 outer loop
  vertex 0.009628261 0.2706234 -0.0378464
  vertex 0.009929315 0.27062333 -0.037876055
  vertex 0.010230369 0.2706234 -0.0378464
 endloop
endfacet
facet normal 4.3803782e-05 -0.9999966 0.0025706722
 outer loop
  vertex 0.010230369 0.2706234 -0.0378464
  vertex 0.010531423 0.27062348 -0.03781675
  vertex 0.010820907 0.2706237 -0.03772894
 endloop
endfacet
facet normal -9.280536e-05 -0.9999964 0.002681522
 outer loop
  vertex 0.010820907 0.2706237 -0.03772894
  vertex 0.0111103915 0.27062392 -0.037641123
  vertex 0.011377181 0.27062428 -0.037498523
 endloop
endfacet
facet normal 0.0003559609 -0.9999978 0.0020509227
 outer loop
  vertex 0.011377181 0.27062428 -0.037498523
  vertex 0.011643971 0.27062467 -0.037355922
  vertex 0.011877815 0.27062514 -0.03716401
 endloop
endfacet
facet normal 0.00022899112 -0.9999972 0.0023609719
 outer loop
  vertex 0.011877815 0.27062514 -0.03716401
  vertex 0.012111658 0.27062565 -0.0369721
  vertex 0.012303569 0.27062625 -0.036738258
 endloop
endfacet
facet normal -7.124344e-05 -0.9999966 0.0026073663
 outer loop
  vertex 0.012303569 0.27062625 -0.036738258
  vertex 0.01249548 0.27062684 -0.036504414
  vertex 0.012638082 0.27062753 -0.036237627
 endloop
endfacet
facet normal -0.0005026133 -0.99999624 0.002726194
 outer loop
  vertex 0.012638082 0.27062753 -0.036237627
  vertex 0.012780684 0.27062818 -0.035970837
  vertex 0.012868498 0.27062893 -0.035681352
 endloop
endfacet
facet normal -1.9898907e-07 -0.9999967 0.0025738226
 outer loop
  vertex 0.012868498 0.27062893 -0.035681352
  vertex 0.012956313 0.27062967 -0.03539187
  vertex 0.012985963 0.27063045 -0.035090815
 endloop
endfacet
facet normal 0 -0.9999967 0.0025738347
 outer loop
  vertex 0.012985963 0.27063045 -0.035090815
  vertex 0.013015615 0.27063122 -0.034789763
  vertex 0.012985963 0.270632 -0.03448871
 endloop
endfacet
facet normal -0.00048271587 -0.9999969 0.002427299
 outer loop
  vertex 0.012985963 0.270632 -0.03448871
  vertex 0.012956313 0.27063274 -0.03418766
  vertex 0.012868498 0.2706335 -0.033898175
 endloop
endfacet
facet normal 1.9520821e-05 -0.9999966 0.0025796837
 outer loop
  vertex 0.012868498 0.2706335 -0.033898175
  vertex 0.012780684 0.27063423 -0.033608694
  vertex 0.012638082 0.27063492 -0.033341903
 endloop
endfacet
facet normal 7.097107e-05 -0.9999966 0.0026071842
 outer loop
  vertex 0.012638082 0.27063492 -0.033341903
  vertex 0.01249548 0.2706356 -0.033075113
  vertex 0.012303569 0.2706362 -0.032841273
 endloop
endfacet
facet normal -0.0002288759 -0.9999972 0.0023610664
 outer loop
  vertex 0.012303569 0.2706362 -0.032841273
  vertex 0.012111658 0.2706368 -0.03260743
  vertex 0.011877815 0.2706373 -0.032415517
 endloop
endfacet
facet normal -3.5545807e-05 -0.999997 0.0024413925
 outer loop
  vertex 0.011877815 0.2706373 -0.032415517
  vertex 0.011643971 0.27063778 -0.03222361
  vertex 0.011377181 0.27063814 -0.032081008
 endloop
endfacet
facet normal 0.00023925216 -0.99999493 0.0031644122
 outer loop
  vertex 0.011377181 0.27063814 -0.032081008
  vertex 0.0111103915 0.27063853 -0.031938404
  vertex 0.010820907 0.27063873 -0.03185059
 endloop
endfacet
facet normal 0.00010283677 -0.99999535 0.0030540861
 outer loop
  vertex 0.010820907 0.27063873 -0.03185059
  vertex 0.010531423 0.27063897 -0.03176278
  vertex 0.010230369 0.27063903 -0.031733125
 endloop
endfacet
facet normal 0 -0.9999955 0.003015441
 outer loop
  vertex 0.010230369 0.27063903 -0.031733125
  vertex 0.009929315 0.27063912 -0.031703476
  vertex 0.009628261 0.27063903 -0.031733125
 endloop
endfacet
facet normal -0.00010283677 -0.99999535 0.0030540861
 outer loop
  vertex 0.009628261 0.27063903 -0.031733125
  vertex 0.009327208 0.27063897 -0.03176278
  vertex 0.009037724 0.27063873 -0.03185059
 endloop
endfacet
facet normal -0.00023925216 -0.99999493 0.0031644122
 outer loop
  vertex 0.009037724 0.27063873 -0.03185059
  vertex 0.008748239 0.27063853 -0.031938404
  vertex 0.008481449 0.27063814 -0.032081008
 endloop
endfacet
facet normal 3.5545807e-05 -0.999997 0.0024413925
 outer loop
  vertex 0.008481449 0.27063814 -0.032081008
  vertex 0.008214659 0.27063778 -0.03222361
  vertex 0.007980815 0.2706373 -0.032415517
 endloop
endfacet
facet normal 0.00022887335 -0.9999972 0.0023610687
 outer loop
  vertex 0.007980815 0.2706373 -0.032415517
  vertex 0.0077469717 0.2706368 -0.03260743
  vertex 0.007555061 0.2706362 -0.032841273
 endloop
endfacet
facet normal -7.097107e-05 -0.9999966 0.0026071842
 outer loop
  vertex 0.007555061 0.2706362 -0.032841273
  vertex 0.007363151 0.2706356 -0.033075113
  vertex 0.0072205486 0.27063492 -0.033341903
 endloop
endfacet
facet normal -1.9520821e-05 -0.9999966 0.0025796837
 outer loop
  vertex 0.0072205486 0.27063492 -0.033341903
  vertex 0.0070779463 0.27063423 -0.033608694
  vertex 0.006990132 0.2706335 -0.033898175
 endloop
endfacet
facet normal 0.00048271954 -0.9999969 0.002427298
 outer loop
  vertex 0.006990132 0.2706335 -0.033898175
  vertex 0.0069023175 0.27063274 -0.03418766
  vertex 0.0068726665 0.270632 -0.03448871
 endloop
endfacet
facet normal 0 -0.9999967 0.0025738347
 outer loop
  vertex 0.0068726665 0.270632 -0.03448871
  vertex 0.0068430156 0.27063122 -0.034789763
  vertex 0.0068726665 0.27063045 -0.035090815
 endloop
endfacet
facet normal 1.9899058e-07 -0.9999967 0.0025738226
 outer loop
  vertex 0.0068726665 0.27063045 -0.035090815
  vertex 0.0069023175 0.27062967 -0.03539187
  vertex 0.006990132 0.27062893 -0.035681352
 endloop
endfacet
facet normal 0.0005026133 -0.99999624 0.002726194
 outer loop
  vertex 0.006990132 0.27062893 -0.035681352
  vertex 0.0070779463 0.27062818 -0.035970837
  vertex 0.0072205486 0.27062753 -0.036237627
 endloop
endfacet
facet normal 7.124344e-05 -0.9999966 0.0026073663
 outer loop
  vertex 0.0072205486 0.27062753 -0.036237627
  vertex 0.007363151 0.27062684 -0.036504414
  vertex 0.007555061 0.27062625 -0.036738258
 endloop
endfacet
facet normal -0.00022898853 -0.9999972 0.002360974
 outer loop
  vertex 0.007555061 0.27062625 -0.036738258
  vertex 0.0077469717 0.27062565 -0.0369721
  vertex 0.007980815 0.27062514 -0.03716401
 endloop
endfacet
facet normal -0.0003559609 -0.9999978 0.0020509227
 outer loop
  vertex 0.007980815 0.27062514 -0.03716401
  vertex 0.008214659 0.27062467 -0.037355922
  vertex 0.008481449 0.27062428 -0.037498523
 endloop
endfacet
facet normal 9.280536e-05 -0.9999964 0.002681522
 outer loop
  vertex 0.008481449 0.27062428 -0.037498523
  vertex 0.008748239 0.27062392 -0.037641123
  vertex 0.009037724 0.2706237 -0.03772894
 endloop
endfacet
facet normal -4.3803782e-05 -0.9999966 0.0025706722
 outer loop
  vertex 0.009037724 0.2706237 -0.03772894
  vertex 0.009327208 0.27062348 -0.03781675
  vertex 0.009628261 0.2706234 -0.0378464
 endloop
endfacet
facet normal 0 -0.99999607 0.0027908932
 outer loop
  vertex 0.009628261 0.2706234 -0.0378464
  vertex 0.010230369 0.2706234 -0.0378464
  vertex 0.010820907 0.2706237 -0.03772894
 endloop
endfacet
facet normal -0.00013751409 -0.99999607 0.0027894576
 outer loop
  vertex 0.010820907 0.2706237 -0.03772894
  vertex 0.011377181 0.27062428 -0.037498523
  vertex 0.011877815 0.27062514 -0.03716401
 endloop
endfacet
facet normal 9.101068e-05 -0.9999969 0.002498952
 outer loop
  vertex 0.011877815 0.27062514 -0.03716401
  vertex 0.012303569 0.27062625 -0.036738258
  vertex 0.012638082 0.27062753 -0.036237627
 endloop
endfacet
facet normal -0.00025906385 -0.9999965 0.0026253134
 outer loop
  vertex 0.012638082 0.27062753 -0.036237627
  vertex 0.012868498 0.27062893 -0.035681352
  vertex 0.012985963 0.27063045 -0.035090815
 endloop
endfacet
facet normal 0.00025397225 -0.99999666 0.0025738347
 outer loop
  vertex 0.012985963 0.27063045 -0.035090815
  vertex 0.012985963 0.270632 -0.03448871
  vertex 0.012868498 0.2706335 -0.033898175
 endloop
endfacet
facet normal 4.6601006e-05 -0.99999666 0.002590901
 outer loop
  vertex 0.012868498 0.2706335 -0.033898175
  vertex 0.012638082 0.27063492 -0.033341903
  vertex 0.012303569 0.2706362 -0.032841273
 endloop
endfacet
facet normal 0.00019199218 -0.9999962 0.0027819292
 outer loop
  vertex 0.012303569 0.2706362 -0.032841273
  vertex 0.011877815 0.2706373 -0.032415517
  vertex 0.011377181 0.27063814 -0.032081008
 endloop
endfacet
facet normal 1.9025203e-05 -0.9999965 0.0026327418
 outer loop
  vertex 0.011377181 0.27063814 -0.032081008
  vertex 0.010820907 0.27063873 -0.03185059
  vertex 0.010230369 0.27063903 -0.031733125
 endloop
endfacet
facet normal 0 -0.9999968 0.002537097
 outer loop
  vertex 0.010230369 0.27063903 -0.031733125
  vertex 0.009628261 0.27063903 -0.031733125
  vertex 0.009037724 0.27063873 -0.03185059
 endloop
endfacet
facet normal 0.0001005042 -0.9999972 0.0023441745
 outer loop
  vertex 0.009037724 0.27063873 -0.03185059
  vertex 0.008481449 0.27063814 -0.032081008
  vertex 0.007980815 0.2706373 -0.032415517
 endloop
endfacet
facet normal 9.094479e-05 -0.9999969 0.002498996
 outer loop
  vertex 0.007980815 0.2706373 -0.032415517
  vertex 0.007555061 0.2706362 -0.032841273
  vertex 0.0072205486 0.27063492 -0.033341903
 endloop
endfacet
facet normal 0.00022424826 -0.9999969 0.002478711
 outer loop
  vertex 0.0072205486 0.27063492 -0.033341903
  vertex 0.006990132 0.2706335 -0.033898175
  vertex 0.0068726665 0.270632 -0.03448871
 endloop
endfacet
facet normal 2.6057674e-07 -0.99999666 0.002573835
 outer loop
  vertex 0.0068726665 0.270632 -0.03448871
  vertex 0.0068726665 0.27063045 -0.035090815
  vertex 0.006990132 0.27062893 -0.035681352
 endloop
endfacet
facet normal -0.0001644169 -0.99999696 0.0024499032
 outer loop
  vertex 0.006990132 0.27062893 -0.035681352
  vertex 0.0072205486 0.27062753 -0.036237627
  vertex 0.007555061 0.27062625 -0.036738258
 endloop
endfacet
facet normal 1.2702369e-05 -0.9999966 0.0026026648
 outer loop
  vertex 0.007555061 0.27062625 -0.036738258
  vertex 0.007980815 0.27062514 -0.03716401
  vertex 0.008481449 0.27062428 -0.037498523
 endloop
endfacet
facet normal -0.00012758927 -0.9999977 0.002149446
 outer loop
  vertex 0.008481449 0.27062428 -0.037498523
  vertex 0.009037724 0.2706237 -0.03772894
  vertex 0.009628261 0.2706234 -0.0378464
 endloop
endfacet
facet normal 3.1235086e-05 -0.999997 0.0024737522
 outer loop
  vertex 0.009628261 0.2706234 -0.0378464
  vertex 0.010820907 0.2706237 -0.03772894
  vertex 0.011877815 0.27062514 -0.03716401
 endloop
endfacet
facet normal 5.2024916e-05 -0.9999968 0.0025309462
 outer loop
  vertex 0.011877815 0.27062514 -0.03716401
  vertex 0.012638082 0.27062753 -0.036237627
  vertex 0.012985963 0.27063045 -0.035090815
 endloop
endfacet
facet normal -3.9381484e-05 -0.9999968 0.0025449423
 outer loop
  vertex 0.012985963 0.27063045 -0.035090815
  vertex 0.012868498 0.2706335 -0.033898175
  vertex 0.012303569 0.2706362 -0.032841273
 endloop
endfacet
facet normal -1.060514e-05 -0.9999968 0.0025350645
 outer loop
  vertex 0.012303569 0.2706362 -0.032841273
  vertex 0.011377181 0.27063814 -0.032081008
  vertex 0.010230369 0.27063903 -0.031733125
 endloop
endfacet
facet normal 5.9065746e-07 -0.9999968 0.0025311
 outer loop
  vertex 0.010230369 0.27063903 -0.031733125
  vertex 0.009037724 0.27063873 -0.03185059
  vertex 0.007980815 0.2706373 -0.032415517
 endloop
endfacet
facet normal 5.1989387e-05 -0.9999968 0.002530965
 outer loop
  vertex 0.007980815 0.2706373 -0.032415517
  vertex 0.0072205486 0.27063492 -0.033341903
  vertex 0.0068726665 0.270632 -0.03448871
 endloop
endfacet
facet normal 8.261931e-05 -0.99999666 0.0025819463
 outer loop
  vertex 0.0068726665 0.270632 -0.03448871
  vertex 0.006990132 0.27062893 -0.035681352
  vertex 0.007555061 0.27062625 -0.036738258
 endloop
endfacet
facet normal 8.245291e-06 -0.9999966 0.0025972333
 outer loop
  vertex 0.007555061 0.27062625 -0.036738258
  vertex 0.008481449 0.27062428 -0.037498523
  vertex 0.009628261 0.2706234 -0.0378464
 endloop
endfacet
facet normal 6.5045288e-06 -0.9999967 0.0025552777
 outer loop
  vertex 0.009628261 0.2706234 -0.0378464
  vertex 0.011877815 0.27062514 -0.03716401
  vertex 0.012985963 0.27063045 -0.035090815
 endloop
endfacet
facet normal 1.2649062e-06 -0.9999967 0.0025572719
 outer loop
  vertex 0.012985963 0.27063045 -0.035090815
  vertex 0.012303569 0.2706362 -0.032841273
  vertex 0.010230369 0.27063903 -0.031733125
 endloop
endfacet
facet normal -9.307259e-06 -0.9999967 0.002563729
 outer loop
  vertex 0.010230369 0.27063903 -0.031733125
  vertex 0.007980815 0.2706373 -0.032415517
  vertex 0.0068726665 0.270632 -0.03448871
 endloop
endfacet
facet normal -1.5900048e-05 -0.9999967 0.0025520609
 outer loop
  vertex 0.0068726665 0.270632 -0.03448871
  vertex 0.007555061 0.27062625 -0.036738258
  vertex 0.009628261 0.2706234 -0.0378464
 endloop
endfacet
facet normal 3.4177112e-06 -0.9999967 0.002559039
 outer loop
  vertex 0.009628261 0.2706234 -0.0378464
  vertex 0.012985963 0.27063045 -0.035090815
  vertex 0.010230369 0.27063903 -0.031733125
 endloop
endfacet
facet normal -6.2386093e-06 -0.9999967 0.00255999
 outer loop
  vertex 0.010230369 0.27063903 -0.031733125
  vertex 0.0068726665 0.270632 -0.03448871
  vertex 0.009628261 0.2706234 -0.0378464
 endloop
endfacet
facet normal -0.09802446 -0.0025454601 -0.9951808
 outer loop
  vertex 0.009628261 0.2706234 -0.0378464
  vertex 0.009628261 0.28062338 -0.03787198
  vertex 0.009929315 0.2806233 -0.037901632
 endloop
endfacet
facet normal -0.09802422 -0.0025454678 -0.99518085
 outer loop
  vertex 0.009628261 0.2706234 -0.0378464
  vertex 0.009929315 0.2806233 -0.037901632
  vertex 0.009929315 0.27062333 -0.037876055
 endloop
endfacet
facet normal -0.09801201 -0.0025454706 -0.9951819
 outer loop
  vertex 0.009327208 0.27062348 -0.03781675
  vertex 0.009327208 0.28062344 -0.03784233
  vertex 0.009628261 0.28062338 -0.03787198
 endloop
endfacet
facet normal -0.098012276 -0.0025454632 -0.995182
 outer loop
  vertex 0.009327208 0.27062348 -0.03781675
  vertex 0.009628261 0.28062338 -0.03787198
  vertex 0.009628261 0.2706234 -0.0378464
 endloop
endfacet
facet normal -0.09802422 -0.0025450971 -0.99518085
 outer loop
  vertex 0.009327208 0.28062344 -0.03784233
  vertex 0.009327208 0.2906234 -0.037867904
  vertex 0.009628261 0.29062334 -0.037897557
 endloop
endfacet
facet normal -0.09801202 -0.0025454706 -0.9951819
 outer loop
  vertex 0.009327208 0.28062344 -0.03784233
  vertex 0.009628261 0.29062334 -0.037897557
  vertex 0.009628261 0.28062338 -0.03787198
 endloop
endfacet
facet normal -0.29029256 -0.002447286 -0.9569348
 outer loop
  vertex 0.009037724 0.2706237 -0.03772894
  vertex 0.009037724 0.28062367 -0.037754513
  vertex 0.009327208 0.28062344 -0.03784233
 endloop
endfacet
facet normal -0.2902813 -0.0024476512 -0.95693827
 outer loop
  vertex 0.009037724 0.2706237 -0.03772894
  vertex 0.009327208 0.28062344 -0.03784233
  vertex 0.009327208 0.27062348 -0.03781675
 endloop
endfacet
facet normal -0.29028016 -0.002447652 -0.95693856
 outer loop
  vertex 0.008748239 0.27062392 -0.037641123
  vertex 0.008748239 0.28062388 -0.0376667
  vertex 0.009037724 0.28062367 -0.037754513
 endloop
endfacet
facet normal -0.2902915 -0.0024472869 -0.95693517
 outer loop
  vertex 0.008748239 0.27062392 -0.037641123
  vertex 0.009037724 0.28062367 -0.037754513
  vertex 0.009037724 0.2706237 -0.03772894
 endloop
endfacet
facet normal -0.29028016 -0.002447652 -0.95693856
 outer loop
  vertex 0.008748239 0.28062388 -0.0376667
  vertex 0.008748239 0.29062384 -0.03769228
  vertex 0.009037724 0.29062364 -0.03778009
 endloop
endfacet
facet normal -0.2902802 -0.002447652 -0.95693856
 outer loop
  vertex 0.008748239 0.28062388 -0.0376667
  vertex 0.009037724 0.29062364 -0.03778009
  vertex 0.009037724 0.28062367 -0.037754513
 endloop
endfacet
facet normal -0.4713941 -0.0022557627 -0.88191974
 outer loop
  vertex 0.008481449 0.27062428 -0.037498523
  vertex 0.008481449 0.28062427 -0.0375241
  vertex 0.008748239 0.28062388 -0.0376667
 endloop
endfacet
facet normal -0.47139394 -0.00225577 -0.8819199
 outer loop
  vertex 0.008481449 0.27062428 -0.037498523
  vertex 0.008748239 0.28062388 -0.0376667
  vertex 0.008748239 0.27062392 -0.037641123
 endloop
endfacet
facet normal -0.4714022 -0.00225543 -0.88191545
 outer loop
  vertex 0.008214659 0.27062467 -0.037355922
  vertex 0.008214659 0.28062463 -0.037381496
  vertex 0.008481449 0.28062427 -0.0375241
 endloop
endfacet
facet normal -0.47139284 -0.0022557646 -0.88192046
 outer loop
  vertex 0.008214659 0.27062467 -0.037355922
  vertex 0.008481449 0.28062427 -0.0375241
  vertex 0.008481449 0.27062428 -0.037498523
 endloop
endfacet
facet normal -0.4713926 -0.0022557715 -0.8819206
 outer loop
  vertex 0.008214659 0.28062463 -0.037381496
  vertex 0.008214659 0.2906246 -0.037407074
  vertex 0.008481449 0.29062423 -0.037549675
 endloop
endfacet
facet normal -0.4714022 -0.00225543 -0.88191545
 outer loop
  vertex 0.008214659 0.28062463 -0.037381496
  vertex 0.008481449 0.29062423 -0.037549675
  vertex 0.008481449 0.28062427 -0.0375241
 endloop
endfacet
facet normal -0.6343897 -0.001977203 -0.7730109
 outer loop
  vertex 0.007980815 0.27062514 -0.03716401
  vertex 0.007980815 0.2806251 -0.037189588
  vertex 0.008214659 0.28062463 -0.037381496
 endloop
endfacet
facet normal -0.63439703 -0.0019768996 -0.77300483
 outer loop
  vertex 0.007980815 0.27062514 -0.03716401
  vertex 0.008214659 0.28062463 -0.037381496
  vertex 0.008214659 0.27062467 -0.037355922
 endloop
endfacet
facet normal -0.6343979 -0.0019768977 -0.7730042
 outer loop
  vertex 0.0077469717 0.27062565 -0.0369721
  vertex 0.0077469717 0.2806256 -0.036997676
  vertex 0.007980815 0.2806251 -0.037189588
 endloop
endfacet
facet normal -0.6343906 -0.0019772009 -0.7730102
 outer loop
  vertex 0.0077469717 0.27062565 -0.0369721
  vertex 0.007980815 0.2806251 -0.037189588
  vertex 0.007980815 0.27062514 -0.03716401
 endloop
endfacet
facet normal -0.6343979 -0.0019771855 -0.7730042
 outer loop
  vertex 0.0077469717 0.2806256 -0.036997676
  vertex 0.0077469717 0.29062557 -0.037023254
  vertex 0.007980815 0.29062507 -0.037215166
 endloop
endfacet
facet normal -0.6343979 -0.0019771855 -0.7730042
 outer loop
  vertex 0.0077469717 0.2806256 -0.036997676
  vertex 0.007980815 0.29062507 -0.037215166
  vertex 0.007980815 0.2806251 -0.037189588
 endloop
endfacet
facet normal -0.7730066 -0.001622654 -0.63439584
 outer loop
  vertex 0.007555061 0.27062625 -0.036738258
  vertex 0.007555061 0.2806262 -0.036763836
  vertex 0.0077469717 0.2806256 -0.036997676
 endloop
endfacet
facet normal -0.7730116 -0.0016224023 -0.6343898
 outer loop
  vertex 0.007555061 0.27062625 -0.036738258
  vertex 0.0077469717 0.2806256 -0.036997676
  vertex 0.0077469717 0.27062565 -0.0369721
 endloop
endfacet
facet normal -0.77301234 -0.0016226362 -0.63438886
 outer loop
  vertex 0.007363151 0.27062684 -0.036504414
  vertex 0.007363151 0.2806268 -0.03652999
  vertex 0.007555061 0.2806262 -0.036763836
 endloop
endfacet
facet normal -0.77301234 -0.0016226362 -0.63438886
 outer loop
  vertex 0.007363151 0.27062684 -0.036504414
  vertex 0.007555061 0.2806262 -0.036763836
  vertex 0.007555061 0.27062625 -0.036738258
 endloop
endfacet
facet normal -0.7730074 -0.0016226517 -0.63439494
 outer loop
  vertex 0.007363151 0.2806268 -0.03652999
  vertex 0.007363151 0.29062676 -0.03655557
  vertex 0.007555061 0.29062617 -0.03678941
 endloop
endfacet
facet normal -0.77301234 -0.0016224 -0.63438886
 outer loop
  vertex 0.007363151 0.2806268 -0.03652999
  vertex 0.007555061 0.29062617 -0.03678941
  vertex 0.007555061 0.2806262 -0.036763836
 endloop
endfacet
facet normal -0.8819222 -0.0012055521 -0.47139353
 outer loop
  vertex 0.0072205486 0.27062753 -0.036237627
  vertex 0.0072205486 0.2806275 -0.0362632
  vertex 0.007363151 0.2806268 -0.03652999
 endloop
endfacet
facet normal -0.8819194 -0.0012057407 -0.47139862
 outer loop
  vertex 0.0072205486 0.27062753 -0.036237627
  vertex 0.007363151 0.2806268 -0.03652999
  vertex 0.007363151 0.27062684 -0.036504414
 endloop
endfacet
facet normal -0.88191944 -0.0012057372 -0.47139865
 outer loop
  vertex 0.0070779463 0.27062818 -0.035970837
  vertex 0.0070779463 0.28062817 -0.035996415
  vertex 0.0072205486 0.2806275 -0.0362632
 endloop
endfacet
facet normal -0.8819221 -0.0012055524 -0.47139362
 outer loop
  vertex 0.0070779463 0.27062818 -0.035970837
  vertex 0.0072205486 0.2806275 -0.0362632
  vertex 0.0072205486 0.27062753 -0.036237627
 endloop
endfacet
facet normal -0.8819222 -0.0012055521 -0.47139353
 outer loop
  vertex 0.0070779463 0.28062817 -0.035996415
  vertex 0.0070779463 0.29062814 -0.03602199
  vertex 0.0072205486 0.29062745 -0.03628878
 endloop
endfacet
facet normal -0.8819194 -0.0012057407 -0.47139862
 outer loop
  vertex 0.0070779463 0.28062817 -0.035996415
  vertex 0.0072205486 0.29062745 -0.03628878
  vertex 0.0072205486 0.2806275 -0.0362632
 endloop
endfacet
facet normal -0.9569405 -0.00074248505 -0.29028332
 outer loop
  vertex 0.006990132 0.27062893 -0.035681352
  vertex 0.006990132 0.2806289 -0.03570693
  vertex 0.0070779463 0.28062817 -0.035996415
 endloop
endfacet
facet normal -0.9569404 -0.00074248266 -0.29028326
 outer loop
  vertex 0.006990132 0.27062893 -0.035681352
  vertex 0.0070779463 0.28062817 -0.035996415
  vertex 0.0070779463 0.27062818 -0.035970837
 endloop
endfacet
facet normal -0.95694053 -0.0007423768 -0.29028326
 outer loop
  vertex 0.0069023175 0.27062967 -0.03539187
  vertex 0.0069023175 0.28062963 -0.035417445
  vertex 0.006990132 0.2806289 -0.03570693
 endloop
endfacet
facet normal -0.9569395 -0.00074249366 -0.2902867
 outer loop
  vertex 0.0069023175 0.27062967 -0.03539187
  vertex 0.006990132 0.2806289 -0.03570693
  vertex 0.006990132 0.27062893 -0.035681352
 endloop
endfacet
facet normal -0.9569405 -0.0007424826 -0.29028323
 outer loop
  vertex 0.0069023175 0.28062963 -0.035417445
  vertex 0.0069023175 0.29062963 -0.035443023
  vertex 0.006990132 0.29062888 -0.035732508
 endloop
endfacet
facet normal -0.9569404 -0.00074248266 -0.29028326
 outer loop
  vertex 0.0069023175 0.28062963 -0.035417445
  vertex 0.006990132 0.29062888 -0.035732508
  vertex 0.006990132 0.2806289 -0.03570693
 endloop
endfacet
facet normal -0.9951847 -0.0002507057 -0.09801636
 outer loop
  vertex 0.0068726665 0.27063045 -0.035090815
  vertex 0.0068726665 0.2806304 -0.035116393
  vertex 0.0069023175 0.28062963 -0.035417445
 endloop
endfacet
facet normal -0.99518484 -0.0002506661 -0.09801516
 outer loop
  vertex 0.0068726665 0.27063045 -0.035090815
  vertex 0.0069023175 0.28062963 -0.035417445
  vertex 0.0069023175 0.27062967 -0.03539187
 endloop
endfacet
facet normal -0.9951847 -0.0002507057 -0.09801636
 outer loop
  vertex 0.0068430156 0.27063122 -0.034789763
  vertex 0.0068430156 0.28063118 -0.03481534
  vertex 0.0068726665 0.2806304 -0.035116393
 endloop
endfacet
facet normal -0.9951847 -0.0002507057 -0.09801636
 outer loop
  vertex 0.0068430156 0.27063122 -0.034789763
  vertex 0.0068726665 0.2806304 -0.035116393
  vertex 0.0068726665 0.27063045 -0.035090815
 endloop
endfacet
facet normal -0.9951847 -0.0002507057 -0.09801636
 outer loop
  vertex 0.0068430156 0.28063118 -0.03481534
  vertex 0.0068430156 0.29063115 -0.03484092
  vertex 0.0068726665 0.29063037 -0.03514197
 endloop
endfacet
facet normal -0.9951847 -0.0002507057 -0.09801636
 outer loop
  vertex 0.0068430156 0.28063118 -0.03481534
  vertex 0.0068726665 0.29063037 -0.03514197
  vertex 0.0068726665 0.2806304 -0.035116393
 endloop
endfacet
facet normal -0.9951847 0.0002507057 0.09801636
 outer loop
  vertex 0.0068726665 0.270632 -0.03448871
  vertex 0.0068726665 0.28063196 -0.03451429
  vertex 0.0068430156 0.28063118 -0.03481534
 endloop
endfacet
facet normal -0.9951847 0.0002507057 0.09801636
 outer loop
  vertex 0.0068726665 0.270632 -0.03448871
  vertex 0.0068430156 0.28063118 -0.03481534
  vertex 0.0068430156 0.27063122 -0.034789763
 endloop
endfacet
facet normal -0.9951848 0.00025070496 0.098016374
 outer loop
  vertex 0.0069023175 0.27063274 -0.03418766
  vertex 0.0069023175 0.28063273 -0.034213237
  vertex 0.0068726665 0.28063196 -0.03451429
 endloop
endfacet
facet normal -0.9951848 0.00025070578 0.09801639
 outer loop
  vertex 0.0069023175 0.27063274 -0.03418766
  vertex 0.0068726665 0.28063196 -0.03451429
  vertex 0.0068726665 0.270632 -0.03448871
 endloop
endfacet
facet normal -0.99518484 0.0002506661 0.09801516
 outer loop
  vertex 0.0069023175 0.28063273 -0.034213237
  vertex 0.0069023175 0.2906327 -0.03423881
  vertex 0.0068726665 0.29063192 -0.034539867
 endloop
endfacet
facet normal -0.9951847 0.0002507057 0.09801636
 outer loop
  vertex 0.0069023175 0.28063273 -0.034213237
  vertex 0.0068726665 0.29063192 -0.034539867
  vertex 0.0068726665 0.28063196 -0.03451429
 endloop
endfacet
facet normal -0.9569405 0.0007424826 0.29028323
 outer loop
  vertex 0.006990132 0.2706335 -0.033898175
  vertex 0.006990132 0.28063348 -0.033923753
  vertex 0.0069023175 0.28063273 -0.034213237
 endloop
endfacet
facet normal -0.9569404 0.00074248266 0.29028326
 outer loop
  vertex 0.006990132 0.2706335 -0.033898175
  vertex 0.0069023175 0.28063273 -0.034213237
  vertex 0.0069023175 0.27063274 -0.03418766
 endloop
endfacet
facet normal -0.9569405 0.00074237696 0.29028332
 outer loop
  vertex 0.0070779463 0.27063423 -0.033608694
  vertex 0.0070779463 0.2806342 -0.033634268
  vertex 0.006990132 0.28063348 -0.033923753
 endloop
endfacet
facet normal -0.9569394 0.0007424914 0.2902867
 outer loop
  vertex 0.0070779463 0.27063423 -0.033608694
  vertex 0.006990132 0.28063348 -0.033923753
  vertex 0.006990132 0.2706335 -0.033898175
 endloop
endfacet
facet normal -0.9569405 0.0007424826 0.29028323
 outer loop
  vertex 0.0070779463 0.2806342 -0.033634268
  vertex 0.0070779463 0.29063419 -0.033659846
  vertex 0.006990132 0.29063344 -0.03394933
 endloop
endfacet
facet normal -0.9569405 0.000742485 0.2902833
 outer loop
  vertex 0.0070779463 0.2806342 -0.033634268
  vertex 0.006990132 0.29063344 -0.03394933
  vertex 0.006990132 0.28063348 -0.033923753
 endloop
endfacet
facet normal -0.8819194 0.0012057407 0.47139862
 outer loop
  vertex 0.0072205486 0.27063492 -0.033341903
  vertex 0.0072205486 0.28063488 -0.03336748
  vertex 0.0070779463 0.2806342 -0.033634268
 endloop
endfacet
facet normal -0.8819222 0.0012055521 0.47139353
 outer loop
  vertex 0.0072205486 0.27063492 -0.033341903
  vertex 0.0070779463 0.2806342 -0.033634268
  vertex 0.0070779463 0.27063423 -0.033608694
 endloop
endfacet
facet normal -0.8819222 0.0012057277 0.47139353
 outer loop
  vertex 0.007363151 0.2706356 -0.033075113
  vertex 0.007363151 0.28063557 -0.03310069
  vertex 0.0072205486 0.28063488 -0.03336748
 endloop
endfacet
facet normal -0.8819222 0.0012057277 0.47139353
 outer loop
  vertex 0.007363151 0.2706356 -0.033075113
  vertex 0.0072205486 0.28063488 -0.03336748
  vertex 0.0072205486 0.27063492 -0.033341903
 endloop
endfacet
facet normal -0.8819194 0.0012057407 0.47139862
 outer loop
  vertex 0.007363151 0.28063557 -0.03310069
  vertex 0.007363151 0.29063553 -0.03312627
  vertex 0.0072205486 0.29063484 -0.033393055
 endloop
endfacet
facet normal -0.8819222 0.0012055521 0.47139353
 outer loop
  vertex 0.007363151 0.28063557 -0.03310069
  vertex 0.0072205486 0.29063484 -0.033393055
  vertex 0.0072205486 0.28063488 -0.03336748
 endloop
endfacet
facet normal -0.77301234 0.0016224 0.63438886
 outer loop
  vertex 0.007555061 0.2706362 -0.032841273
  vertex 0.007555061 0.28063616 -0.032866847
  vertex 0.007363151 0.28063557 -0.03310069
 endloop
endfacet
facet normal -0.7730074 0.0016226517 0.63439494
 outer loop
  vertex 0.007555061 0.2706362 -0.032841273
  vertex 0.007363151 0.28063557 -0.03310069
  vertex 0.007363151 0.2706356 -0.033075113
 endloop
endfacet
facet normal -0.7730066 0.001622654 0.63439584
 outer loop
  vertex 0.0077469717 0.2706368 -0.03260743
  vertex 0.0077469717 0.28063676 -0.032633007
  vertex 0.007555061 0.28063616 -0.032866847
 endloop
endfacet
facet normal -0.7730116 0.0016224023 0.6343898
 outer loop
  vertex 0.0077469717 0.2706368 -0.03260743
  vertex 0.007555061 0.28063616 -0.032866847
  vertex 0.007555061 0.2706362 -0.032841273
 endloop
endfacet
facet normal -0.7730116 0.0016224023 0.6343898
 outer loop
  vertex 0.0077469717 0.28063676 -0.032633007
  vertex 0.0077469717 0.29063672 -0.03265858
  vertex 0.007555061 0.29063612 -0.032892425
 endloop
endfacet
facet normal -0.7730066 0.001622654 0.63439584
 outer loop
  vertex 0.0077469717 0.28063676 -0.032633007
  vertex 0.007555061 0.29063612 -0.032892425
  vertex 0.007555061 0.28063616 -0.032866847
 endloop
endfacet
facet normal -0.6343979 0.0019771855 0.7730042
 outer loop
  vertex 0.007980815 0.2706373 -0.032415517
  vertex 0.007980815 0.28063726 -0.032441095
  vertex 0.0077469717 0.28063676 -0.032633007
 endloop
endfacet
facet normal -0.6343979 0.0019771855 0.7730042
 outer loop
  vertex 0.007980815 0.2706373 -0.032415517
  vertex 0.0077469717 0.28063676 -0.032633007
  vertex 0.0077469717 0.2706368 -0.03260743
 endloop
endfacet
facet normal -0.6343897 0.001977203 0.7730109
 outer loop
  vertex 0.008214659 0.27063778 -0.03222361
  vertex 0.008214659 0.28063774 -0.032249186
  vertex 0.007980815 0.28063726 -0.032441095
 endloop
endfacet
facet normal -0.6343897 0.001977203 0.7730109
 outer loop
  vertex 0.008214659 0.27063778 -0.03222361
  vertex 0.007980815 0.28063726 -0.032441095
  vertex 0.007980815 0.2706373 -0.032415517
 endloop
endfacet
facet normal -0.63439703 0.0019768996 0.77300483
 outer loop
  vertex 0.008214659 0.28063774 -0.032249186
  vertex 0.008214659 0.2906377 -0.03227476
  vertex 0.007980815 0.29063722 -0.032466672
 endloop
endfacet
facet normal -0.6343897 0.001977203 0.7730109
 outer loop
  vertex 0.008214659 0.28063774 -0.032249186
  vertex 0.007980815 0.29063722 -0.032466672
  vertex 0.007980815 0.28063726 -0.032441095
 endloop
endfacet
facet normal -0.4714022 0.00225543 0.88191545
 outer loop
  vertex 0.008481449 0.27063814 -0.032081008
  vertex 0.008481449 0.2806381 -0.032106582
  vertex 0.008214659 0.28063774 -0.032249186
 endloop
endfacet
facet normal -0.47139263 0.0022557715 0.8819206
 outer loop
  vertex 0.008481449 0.27063814 -0.032081008
  vertex 0.008214659 0.28063774 -0.032249186
  vertex 0.008214659 0.27063778 -0.03222361
 endloop
endfacet
facet normal -0.4713941 0.0022557694 0.8819198
 outer loop
  vertex 0.008748239 0.27063853 -0.031938404
  vertex 0.008748239 0.2806385 -0.03196398
  vertex 0.008481449 0.2806381 -0.032106582
 endloop
endfacet
facet normal -0.4714037 0.002255428 0.8819147
 outer loop
  vertex 0.008748239 0.27063853 -0.031938404
  vertex 0.008481449 0.2806381 -0.032106582
  vertex 0.008481449 0.27063814 -0.032081008
 endloop
endfacet
facet normal -0.4713939 0.00225577 0.8819199
 outer loop
  vertex 0.008748239 0.2806385 -0.03196398
  vertex 0.008748239 0.29063845 -0.03198956
  vertex 0.008481449 0.2906381 -0.03213216
 endloop
endfacet
facet normal -0.4713941 0.0022557627 0.88191974
 outer loop
  vertex 0.008748239 0.2806385 -0.03196398
  vertex 0.008481449 0.2906381 -0.03213216
  vertex 0.008481449 0.2806381 -0.032106582
 endloop
endfacet
facet normal -0.29028016 0.002447652 0.95693856
 outer loop
  vertex 0.009037724 0.27063873 -0.03185059
  vertex 0.009037724 0.2806387 -0.03187617
  vertex 0.008748239 0.2806385 -0.03196398
 endloop
endfacet
facet normal -0.2902802 0.002447652 0.95693856
 outer loop
  vertex 0.009037724 0.27063873 -0.03185059
  vertex 0.008748239 0.2806385 -0.03196398
  vertex 0.008748239 0.27063853 -0.031938404
 endloop
endfacet
facet normal -0.29029256 0.002447286 0.9569348
 outer loop
  vertex 0.009327208 0.27063897 -0.03176278
  vertex 0.009327208 0.28063893 -0.031788353
  vertex 0.009037724 0.2806387 -0.03187617
 endloop
endfacet
facet normal -0.2902813 0.0024476512 0.95693827
 outer loop
  vertex 0.009327208 0.27063897 -0.03176278
  vertex 0.009037724 0.2806387 -0.03187617
  vertex 0.009037724 0.27063873 -0.03185059
 endloop
endfacet
facet normal -0.29028127 0.0024476512 0.95693827
 outer loop
  vertex 0.009327208 0.28063893 -0.031788353
  vertex 0.009327208 0.2906389 -0.03181393
  vertex 0.009037724 0.29063866 -0.031901743
 endloop
endfacet
facet normal -0.29029256 0.002447286 0.9569348
 outer loop
  vertex 0.009327208 0.28063893 -0.031788353
  vertex 0.009037724 0.29063866 -0.031901743
  vertex 0.009037724 0.2806387 -0.03187617
 endloop
endfacet
facet normal -0.09801201 0.0025454706 0.9951819
 outer loop
  vertex 0.009628261 0.27063903 -0.031733125
  vertex 0.009628261 0.280639 -0.031758703
  vertex 0.009327208 0.28063893 -0.031788353
 endloop
endfacet
facet normal -0.09802422 0.0025450971 0.99518085
 outer loop
  vertex 0.009628261 0.27063903 -0.031733125
  vertex 0.009327208 0.28063893 -0.031788353
  vertex 0.009327208 0.27063897 -0.03176278
 endloop
endfacet
facet normal -0.09802446 0.0025450971 0.9951807
 outer loop
  vertex 0.009929315 0.27063912 -0.031703476
  vertex 0.009929315 0.28063908 -0.03172905
  vertex 0.009628261 0.280639 -0.031758703
 endloop
endfacet
facet normal -0.09801226 0.0025454706 0.9951819
 outer loop
  vertex 0.009929315 0.27063912 -0.031703476
  vertex 0.009628261 0.280639 -0.031758703
  vertex 0.009628261 0.27063903 -0.031733125
 endloop
endfacet
facet normal -0.09802422 0.0025454678 0.99518085
 outer loop
  vertex 0.009929315 0.28063908 -0.03172905
  vertex 0.009929315 0.29063904 -0.031754628
  vertex 0.009628261 0.29063898 -0.03178428
 endloop
endfacet
facet normal -0.098024465 0.0025454601 0.9951808
 outer loop
  vertex 0.009929315 0.28063908 -0.03172905
  vertex 0.009628261 0.29063898 -0.03178428
  vertex 0.009628261 0.280639 -0.031758703
 endloop
endfacet
facet normal 0.09802446 0.0025454676 0.9951807
 outer loop
  vertex 0.010230369 0.27063903 -0.031733125
  vertex 0.010230369 0.280639 -0.031758703
  vertex 0.009929315 0.28063908 -0.03172905
 endloop
endfacet
facet normal 0.09801226 0.0025451002 0.9951819
 outer loop
  vertex 0.010230369 0.27063903 -0.031733125
  vertex 0.009929315 0.28063908 -0.03172905
  vertex 0.009929315 0.27063912 -0.031703476
 endloop
endfacet
facet normal 0.09801201 0.0025451002 0.9951819
 outer loop
  vertex 0.010531423 0.27063897 -0.03176278
  vertex 0.010531423 0.28063893 -0.031788353
  vertex 0.010230369 0.280639 -0.031758703
 endloop
endfacet
facet normal 0.09802422 0.0025454678 0.99518085
 outer loop
  vertex 0.010531423 0.27063897 -0.03176278
  vertex 0.010230369 0.280639 -0.031758703
  vertex 0.010230369 0.27063903 -0.031733125
 endloop
endfacet
facet normal 0.09801225 0.0025454706 0.9951819
 outer loop
  vertex 0.010531423 0.28063893 -0.031788353
  vertex 0.010531423 0.2906389 -0.03181393
  vertex 0.010230369 0.29063898 -0.03178428
 endloop
endfacet
facet normal 0.09801202 0.0025454632 0.995182
 outer loop
  vertex 0.010531423 0.28063893 -0.031788353
  vertex 0.010230369 0.29063898 -0.03178428
  vertex 0.010230369 0.280639 -0.031758703
 endloop
endfacet
facet normal 0.29029256 0.0024476424 0.9569348
 outer loop
  vertex 0.010820907 0.27063873 -0.03185059
  vertex 0.010820907 0.2806387 -0.03187617
  vertex 0.010531423 0.28063893 -0.031788353
 endloop
endfacet
facet normal 0.29028127 0.0024472948 0.95693827
 outer loop
  vertex 0.010820907 0.27063873 -0.03185059
  vertex 0.010531423 0.28063893 -0.031788353
  vertex 0.010531423 0.27063897 -0.03176278
 endloop
endfacet
facet normal 0.29028016 0.002447652 0.95693856
 outer loop
  vertex 0.0111103915 0.27063853 -0.031938404
  vertex 0.0111103915 0.2806385 -0.03196398
  vertex 0.010820907 0.2806387 -0.03187617
 endloop
endfacet
facet normal 0.29028016 0.002447652 0.95693856
 outer loop
  vertex 0.0111103915 0.27063853 -0.031938404
  vertex 0.010820907 0.2806387 -0.03187617
  vertex 0.010820907 0.27063873 -0.03185059
 endloop
endfacet
facet normal 0.2902915 0.0024476433 0.95693517
 outer loop
  vertex 0.0111103915 0.2806385 -0.03196398
  vertex 0.0111103915 0.29063845 -0.03198956
  vertex 0.010820907 0.29063866 -0.031901743
 endloop
endfacet
facet normal 0.29028016 0.0024472955 0.95693856
 outer loop
  vertex 0.0111103915 0.2806385 -0.03196398
  vertex 0.010820907 0.29063866 -0.031901743
  vertex 0.010820907 0.2806387 -0.03187617
 endloop
endfacet
facet normal 0.4713941 0.002255441 0.8819198
 outer loop
  vertex 0.011377181 0.27063814 -0.032081008
  vertex 0.011377181 0.2806381 -0.032106582
  vertex 0.0111103915 0.2806385 -0.03196398
 endloop
endfacet
facet normal 0.4714037 0.0022557564 0.8819147
 outer loop
  vertex 0.011377181 0.27063814 -0.032081008
  vertex 0.0111103915 0.2806385 -0.03196398
  vertex 0.0111103915 0.27063853 -0.031938404
 endloop
endfacet
facet normal 0.4714022 0.0022557585 0.88191545
 outer loop
  vertex 0.011643971 0.27063778 -0.03222361
  vertex 0.011643971 0.28063774 -0.032249186
  vertex 0.011377181 0.2806381 -0.032106582
 endloop
endfacet
facet normal 0.47139263 0.002255443 0.8819206
 outer loop
  vertex 0.011643971 0.27063778 -0.03222361
  vertex 0.011377181 0.2806381 -0.032106582
  vertex 0.011377181 0.27063814 -0.032081008
 endloop
endfacet
facet normal 0.4713928 0.0022554428 0.88192046
 outer loop
  vertex 0.011643971 0.28063774 -0.032249186
  vertex 0.011643971 0.2906377 -0.03227476
  vertex 0.011377181 0.2906381 -0.03213216
 endloop
endfacet
facet normal 0.4714022 0.0022557518 0.88191545
 outer loop
  vertex 0.011643971 0.28063774 -0.032249186
  vertex 0.011377181 0.2906381 -0.03213216
  vertex 0.011377181 0.2806381 -0.032106582
 endloop
endfacet
facet normal 0.6343897 0.001977203 0.7730109
 outer loop
  vertex 0.011877815 0.2706373 -0.032415517
  vertex 0.011877815 0.28063726 -0.032441095
  vertex 0.011643971 0.28063774 -0.032249186
 endloop
endfacet
facet normal 0.6343897 0.001977203 0.7730109
 outer loop
  vertex 0.011877815 0.2706373 -0.032415517
  vertex 0.011643971 0.28063774 -0.032249186
  vertex 0.011643971 0.27063778 -0.03222361
 endloop
endfacet
facet normal 0.6343987 0.001977184 0.7730035
 outer loop
  vertex 0.012111658 0.2706368 -0.03260743
  vertex 0.012111658 0.28063676 -0.032633007
  vertex 0.011877815 0.28063726 -0.032441095
 endloop
endfacet
facet normal 0.6343987 0.001977184 0.7730035
 outer loop
  vertex 0.012111658 0.2706368 -0.03260743
  vertex 0.011877815 0.28063726 -0.032441095
  vertex 0.011877815 0.2706373 -0.032415517
 endloop
endfacet
facet normal 0.6343913 0.0019769114 0.77300954
 outer loop
  vertex 0.012111658 0.28063676 -0.032633007
  vertex 0.012111658 0.29063672 -0.03265858
  vertex 0.011877815 0.29063722 -0.032466672
 endloop
endfacet
facet normal 0.6343987 0.001977184 0.7730035
 outer loop
  vertex 0.012111658 0.28063676 -0.032633007
  vertex 0.011877815 0.29063722 -0.032466672
  vertex 0.011877815 0.28063726 -0.032441095
 endloop
endfacet
facet normal 0.7730059 0.0016224202 0.6343968
 outer loop
  vertex 0.012303569 0.2706362 -0.032841273
  vertex 0.012303569 0.28063616 -0.032866847
  vertex 0.012111658 0.28063676 -0.032633007
 endloop
endfacet
facet normal 0.7730108 0.0016226409 0.63439065
 outer loop
  vertex 0.012303569 0.2706362 -0.032841273
  vertex 0.012111658 0.28063676 -0.032633007
  vertex 0.012111658 0.2706368 -0.03260743
 endloop
endfacet
facet normal 0.77301234 0.0016226362 0.63438886
 outer loop
  vertex 0.01249548 0.2706356 -0.033075113
  vertex 0.01249548 0.28063557 -0.03310069
  vertex 0.012303569 0.28063616 -0.032866847
 endloop
endfacet
facet normal 0.7730074 0.0016224155 0.63439494
 outer loop
  vertex 0.01249548 0.2706356 -0.033075113
  vertex 0.012303569 0.28063616 -0.032866847
  vertex 0.012303569 0.2706362 -0.032841273
 endloop
endfacet
facet normal 0.77301234 0.0016226362 0.63438886
 outer loop
  vertex 0.01249548 0.28063557 -0.03310069
  vertex 0.01249548 0.29063553 -0.03312627
  vertex 0.012303569 0.29063612 -0.032892425
 endloop
endfacet
facet normal 0.77301234 0.0016226362 0.63438886
 outer loop
  vertex 0.01249548 0.28063557 -0.03310069
  vertex 0.012303569 0.29063612 -0.032892425
  vertex 0.012303569 0.28063616 -0.032866847
 endloop
endfacet
facet normal 0.8819222 0.0012057277 0.47139353
 outer loop
  vertex 0.012638082 0.27063492 -0.033341903
  vertex 0.012638082 0.28063488 -0.03336748
  vertex 0.01249548 0.28063557 -0.03310069
 endloop
endfacet
facet normal 0.8819222 0.0012057277 0.47139353
 outer loop
  vertex 0.012638082 0.27063492 -0.033341903
  vertex 0.01249548 0.28063557 -0.03310069
  vertex 0.01249548 0.2706356 -0.033075113
 endloop
endfacet
facet normal 0.8819194 0.0012055652 0.47139862
 outer loop
  vertex 0.012780684 0.27063423 -0.033608694
  vertex 0.012780684 0.2806342 -0.033634268
  vertex 0.012638082 0.28063488 -0.03336748
 endloop
endfacet
facet normal 0.8819222 0.0012057277 0.47139353
 outer loop
  vertex 0.012780684 0.27063423 -0.033608694
  vertex 0.012638082 0.28063488 -0.03336748
  vertex 0.012638082 0.27063492 -0.033341903
 endloop
endfacet
facet normal 0.8819221 0.0012057243 0.47139364
 outer loop
  vertex 0.012780684 0.2806342 -0.033634268
  vertex 0.012780684 0.29063419 -0.033659846
  vertex 0.012638082 0.29063484 -0.033393055
 endloop
endfacet
facet normal 0.8819194 0.0012055652 0.47139862
 outer loop
  vertex 0.012780684 0.2806342 -0.033634268
  vertex 0.012638082 0.29063484 -0.033393055
  vertex 0.012638082 0.28063488 -0.03336748
 endloop
endfacet
facet normal 0.9569404 0.00074248284 0.29028332
 outer loop
  vertex 0.012868498 0.2706335 -0.033898175
  vertex 0.012868498 0.28063348 -0.033923753
  vertex 0.012780684 0.2806342 -0.033634268
 endloop
endfacet
facet normal 0.9569395 0.0007423855 0.2902867
 outer loop
  vertex 0.012868498 0.2706335 -0.033898175
  vertex 0.012780684 0.2806342 -0.033634268
  vertex 0.012780684 0.27063423 -0.033608694
 endloop
endfacet
facet normal 0.9569405 0.0007424826 0.29028323
 outer loop
  vertex 0.012956313 0.27063274 -0.03418766
  vertex 0.012956313 0.28063273 -0.034213237
  vertex 0.012868498 0.28063348 -0.033923753
 endloop
endfacet
facet normal 0.9569404 0.00074248266 0.29028326
 outer loop
  vertex 0.012956313 0.27063274 -0.03418766
  vertex 0.012868498 0.28063348 -0.033923753
  vertex 0.012868498 0.2706335 -0.033898175
 endloop
endfacet
facet normal 0.9569395 0.0007423855 0.2902867
 outer loop
  vertex 0.012956313 0.28063273 -0.034213237
  vertex 0.012956313 0.2906327 -0.03423881
  vertex 0.012868498 0.29063344 -0.03394933
 endloop
endfacet
facet normal 0.95694053 0.0007424849 0.29028326
 outer loop
  vertex 0.012956313 0.28063273 -0.034213237
  vertex 0.012868498 0.29063344 -0.03394933
  vertex 0.012868498 0.28063348 -0.033923753
 endloop
endfacet
facet normal 0.99518484 0.0002507018 0.09801483
 outer loop
  vertex 0.012985963 0.270632 -0.03448871
  vertex 0.012985963 0.28063196 -0.03451429
  vertex 0.012956313 0.28063273 -0.034213237
 endloop
endfacet
facet normal 0.9951849 0.00025070112 0.09801486
 outer loop
  vertex 0.012985963 0.270632 -0.03448871
  vertex 0.012956313 0.28063273 -0.034213237
  vertex 0.012956313 0.27063274 -0.03418766
 endloop
endfacet
facet normal 0.99518466 0.00025070962 0.098017894
 outer loop
  vertex 0.013015615 0.27063122 -0.034789763
  vertex 0.013015615 0.28063118 -0.03481534
  vertex 0.012985963 0.28063196 -0.03451429
 endloop
endfacet
facet normal 0.99518466 0.00025070962 0.098017894
 outer loop
  vertex 0.013015615 0.27063122 -0.034789763
  vertex 0.012985963 0.28063196 -0.03451429
  vertex 0.012985963 0.270632 -0.03448871
 endloop
endfacet
facet normal 0.99518466 0.00025070962 0.098017894
 outer loop
  vertex 0.013015615 0.28063118 -0.03481534
  vertex 0.013015615 0.29063115 -0.03484092
  vertex 0.012985963 0.29063192 -0.034539867
 endloop
endfacet
facet normal 0.99518466 0.00025070962 0.098017894
 outer loop
  vertex 0.013015615 0.28063118 -0.03481534
  vertex 0.012985963 0.29063192 -0.034539867
  vertex 0.012985963 0.28063196 -0.03451429
 endloop
endfacet
facet normal 0.99518466 -0.00025070962 -0.098017894
 outer loop
  vertex 0.012985963 0.27063045 -0.035090815
  vertex 0.012985963 0.2806304 -0.035116393
  vertex 0.013015615 0.28063118 -0.03481534
 endloop
endfacet
facet normal 0.99518466 -0.00025070962 -0.098017894
 outer loop
  vertex 0.012985963 0.27063045 -0.035090815
  vertex 0.013015615 0.28063118 -0.03481534
  vertex 0.013015615 0.27063122 -0.034789763
 endloop
endfacet
facet normal 0.99518484 -0.0002506653 -0.09801483
 outer loop
  vertex 0.012956313 0.27062967 -0.03539187
  vertex 0.012956313 0.28062963 -0.035417445
  vertex 0.012985963 0.2806304 -0.035116393
 endloop
endfacet
facet normal 0.995185 -0.00025069874 -0.09801363
 outer loop
  vertex 0.012956313 0.27062967 -0.03539187
  vertex 0.012985963 0.2806304 -0.035116393
  vertex 0.012985963 0.27063045 -0.035090815
 endloop
endfacet
facet normal 0.9951849 -0.00025070112 -0.09801486
 outer loop
  vertex 0.012956313 0.28062963 -0.035417445
  vertex 0.012956313 0.29062963 -0.035443023
  vertex 0.012985963 0.29063037 -0.03514197
 endloop
endfacet
facet normal 0.99518484 -0.0002507018 -0.09801483
 outer loop
  vertex 0.012956313 0.28062963 -0.035417445
  vertex 0.012985963 0.29063037 -0.03514197
  vertex 0.012985963 0.2806304 -0.035116393
 endloop
endfacet
facet normal 0.95694053 -0.0007424849 -0.29028326
 outer loop
  vertex 0.012868498 0.27062893 -0.035681352
  vertex 0.012868498 0.2806289 -0.03570693
  vertex 0.012956313 0.28062963 -0.035417445
 endloop
endfacet
facet normal 0.9569395 -0.0007423855 -0.2902867
 outer loop
  vertex 0.012868498 0.27062893 -0.035681352
  vertex 0.012956313 0.28062963 -0.035417445
  vertex 0.012956313 0.27062967 -0.03539187
 endloop
endfacet
facet normal 0.9569404 -0.00074248284 -0.29028332
 outer loop
  vertex 0.012780684 0.27062818 -0.035970837
  vertex 0.012780684 0.28062817 -0.035996415
  vertex 0.012868498 0.2806289 -0.03570693
 endloop
endfacet
facet normal 0.95694053 -0.0007424849 -0.29028326
 outer loop
  vertex 0.012780684 0.27062818 -0.035970837
  vertex 0.012868498 0.2806289 -0.03570693
  vertex 0.012868498 0.27062893 -0.035681352
 endloop
endfacet
facet normal 0.9569395 -0.0007423855 -0.2902867
 outer loop
  vertex 0.012780684 0.28062817 -0.035996415
  vertex 0.012780684 0.29062814 -0.03602199
  vertex 0.012868498 0.29062888 -0.035732508
 endloop
endfacet
facet normal 0.9569404 -0.00074248284 -0.29028332
 outer loop
  vertex 0.012780684 0.28062817 -0.035996415
  vertex 0.012868498 0.29062888 -0.035732508
  vertex 0.012868498 0.2806289 -0.03570693
 endloop
endfacet
facet normal 0.8819194 -0.0012055652 -0.47139862
 outer loop
  vertex 0.012638082 0.27062753 -0.036237627
  vertex 0.012638082 0.2806275 -0.0362632
  vertex 0.012780684 0.28062817 -0.035996415
 endloop
endfacet
facet normal 0.8819221 -0.0012057243 -0.47139364
 outer loop
  vertex 0.012638082 0.27062753 -0.036237627
  vertex 0.012780684 0.28062817 -0.035996415
  vertex 0.012780684 0.27062818 -0.035970837
 endloop
endfacet
facet normal 0.8819222 -0.0012057277 -0.47139353
 outer loop
  vertex 0.01249548 0.27062684 -0.036504414
  vertex 0.01249548 0.2806268 -0.03652999
  vertex 0.012638082 0.2806275 -0.0362632
 endloop
endfacet
facet normal 0.8819194 -0.0012055652 -0.47139862
 outer loop
  vertex 0.01249548 0.27062684 -0.036504414
  vertex 0.012638082 0.2806275 -0.0362632
  vertex 0.012638082 0.27062753 -0.036237627
 endloop
endfacet
facet normal 0.8819222 -0.0012057277 -0.47139353
 outer loop
  vertex 0.01249548 0.2806268 -0.03652999
  vertex 0.01249548 0.29062676 -0.03655557
  vertex 0.012638082 0.29062745 -0.03628878
 endloop
endfacet
facet normal 0.8819222 -0.0012057277 -0.47139353
 outer loop
  vertex 0.01249548 0.2806268 -0.03652999
  vertex 0.012638082 0.29062745 -0.03628878
  vertex 0.012638082 0.2806275 -0.0362632
 endloop
endfacet
facet normal 0.77301234 -0.0016226362 -0.63438886
 outer loop
  vertex 0.012303569 0.27062625 -0.036738258
  vertex 0.012303569 0.2806262 -0.036763836
  vertex 0.01249548 0.2806268 -0.03652999
 endloop
endfacet
facet normal 0.77301234 -0.0016226362 -0.63438886
 outer loop
  vertex 0.012303569 0.27062625 -0.036738258
  vertex 0.01249548 0.2806268 -0.03652999
  vertex 0.01249548 0.27062684 -0.036504414
 endloop
endfacet
facet normal 0.7730059 -0.0016224202 -0.6343968
 outer loop
  vertex 0.012111658 0.27062565 -0.0369721
  vertex 0.012111658 0.2806256 -0.036997676
  vertex 0.012303569 0.2806262 -0.036763836
 endloop
endfacet
facet normal 0.7730108 -0.0016226409 -0.63439065
 outer loop
  vertex 0.012111658 0.27062565 -0.0369721
  vertex 0.012303569 0.2806262 -0.036763836
  vertex 0.012303569 0.27062625 -0.036738258
 endloop
endfacet
facet normal 0.7730108 -0.0016226409 -0.63439065
 outer loop
  vertex 0.012111658 0.2806256 -0.036997676
  vertex 0.012111658 0.29062557 -0.037023254
  vertex 0.012303569 0.29062617 -0.03678941
 endloop
endfacet
facet normal 0.7730059 -0.0016224202 -0.6343968
 outer loop
  vertex 0.012111658 0.2806256 -0.036997676
  vertex 0.012303569 0.29062617 -0.03678941
  vertex 0.012303569 0.2806262 -0.036763836
 endloop
endfacet
facet normal 0.6343987 -0.001977184 -0.7730035
 outer loop
  vertex 0.011877815 0.27062514 -0.03716401
  vertex 0.011877815 0.2806251 -0.037189588
  vertex 0.012111658 0.2806256 -0.036997676
 endloop
endfacet
facet normal 0.6343913 -0.0019769114 -0.77300954
 outer loop
  vertex 0.011877815 0.27062514 -0.03716401
  vertex 0.012111658 0.2806256 -0.036997676
  vertex 0.012111658 0.27062565 -0.0369721
 endloop
endfacet
facet normal 0.6343897 -0.0019769152 -0.7730109
 outer loop
  vertex 0.011643971 0.27062467 -0.037355922
  vertex 0.011643971 0.28062463 -0.037381496
  vertex 0.011877815 0.2806251 -0.037189588
 endloop
endfacet
facet normal 0.63439703 -0.0019771873 -0.77300483
 outer loop
  vertex 0.011643971 0.27062467 -0.037355922
  vertex 0.011877815 0.2806251 -0.037189588
  vertex 0.011877815 0.27062514 -0.03716401
 endloop
endfacet
facet normal 0.6343897 -0.001977203 -0.7730109
 outer loop
  vertex 0.011643971 0.28062463 -0.037381496
  vertex 0.011643971 0.2906246 -0.037407074
  vertex 0.011877815 0.29062507 -0.037215166
 endloop
endfacet
facet normal 0.6343897 -0.001977203 -0.7730109
 outer loop
  vertex 0.011643971 0.28062463 -0.037381496
  vertex 0.011877815 0.29062507 -0.037215166
  vertex 0.011877815 0.2806251 -0.037189588
 endloop
endfacet
facet normal 0.47140217 -0.0022557518 -0.88191545
 outer loop
  vertex 0.011377181 0.27062428 -0.037498523
  vertex 0.011377181 0.28062427 -0.0375241
  vertex 0.011643971 0.28062463 -0.037381496
 endloop
endfacet
facet normal 0.4713928 -0.0022554428 -0.88192046
 outer loop
  vertex 0.011377181 0.27062428 -0.037498523
  vertex 0.011643971 0.28062463 -0.037381496
  vertex 0.011643971 0.27062467 -0.037355922
 endloop
endfacet
facet normal 0.4713941 -0.0022557694 -0.8819198
 outer loop
  vertex 0.0111103915 0.27062392 -0.037641123
  vertex 0.0111103915 0.28062388 -0.0376667
  vertex 0.011377181 0.28062427 -0.0375241
 endloop
endfacet
facet normal 0.4713939 -0.002255763 -0.8819199
 outer loop
  vertex 0.0111103915 0.27062392 -0.037641123
  vertex 0.011377181 0.28062427 -0.0375241
  vertex 0.011377181 0.27062428 -0.037498523
 endloop
endfacet
facet normal 0.4714037 -0.0022557564 -0.8819147
 outer loop
  vertex 0.0111103915 0.28062388 -0.0376667
  vertex 0.0111103915 0.29062384 -0.03769228
  vertex 0.011377181 0.29062423 -0.037549675
 endloop
endfacet
facet normal 0.4713941 -0.002255441 -0.8819198
 outer loop
  vertex 0.0111103915 0.28062388 -0.0376667
  vertex 0.011377181 0.29062423 -0.037549675
  vertex 0.011377181 0.28062427 -0.0375241
 endloop
endfacet
facet normal 0.29028016 -0.0024472955 -0.95693856
 outer loop
  vertex 0.010820907 0.2706237 -0.03772894
  vertex 0.010820907 0.28062367 -0.037754513
  vertex 0.0111103915 0.28062388 -0.0376667
 endloop
endfacet
facet normal 0.29029146 -0.0024476433 -0.95693517
 outer loop
  vertex 0.010820907 0.2706237 -0.03772894
  vertex 0.0111103915 0.28062388 -0.0376667
  vertex 0.0111103915 0.27062392 -0.037641123
 endloop
endfacet
facet normal 0.29029256 -0.0024476424 -0.9569348
 outer loop
  vertex 0.010531423 0.27062348 -0.03781675
  vertex 0.010531423 0.28062344 -0.03784233
  vertex 0.010820907 0.28062367 -0.037754513
 endloop
endfacet
facet normal 0.29028127 -0.0024472948 -0.95693827
 outer loop
  vertex 0.010531423 0.27062348 -0.03781675
  vertex 0.010820907 0.28062367 -0.037754513
  vertex 0.010820907 0.2706237 -0.03772894
 endloop
endfacet
facet normal 0.29028127 -0.0024472948 -0.95693827
 outer loop
  vertex 0.010531423 0.28062344 -0.03784233
  vertex 0.010531423 0.2906234 -0.037867904
  vertex 0.010820907 0.29062364 -0.03778009
 endloop
endfacet
facet normal 0.29029256 -0.0024476424 -0.9569348
 outer loop
  vertex 0.010531423 0.28062344 -0.03784233
  vertex 0.010820907 0.29062364 -0.03778009
  vertex 0.010820907 0.28062367 -0.037754513
 endloop
endfacet
facet normal 0.09801202 -0.0025454632 -0.995182
 outer loop
  vertex 0.010230369 0.2706234 -0.0378464
  vertex 0.010230369 0.28062338 -0.03787198
  vertex 0.010531423 0.28062344 -0.03784233
 endloop
endfacet
facet normal 0.09801226 -0.0025454706 -0.9951819
 outer loop
  vertex 0.010230369 0.2706234 -0.0378464
  vertex 0.010531423 0.28062344 -0.03784233
  vertex 0.010531423 0.27062348 -0.03781675
 endloop
endfacet
facet normal 0.09802446 -0.0025454676 -0.9951807
 outer loop
  vertex 0.009929315 0.27062333 -0.037876055
  vertex 0.009929315 0.2806233 -0.037901632
  vertex 0.010230369 0.28062338 -0.03787198
 endloop
endfacet
facet normal 0.09802421 -0.0025454601 -0.9951808
 outer loop
  vertex 0.009929315 0.27062333 -0.037876055
  vertex 0.010230369 0.28062338 -0.03787198
  vertex 0.010230369 0.2706234 -0.0378464
 endloop
endfacet
facet normal 0.09801225 -0.0025451002 -0.9951819
 outer loop
  vertex 0.009929315 0.2806233 -0.037901632
  vertex 0.009929315 0.29062325 -0.037927207
  vertex 0.010230369 0.29062334 -0.037897557
 endloop
endfacet
facet normal 0.098024465 -0.0025454676 -0.9951807
 outer loop
  vertex 0.009929315 0.2806233 -0.037901632
  vertex 0.010230369 0.29062334 -0.037897557
  vertex 0.010230369 0.28062338 -0.03787198
 endloop
endfacet
endsolid 
